<svg xmlns="http://www.w3.org/2000/svg" xmlns:xlink="http://www.w3.org/1999/xlink" contentStyleType="text/css" data-diagram-type="CLASS" height="790px" preserveAspectRatio="none" style="width:2095px;height:790px;background:#FFFFFF;" version="1.1" viewBox="0 0 2095 790" width="2095px" zoomAndPan="magnify"><defs/><g><!--class Mode--><g class="entity" data-entity="Mode" data-source-line="1" data-uid="ent0002" id="entity_Mode"><rect fill="#F1F1F1" height="80.5938" rx="2.5" ry="2.5" style="stroke:#181818;stroke-width:0.5;" width="70.1445" x="27.05" y="23.3"/><ellipse cx="42.05" cy="39.3" fill="#EB937F" rx="11" ry="11" style="stroke:#181818;stroke-width:1;"/><path d="M46.1594,45.3 L38.4406,45.3 L38.4406,32.9094 L46.1594,32.9094 L46.1594,35.0656 L40.8938,35.0656 L40.8938,37.7375 L45.6594,37.7375 L45.6594,39.8937 L40.8938,39.8937 L40.8938,43.1437 L46.1594,43.1437 L46.1594,45.3 Z " fill="#000000"/><text fill="#000000" font-family="sans-serif" font-size="14" lengthAdjust="spacing" textLength="38.1445" x="56.05" y="44.1467">Mode</text><line style="stroke:#181818;stroke-width:0.5;" x1="28.05" x2="96.1945" y1="55.3" y2="55.3"/><text fill="#000000" font-family="sans-serif" font-size="14" lengthAdjust="spacing" textLength="53.9629" x="33.05" y="72.2951">DESIGN</text><text fill="#000000" font-family="sans-serif" font-size="14" lengthAdjust="spacing" textLength="41.3506" x="33.05" y="88.592">GAME</text><line style="stroke:#181818;stroke-width:0.5;" x1="28.05" x2="96.1945" y1="95.8937" y2="95.8937"/></g><!--class Color--><g class="entity" data-entity="Color" data-source-line="5" data-uid="ent0003" id="entity_Color"><rect fill="#F1F1F1" height="113.1875" rx="2.5" ry="2.5" style="stroke:#181818;stroke-width:0.5;" width="69.8594" x="132.19" y="7"/><ellipse cx="147.7784" cy="23" fill="#EB937F" rx="11" ry="11" style="stroke:#181818;stroke-width:1;"/><path d="M151.8878,29 L144.1691,29 L144.1691,16.6094 L151.8878,16.6094 L151.8878,18.7656 L146.6222,18.7656 L146.6222,21.4375 L151.3878,21.4375 L151.3878,23.5938 L146.6222,23.5938 L146.6222,26.8438 L151.8878,26.8438 L151.8878,29 Z " fill="#000000"/><text fill="#000000" font-family="sans-serif" font-size="14" lengthAdjust="spacing" textLength="36.5518" x="161.9092" y="27.8467">Color</text><line style="stroke:#181818;stroke-width:0.5;" x1="133.19" x2="201.0494" y1="39" y2="39"/><text fill="#000000" font-family="sans-serif" font-size="14" lengthAdjust="spacing" textLength="29.3535" x="138.19" y="55.9951">RED</text><text fill="#000000" font-family="sans-serif" font-size="14" lengthAdjust="spacing" textLength="36.4971" x="138.19" y="72.292">BLUE</text><text fill="#000000" font-family="sans-serif" font-size="14" lengthAdjust="spacing" textLength="48.7402" x="138.19" y="88.5889">GREEN</text><text fill="#000000" font-family="sans-serif" font-size="14" lengthAdjust="spacing" textLength="57.8594" x="138.19" y="104.8857">YELLOW</text><line style="stroke:#181818;stroke-width:0.5;" x1="133.19" x2="201.0494" y1="112.1875" y2="112.1875"/></g><!--class TileO--><g class="entity" data-entity="TileO" data-source-line="13" data-uid="ent0004" id="entity_TileO"><rect fill="#F1F1F1" height="48" rx="2.5" ry="2.5" style="stroke:#181818;stroke-width:0.5;" width="67.9639" x="237.14" y="39.6"/><ellipse cx="252.14" cy="55.6" fill="#ADD1B2" rx="11" ry="11" style="stroke:#181818;stroke-width:1;"/><path d="M255.1088,61.2406 Q254.5306,61.5375 253.89,61.6781 Q253.2494,61.8344 252.5463,61.8344 Q250.0463,61.8344 248.7181,60.1938 Q247.4056,58.5375 247.4056,55.4125 Q247.4056,52.2875 248.7181,50.6313 Q250.0463,48.975 252.5463,48.975 Q253.2494,48.975 253.89,49.1313 Q254.5463,49.2875 255.1088,49.5844 L255.1088,52.3031 Q254.4838,51.725 253.89,51.4594 Q253.2963,51.1781 252.6713,51.1781 Q251.3275,51.1781 250.64,52.2563 Q249.9525,53.3188 249.9525,55.4125 Q249.9525,57.5063 250.64,58.5844 Q251.3275,59.6469 252.6713,59.6469 Q253.2963,59.6469 253.89,59.3813 Q254.4838,59.1 255.1088,58.5219 L255.1088,61.2406 Z " fill="#000000"/><text fill="#000000" font-family="sans-serif" font-size="14" lengthAdjust="spacing" textLength="35.9639" x="266.14" y="60.4467">TileO</text><line style="stroke:#181818;stroke-width:0.5;" x1="238.14" x2="304.1039" y1="71.6" y2="71.6"/><line style="stroke:#181818;stroke-width:0.5;" x1="238.14" x2="304.1039" y1="79.6" y2="79.6"/></g><!--class Game--><g class="entity" data-entity="Game" data-source-line="15" data-uid="ent0005" id="entity_Game"><rect fill="#F1F1F1" height="113.1875" rx="2.5" ry="2.5" style="stroke:#181818;stroke-width:0.5;" width="280.0029" x="131.12" y="197.19"/><ellipse cx="246.0321" cy="213.19" fill="#ADD1B2" rx="11" ry="11" style="stroke:#181818;stroke-width:1;"/><path d="M249.0009,218.8306 Q248.4227,219.1275 247.7821,219.2681 Q247.1415,219.4244 246.4384,219.4244 Q243.9384,219.4244 242.6102,217.7837 Q241.2977,216.1275 241.2977,213.0025 Q241.2977,209.8775 242.6102,208.2212 Q243.9384,206.565 246.4384,206.565 Q247.1415,206.565 247.7821,206.7212 Q248.4384,206.8775 249.0009,207.1744 L249.0009,209.8931 Q248.3759,209.315 247.7821,209.0494 Q247.1884,208.7681 246.5634,208.7681 Q245.2196,208.7681 244.5321,209.8462 Q243.8446,210.9087 243.8446,213.0025 Q243.8446,215.0962 244.5321,216.1744 Q245.2196,217.2369 246.5634,217.2369 Q247.1884,217.2369 247.7821,216.9712 Q248.3759,216.69 249.0009,216.1119 L249.0009,218.8306 Z " fill="#000000"/><text fill="#000000" font-family="sans-serif" font-size="14" lengthAdjust="spacing" textLength="41.6787" x="266.5321" y="218.0367">Game</text><line style="stroke:#181818;stroke-width:0.5;" x1="132.12" x2="410.1229" y1="229.19" y2="229.19"/><text fill="#000000" font-family="sans-serif" font-size="14" lengthAdjust="spacing" textLength="197.5244" x="137.12" y="246.1851">int currentConnectionPieces</text><text fill="#000000" font-family="sans-serif" font-size="14" lengthAdjust="spacing" textLength="82.2979" x="137.12" y="262.482">Mode mode</text><text fill="#000000" font-family="sans-serif" font-size="14" lengthAdjust="spacing" text-decoration="underline" textLength="268.0029" x="137.12" y="278.7789">const int SpareConnectionPieces = 32</text><text fill="#000000" font-family="sans-serif" font-size="14" lengthAdjust="spacing" text-decoration="underline" textLength="260.0869" x="137.12" y="295.0757">const int NumberOfActionCards = 32</text><line style="stroke:#181818;stroke-width:0.5;" x1="132.12" x2="410.1229" y1="302.3775" y2="302.3775"/></g><!--class Connection--><g class="entity" data-entity="Connection" data-source-line="22" data-uid="ent0006" id="entity_Connection"><rect fill="#F1F1F1" height="48" rx="2.5" ry="2.5" style="stroke:#181818;stroke-width:0.5;" width="111.2148" x="7.51" y="735.16"/><ellipse cx="22.51" cy="751.16" fill="#ADD1B2" rx="11" ry="11" style="stroke:#181818;stroke-width:1;"/><path d="M25.4787,756.8006 Q24.9006,757.0975 24.26,757.2381 Q23.6194,757.3944 22.9162,757.3944 Q20.4162,757.3944 19.0881,755.7538 Q17.7756,754.0975 17.7756,750.9725 Q17.7756,747.8475 19.0881,746.1913 Q20.4162,744.535 22.9162,744.535 Q23.6194,744.535 24.26,744.6913 Q24.9162,744.8475 25.4787,745.1444 L25.4787,747.8631 Q24.8537,747.285 24.26,747.0194 Q23.6662,746.7381 23.0412,746.7381 Q21.6975,746.7381 21.01,747.8163 Q20.3225,748.8788 20.3225,750.9725 Q20.3225,753.0663 21.01,754.1444 Q21.6975,755.2069 23.0412,755.2069 Q23.6662,755.2069 24.26,754.9413 Q24.8537,754.66 25.4787,754.0819 L25.4787,756.8006 Z " fill="#000000"/><text fill="#000000" font-family="sans-serif" font-size="14" lengthAdjust="spacing" textLength="79.2148" x="36.51" y="756.0067">Connection</text><line style="stroke:#181818;stroke-width:0.5;" x1="8.51" x2="117.7248" y1="767.16" y2="767.16"/><line style="stroke:#181818;stroke-width:0.5;" x1="8.51" x2="117.7248" y1="775.16" y2="775.16"/></g><!--class Die--><g class="entity" data-entity="Die" data-source-line="24" data-uid="ent0007" id="entity_Die"><rect fill="#F1F1F1" height="48" rx="2.5" ry="2.5" style="stroke:#181818;stroke-width:0.5;" width="55.2832" x="87.48" y="411.82"/><ellipse cx="102.48" cy="427.82" fill="#ADD1B2" rx="11" ry="11" style="stroke:#181818;stroke-width:1;"/><path d="M105.4488,433.4606 Q104.8706,433.7575 104.23,433.8981 Q103.5894,434.0544 102.8863,434.0544 Q100.3863,434.0544 99.0581,432.4138 Q97.7456,430.7575 97.7456,427.6325 Q97.7456,424.5075 99.0581,422.8513 Q100.3863,421.195 102.8863,421.195 Q103.5894,421.195 104.23,421.3513 Q104.8863,421.5075 105.4488,421.8044 L105.4488,424.5231 Q104.8238,423.945 104.23,423.6794 Q103.6363,423.3981 103.0113,423.3981 Q101.6675,423.3981 100.98,424.4763 Q100.2925,425.5388 100.2925,427.6325 Q100.2925,429.7263 100.98,430.8044 Q101.6675,431.8669 103.0113,431.8669 Q103.6363,431.8669 104.23,431.6013 Q104.8238,431.32 105.4488,430.7419 L105.4488,433.4606 Z " fill="#000000"/><text fill="#000000" font-family="sans-serif" font-size="14" lengthAdjust="spacing" textLength="23.2832" x="116.48" y="432.6667">Die</text><line style="stroke:#181818;stroke-width:0.5;" x1="88.48" x2="141.7632" y1="443.82" y2="443.82"/><line style="stroke:#181818;stroke-width:0.5;" x1="88.48" x2="141.7632" y1="451.82" y2="451.82"/></g><!--class Deck--><g class="entity" data-entity="Deck" data-source-line="26" data-uid="ent0008" id="entity_Deck"><rect fill="#F1F1F1" height="48" rx="2.5" ry="2.5" style="stroke:#181818;stroke-width:0.5;" width="67.1982" x="902.52" y="411.82"/><ellipse cx="917.52" cy="427.82" fill="#ADD1B2" rx="11" ry="11" style="stroke:#181818;stroke-width:1;"/><path d="M920.4888,433.4606 Q919.9106,433.7575 919.27,433.8981 Q918.6294,434.0544 917.9263,434.0544 Q915.4263,434.0544 914.0981,432.4138 Q912.7856,430.7575 912.7856,427.6325 Q912.7856,424.5075 914.0981,422.8513 Q915.4263,421.195 917.9263,421.195 Q918.6294,421.195 919.27,421.3513 Q919.9263,421.5075 920.4888,421.8044 L920.4888,424.5231 Q919.8638,423.945 919.27,423.6794 Q918.6763,423.3981 918.0513,423.3981 Q916.7075,423.3981 916.02,424.4763 Q915.3325,425.5388 915.3325,427.6325 Q915.3325,429.7263 916.02,430.8044 Q916.7075,431.8669 918.0513,431.8669 Q918.6763,431.8669 919.27,431.6013 Q919.8638,431.32 920.4888,430.7419 L920.4888,433.4606 Z " fill="#000000"/><text fill="#000000" font-family="sans-serif" font-size="14" lengthAdjust="spacing" textLength="35.1982" x="931.52" y="432.6667">Deck</text><line style="stroke:#181818;stroke-width:0.5;" x1="903.52" x2="968.7182" y1="443.82" y2="443.82"/><line style="stroke:#181818;stroke-width:0.5;" x1="903.52" x2="968.7182" y1="451.82" y2="451.82"/></g><!--class Tile--><g class="entity" data-entity="Tile" data-source-line="28" data-uid="ent0009" id="entity_Tile"><rect fill="#F1F1F1" height="96.8906" rx="2.5" ry="2.5" style="stroke:#181818;stroke-width:0.5;" width="181.2305" x="286.5" y="561.27"/><ellipse cx="360.3931" cy="577.27" fill="#A9DCDF" rx="11" ry="11" style="stroke:#181818;stroke-width:1;"/><path d="M360.5024,572.6138 L359.3462,577.6919 L361.6743,577.6919 L360.5024,572.6138 Z M359.0181,570.3794 L362.0024,570.3794 L365.3618,582.77 L362.9087,582.77 L362.1431,579.7075 L358.8618,579.7075 L358.1118,582.77 L355.6743,582.77 L359.0181,570.3794 Z " fill="#000000"/><text fill="#000000" font-family="sans-serif" font-size="14" font-style="italic" lengthAdjust="spacing" textLength="24.9443" x="380.8931" y="582.1167">Tile</text><line style="stroke:#181818;stroke-width:0.5;" x1="287.5" x2="466.7305" y1="593.27" y2="593.27"/><text fill="#000000" font-family="sans-serif" font-size="14" lengthAdjust="spacing" textLength="30.9873" x="292.5" y="610.2651">int x</text><text fill="#000000" font-family="sans-serif" font-size="14" lengthAdjust="spacing" textLength="30.9873" x="292.5" y="626.562">int y</text><text fill="#000000" font-family="sans-serif" font-size="14" lengthAdjust="spacing" textLength="169.2305" x="292.5" y="642.8589">Boolean hasBeenVisited</text><line style="stroke:#181818;stroke-width:0.5;" x1="287.5" x2="466.7305" y1="650.1606" y2="650.1606"/></g><!--class ActionCard--><g class="entity" data-entity="ActionCard" data-source-line="34" data-uid="ent0010" id="entity_ActionCard"><rect fill="#F1F1F1" height="64.2969" rx="2.5" ry="2.5" style="stroke:#181818;stroke-width:0.5;" width="138.6221" x="1228.81" y="577.57"/><ellipse cx="1257.0999" cy="593.57" fill="#A9DCDF" rx="11" ry="11" style="stroke:#181818;stroke-width:1;"/><path d="M1257.2093,588.9137 L1256.0531,593.9919 L1258.3812,593.9919 L1257.2093,588.9137 Z M1255.7249,586.6794 L1258.7093,586.6794 L1262.0687,599.07 L1259.6156,599.07 L1258.8499,596.0075 L1255.5687,596.0075 L1254.8187,599.07 L1252.3812,599.07 L1255.7249,586.6794 Z " fill="#000000"/><text fill="#000000" font-family="sans-serif" font-size="14" font-style="italic" lengthAdjust="spacing" textLength="77.0889" x="1274.0533" y="598.4167">ActionCard</text><line style="stroke:#181818;stroke-width:0.5;" x1="1229.81" x2="1366.4321" y1="609.57" y2="609.57"/><text fill="#000000" font-family="sans-serif" font-size="14" lengthAdjust="spacing" textLength="126.6221" x="1234.81" y="626.5651">string instructions</text><line style="stroke:#181818;stroke-width:0.5;" x1="1229.81" x2="1366.4321" y1="633.8669" y2="633.8669"/></g><!--class RollDieActionCard--><g class="entity" data-entity="RollDieActionCard" data-source-line="38" data-uid="ent0011" id="entity_RollDieActionCard"><rect fill="#F1F1F1" height="48" rx="2.5" ry="2.5" style="stroke:#181818;stroke-width:0.5;" width="158.4443" x="1004.9" y="411.82"/><ellipse cx="1019.9" cy="427.82" fill="#ADD1B2" rx="11" ry="11" style="stroke:#181818;stroke-width:1;"/><path d="M1022.8688,433.4606 Q1022.2906,433.7575 1021.65,433.8981 Q1021.0094,434.0544 1020.3063,434.0544 Q1017.8063,434.0544 1016.4781,432.4138 Q1015.1656,430.7575 1015.1656,427.6325 Q1015.1656,424.5075 1016.4781,422.8513 Q1017.8063,421.195 1020.3063,421.195 Q1021.0094,421.195 1021.65,421.3513 Q1022.3063,421.5075 1022.8688,421.8044 L1022.8688,424.5231 Q1022.2438,423.945 1021.65,423.6794 Q1021.0563,423.3981 1020.4313,423.3981 Q1019.0875,423.3981 1018.4,424.4763 Q1017.7125,425.5388 1017.7125,427.6325 Q1017.7125,429.7263 1018.4,430.8044 Q1019.0875,431.8669 1020.4313,431.8669 Q1021.0563,431.8669 1021.65,431.6013 Q1022.2438,431.32 1022.8688,430.7419 L1022.8688,433.4606 Z " fill="#000000"/><text fill="#000000" font-family="sans-serif" font-size="14" lengthAdjust="spacing" textLength="126.4443" x="1033.9" y="432.6667">RollDieActionCard</text><line style="stroke:#181818;stroke-width:0.5;" x1="1005.9" x2="1162.3443" y1="443.82" y2="443.82"/><line style="stroke:#181818;stroke-width:0.5;" x1="1005.9" x2="1162.3443" y1="451.82" y2="451.82"/></g><!--class ConnectTilesActionCard--><g class="entity" data-entity="ConnectTilesActionCard" data-source-line="39" data-uid="ent0012" id="entity_ConnectTilesActionCard"><rect fill="#F1F1F1" height="48" rx="2.5" ry="2.5" style="stroke:#181818;stroke-width:0.5;" width="199.2139" x="1198.51" y="411.82"/><ellipse cx="1213.51" cy="427.82" fill="#ADD1B2" rx="11" ry="11" style="stroke:#181818;stroke-width:1;"/><path d="M1216.4788,433.4606 Q1215.9006,433.7575 1215.26,433.8981 Q1214.6194,434.0544 1213.9163,434.0544 Q1211.4163,434.0544 1210.0881,432.4138 Q1208.7756,430.7575 1208.7756,427.6325 Q1208.7756,424.5075 1210.0881,422.8513 Q1211.4163,421.195 1213.9163,421.195 Q1214.6194,421.195 1215.26,421.3513 Q1215.9163,421.5075 1216.4788,421.8044 L1216.4788,424.5231 Q1215.8538,423.945 1215.26,423.6794 Q1214.6663,423.3981 1214.0413,423.3981 Q1212.6975,423.3981 1212.01,424.4763 Q1211.3225,425.5388 1211.3225,427.6325 Q1211.3225,429.7263 1212.01,430.8044 Q1212.6975,431.8669 1214.0413,431.8669 Q1214.6663,431.8669 1215.26,431.6013 Q1215.8538,431.32 1216.4788,430.7419 L1216.4788,433.4606 Z " fill="#000000"/><text fill="#000000" font-family="sans-serif" font-size="14" lengthAdjust="spacing" textLength="167.2139" x="1227.51" y="432.6667">ConnectTilesActionCard</text><line style="stroke:#181818;stroke-width:0.5;" x1="1199.51" x2="1396.7239" y1="443.82" y2="443.82"/><line style="stroke:#181818;stroke-width:0.5;" x1="1199.51" x2="1396.7239" y1="451.82" y2="451.82"/></g><!--class RemoveConnectionActionCard--><g class="entity" data-entity="RemoveConnectionActionCard" data-source-line="40" data-uid="ent0013" id="entity_RemoveConnectionActionCard"><rect fill="#F1F1F1" height="48" rx="2.5" ry="2.5" style="stroke:#181818;stroke-width:0.5;" width="245.7461" x="1432.24" y="411.82"/><ellipse cx="1447.24" cy="427.82" fill="#ADD1B2" rx="11" ry="11" style="stroke:#181818;stroke-width:1;"/><path d="M1450.2088,433.4606 Q1449.6306,433.7575 1448.99,433.8981 Q1448.3494,434.0544 1447.6463,434.0544 Q1445.1463,434.0544 1443.8181,432.4138 Q1442.5056,430.7575 1442.5056,427.6325 Q1442.5056,424.5075 1443.8181,422.8513 Q1445.1463,421.195 1447.6463,421.195 Q1448.3494,421.195 1448.99,421.3513 Q1449.6463,421.5075 1450.2088,421.8044 L1450.2088,424.5231 Q1449.5838,423.945 1448.99,423.6794 Q1448.3963,423.3981 1447.7713,423.3981 Q1446.4275,423.3981 1445.74,424.4763 Q1445.0525,425.5388 1445.0525,427.6325 Q1445.0525,429.7263 1445.74,430.8044 Q1446.4275,431.8669 1447.7713,431.8669 Q1448.3963,431.8669 1448.99,431.6013 Q1449.5838,431.32 1450.2088,430.7419 L1450.2088,433.4606 Z " fill="#000000"/><text fill="#000000" font-family="sans-serif" font-size="14" lengthAdjust="spacing" textLength="213.7461" x="1461.24" y="432.6667">RemoveConnectionActionCard</text><line style="stroke:#181818;stroke-width:0.5;" x1="1433.24" x2="1676.9861" y1="443.82" y2="443.82"/><line style="stroke:#181818;stroke-width:0.5;" x1="1433.24" x2="1676.9861" y1="451.82" y2="451.82"/></g><!--class TeleportActionCard--><g class="entity" data-entity="TeleportActionCard" data-source-line="41" data-uid="ent0014" id="entity_TeleportActionCard"><rect fill="#F1F1F1" height="48" rx="2.5" ry="2.5" style="stroke:#181818;stroke-width:0.5;" width="167.4541" x="1713.39" y="411.82"/><ellipse cx="1728.39" cy="427.82" fill="#ADD1B2" rx="11" ry="11" style="stroke:#181818;stroke-width:1;"/><path d="M1731.3588,433.4606 Q1730.7806,433.7575 1730.14,433.8981 Q1729.4994,434.0544 1728.7963,434.0544 Q1726.2963,434.0544 1724.9681,432.4138 Q1723.6556,430.7575 1723.6556,427.6325 Q1723.6556,424.5075 1724.9681,422.8513 Q1726.2963,421.195 1728.7963,421.195 Q1729.4994,421.195 1730.14,421.3513 Q1730.7963,421.5075 1731.3588,421.8044 L1731.3588,424.5231 Q1730.7338,423.945 1730.14,423.6794 Q1729.5463,423.3981 1728.9213,423.3981 Q1727.5775,423.3981 1726.89,424.4763 Q1726.2025,425.5388 1726.2025,427.6325 Q1726.2025,429.7263 1726.89,430.8044 Q1727.5775,431.8669 1728.9213,431.8669 Q1729.5463,431.8669 1730.14,431.6013 Q1730.7338,431.32 1731.3588,430.7419 L1731.3588,433.4606 Z " fill="#000000"/><text fill="#000000" font-family="sans-serif" font-size="14" lengthAdjust="spacing" textLength="135.4541" x="1742.39" y="432.6667">TeleportActionCard</text><line style="stroke:#181818;stroke-width:0.5;" x1="1714.39" x2="1879.8441" y1="443.82" y2="443.82"/><line style="stroke:#181818;stroke-width:0.5;" x1="1714.39" x2="1879.8441" y1="451.82" y2="451.82"/></g><!--class LoseTurnActionCard--><g class="entity" data-entity="LoseTurnActionCard" data-source-line="42" data-uid="ent0015" id="entity_LoseTurnActionCard"><rect fill="#F1F1F1" height="48" rx="2.5" ry="2.5" style="stroke:#181818;stroke-width:0.5;" width="173.415" x="1915.41" y="411.82"/><ellipse cx="1930.41" cy="427.82" fill="#ADD1B2" rx="11" ry="11" style="stroke:#181818;stroke-width:1;"/><path d="M1933.3788,433.4606 Q1932.8006,433.7575 1932.16,433.8981 Q1931.5194,434.0544 1930.8163,434.0544 Q1928.3163,434.0544 1926.9881,432.4138 Q1925.6756,430.7575 1925.6756,427.6325 Q1925.6756,424.5075 1926.9881,422.8513 Q1928.3163,421.195 1930.8163,421.195 Q1931.5194,421.195 1932.16,421.3513 Q1932.8163,421.5075 1933.3788,421.8044 L1933.3788,424.5231 Q1932.7538,423.945 1932.16,423.6794 Q1931.5663,423.3981 1930.9413,423.3981 Q1929.5975,423.3981 1928.91,424.4763 Q1928.2225,425.5388 1928.2225,427.6325 Q1928.2225,429.7263 1928.91,430.8044 Q1929.5975,431.8669 1930.9413,431.8669 Q1931.5663,431.8669 1932.16,431.6013 Q1932.7538,431.32 1933.3788,430.7419 L1933.3788,433.4606 Z " fill="#000000"/><text fill="#000000" font-family="sans-serif" font-size="14" lengthAdjust="spacing" textLength="141.415" x="1944.41" y="432.6667">LoseTurnActionCard</text><line style="stroke:#181818;stroke-width:0.5;" x1="1916.41" x2="2087.825" y1="443.82" y2="443.82"/><line style="stroke:#181818;stroke-width:0.5;" x1="1916.41" x2="2087.825" y1="451.82" y2="451.82"/></g><!--class WinTile--><g class="entity" data-entity="WinTile" data-source-line="44" data-uid="ent0016" id="entity_WinTile"><rect fill="#F1F1F1" height="48" rx="2.5" ry="2.5" style="stroke:#181818;stroke-width:0.5;" width="83.5498" x="277.34" y="411.82"/><ellipse cx="292.34" cy="427.82" fill="#ADD1B2" rx="11" ry="11" style="stroke:#181818;stroke-width:1;"/><path d="M295.3088,433.4606 Q294.7306,433.7575 294.09,433.8981 Q293.4494,434.0544 292.7463,434.0544 Q290.2463,434.0544 288.9181,432.4138 Q287.6056,430.7575 287.6056,427.6325 Q287.6056,424.5075 288.9181,422.8513 Q290.2463,421.195 292.7463,421.195 Q293.4494,421.195 294.09,421.3513 Q294.7463,421.5075 295.3088,421.8044 L295.3088,424.5231 Q294.6838,423.945 294.09,423.6794 Q293.4963,423.3981 292.8713,423.3981 Q291.5275,423.3981 290.84,424.4763 Q290.1525,425.5388 290.1525,427.6325 Q290.1525,429.7263 290.84,430.8044 Q291.5275,431.8669 292.8713,431.8669 Q293.4963,431.8669 294.09,431.6013 Q294.6838,431.32 295.3088,430.7419 L295.3088,433.4606 Z " fill="#000000"/><text fill="#000000" font-family="sans-serif" font-size="14" lengthAdjust="spacing" textLength="51.5498" x="306.34" y="432.6667">WinTile</text><line style="stroke:#181818;stroke-width:0.5;" x1="278.34" x2="359.8898" y1="443.82" y2="443.82"/><line style="stroke:#181818;stroke-width:0.5;" x1="278.34" x2="359.8898" y1="451.82" y2="451.82"/></g><!--class ActionTile--><g class="entity" data-entity="ActionTile" data-source-line="45" data-uid="ent0017" id="entity_ActionTile"><rect fill="#F1F1F1" height="80.5938" rx="2.5" ry="2.5" style="stroke:#181818;stroke-width:0.5;" width="146.9277" x="577.65" y="395.53"/><ellipse cx="613.3012" cy="411.53" fill="#ADD1B2" rx="11" ry="11" style="stroke:#181818;stroke-width:1;"/><path d="M616.27,417.1706 Q615.6918,417.4675 615.0512,417.6081 Q614.4106,417.7644 613.7075,417.7644 Q611.2075,417.7644 609.8793,416.1238 Q608.5668,414.4675 608.5668,411.3425 Q608.5668,408.2175 609.8793,406.5613 Q611.2075,404.905 613.7075,404.905 Q614.4106,404.905 615.0512,405.0613 Q615.7075,405.2175 616.27,405.5144 L616.27,408.2331 Q615.645,407.655 615.0512,407.3894 Q614.4575,407.1081 613.8325,407.1081 Q612.4887,407.1081 611.8012,408.1863 Q611.1137,409.2488 611.1137,411.3425 Q611.1137,413.4363 611.8012,414.5144 Q612.4887,415.5769 613.8325,415.5769 Q614.4575,415.5769 615.0512,415.3113 Q615.645,415.03 616.27,414.4519 L616.27,417.1706 Z " fill="#000000"/><text fill="#000000" font-family="sans-serif" font-size="14" lengthAdjust="spacing" textLength="69.0361" x="631.8904" y="416.3767">ActionTile</text><line style="stroke:#181818;stroke-width:0.5;" x1="578.65" x2="723.5777" y1="427.53" y2="427.53"/><text fill="#000000" font-family="sans-serif" font-size="14" lengthAdjust="spacing" textLength="131.2227" x="583.65" y="444.5251">int inactivityPeriod</text><text fill="#000000" font-family="sans-serif" font-size="14" lengthAdjust="spacing" textLength="134.9277" x="583.65" y="460.822">int tunrsUntilActive</text><line style="stroke:#181818;stroke-width:0.5;" x1="578.65" x2="723.5777" y1="468.1238" y2="468.1238"/></g><!--class NormalTile--><g class="entity" data-entity="NormalTile" data-source-line="49" data-uid="ent0018" id="entity_NormalTile"><rect fill="#F1F1F1" height="48" rx="2.5" ry="2.5" style="stroke:#181818;stroke-width:0.5;" width="107.8447" x="759.2" y="411.82"/><ellipse cx="774.2" cy="427.82" fill="#ADD1B2" rx="11" ry="11" style="stroke:#181818;stroke-width:1;"/><path d="M777.1688,433.4606 Q776.5906,433.7575 775.95,433.8981 Q775.3094,434.0544 774.6063,434.0544 Q772.1063,434.0544 770.7781,432.4138 Q769.4656,430.7575 769.4656,427.6325 Q769.4656,424.5075 770.7781,422.8513 Q772.1063,421.195 774.6063,421.195 Q775.3094,421.195 775.95,421.3513 Q776.6063,421.5075 777.1688,421.8044 L777.1688,424.5231 Q776.5438,423.945 775.95,423.6794 Q775.3563,423.3981 774.7313,423.3981 Q773.3875,423.3981 772.7,424.4763 Q772.0125,425.5388 772.0125,427.6325 Q772.0125,429.7263 772.7,430.8044 Q773.3875,431.8669 774.7313,431.8669 Q775.3563,431.8669 775.95,431.6013 Q776.5438,431.32 777.1688,430.7419 L777.1688,433.4606 Z " fill="#000000"/><text fill="#000000" font-family="sans-serif" font-size="14" lengthAdjust="spacing" textLength="75.8447" x="788.2" y="432.6667">NormalTile</text><line style="stroke:#181818;stroke-width:0.5;" x1="760.2" x2="866.0447" y1="443.82" y2="443.82"/><line style="stroke:#181818;stroke-width:0.5;" x1="760.2" x2="866.0447" y1="451.82" y2="451.82"/></g><!--class Player--><g class="entity" data-entity="Player" data-source-line="51" data-uid="ent0019" id="entity_Player"><rect fill="#F1F1F1" height="96.8906" rx="2.5" ry="2.5" style="stroke:#181818;stroke-width:0.5;" width="146.9277" x="395.65" y="387.38"/><ellipse cx="443.0812" cy="403.38" fill="#ADD1B2" rx="11" ry="11" style="stroke:#181818;stroke-width:1;"/><path d="M446.0499,409.0206 Q445.4718,409.3175 444.8312,409.4581 Q444.1905,409.6144 443.4874,409.6144 Q440.9874,409.6144 439.6593,407.9738 Q438.3468,406.3175 438.3468,403.1925 Q438.3468,400.0675 439.6593,398.4113 Q440.9874,396.755 443.4874,396.755 Q444.1905,396.755 444.8312,396.9113 Q445.4874,397.0675 446.0499,397.3644 L446.0499,400.0831 Q445.4249,399.505 444.8312,399.2394 Q444.2374,398.9581 443.6124,398.9581 Q442.2687,398.9581 441.5812,400.0363 Q440.8937,401.0988 440.8937,403.1925 Q440.8937,405.2863 441.5812,406.3644 Q442.2687,407.4269 443.6124,407.4269 Q444.2374,407.4269 444.8312,407.1613 Q445.4249,406.88 446.0499,406.3019 L446.0499,409.0206 Z " fill="#000000"/><text fill="#000000" font-family="sans-serif" font-size="14" lengthAdjust="spacing" textLength="43.5654" x="463.5812" y="408.2267">Player</text><line style="stroke:#181818;stroke-width:0.5;" x1="396.65" x2="541.5777" y1="419.38" y2="419.38"/><text fill="#000000" font-family="sans-serif" font-size="14" lengthAdjust="spacing" textLength="77.3418" x="401.65" y="436.3751">int number</text><text fill="#000000" font-family="sans-serif" font-size="14" lengthAdjust="spacing" textLength="134.9277" x="401.65" y="452.672">int turnsUntilActive</text><text fill="#000000" font-family="sans-serif" font-size="14" lengthAdjust="spacing" textLength="75.4756" x="401.65" y="468.9689">Color color</text><line style="stroke:#181818;stroke-width:0.5;" x1="396.65" x2="541.5777" y1="476.2706" y2="476.2706"/></g><!--link WinTile to Tile--><g class="link" data-entity-1="WinTile" data-entity-2="Tile" data-source-line="57" data-uid="lnk20" id="link_WinTile_Tile"><path codeLine="57" d="M323.15,460.1 C326.83,479.45 332.94,507.55 341.12,531.27 C344.5,541.08 341.3341,534.9051 345.6941,544.5951" fill="none" id="WinTile-to-Tile" style="stroke:#181818;stroke-width:1;"/><polygon fill="none" points="353.08,561.01,351.1658,542.1331,340.2225,547.057,353.08,561.01" style="stroke:#181818;stroke-width:1;"/></g><!--link ActionTile to Tile--><g class="link" data-entity-1="ActionTile" data-entity-2="Tile" data-source-line="58" data-uid="lnk21" id="link_ActionTile_Tile"><path codeLine="58" d="M609.69,476.6 C589.64,494.62 564.65,515.39 540.12,531.27 C517.76,545.74 508.5346,551.3977 484.4646,562.8477" fill="none" id="ActionTile-to-Tile" style="stroke:#181818;stroke-width:1;"/><polygon fill="none" points="468.21,570.58,487.042,568.266,481.8872,557.4295,468.21,570.58" style="stroke:#181818;stroke-width:1;"/></g><!--link NormalTile to Tile--><g class="link" data-entity-1="NormalTile" data-entity-2="Tile" data-source-line="59" data-uid="lnk22" id="link_NormalTile_Tile"><path codeLine="59" d="M782.02,460.16 C769.98,468.5 755.81,477.51 742.12,484.27 C652.53,528.53 560.6544,558.5596 485.1744,580.0096" fill="none" id="NormalTile-to-Tile" style="stroke:#181818;stroke-width:1;"/><polygon fill="none" points="467.86,584.93,486.8146,585.781,483.5343,574.2381,467.86,584.93" style="stroke:#181818;stroke-width:1;"/></g><!--link RollDieActionCard to ActionCard--><g class="link" data-entity-1="RollDieActionCard" data-entity-2="ActionCard" data-source-line="61" data-uid="lnk23" id="link_RollDieActionCard_ActionCard"><path codeLine="61" d="M1112.98,460.01 C1150.63,490.25 1202.6168,532.0075 1244.8068,565.8975" fill="none" id="RollDieActionCard-to-ActionCard" style="stroke:#181818;stroke-width:1;"/><polygon fill="none" points="1258.84,577.17,1248.5643,561.2198,1241.0493,570.5753,1258.84,577.17" style="stroke:#181818;stroke-width:1;"/></g><!--link ConnectTilesActionCard to ActionCard--><g class="link" data-entity-1="ConnectTilesActionCard" data-entity-2="ActionCard" data-source-line="62" data-uid="lnk24" id="link_ConnectTilesActionCard_ActionCard"><path codeLine="62" d="M1298.12,460.01 C1298.12,490.25 1298.12,525.28 1298.12,559.17" fill="none" id="ConnectTilesActionCard-to-ActionCard" style="stroke:#181818;stroke-width:1;"/><polygon fill="none" points="1298.12,577.17,1304.12,559.17,1292.12,559.17,1298.12,577.17" style="stroke:#181818;stroke-width:1;"/></g><!--link RemoveConnectionActionCard to ActionCard--><g class="link" data-entity-1="RemoveConnectionActionCard" data-entity-2="ActionCard" data-source-line="63" data-uid="lnk25" id="link_RemoveConnectionActionCard_ActionCard"><path codeLine="63" d="M1520.19,460.18 C1474.9,490.48 1410.7014,533.4122 1360.1414,567.2322" fill="none" id="RemoveConnectionActionCard-to-ActionCard" style="stroke:#181818;stroke-width:1;"/><polygon fill="none" points="1345.18,577.24,1363.4773,572.2193,1356.8055,562.2451,1345.18,577.24" style="stroke:#181818;stroke-width:1;"/></g><!--link TeleportActionCard to ActionCard--><g class="link" data-entity-1="TeleportActionCard" data-entity-2="ActionCard" data-source-line="64" data-uid="lnk26" id="link_TeleportActionCard_ActionCard"><path codeLine="64" d="M1750.19,460.23 C1733.07,468.34 1713.42,477.18 1695.12,484.27 C1582.64,527.84 1465.2979,562.683 1385.2579,585.013" fill="none" id="TeleportActionCard-to-ActionCard" style="stroke:#181818;stroke-width:1;"/><polygon fill="none" points="1367.92,589.85,1386.8703,590.7923,1383.6456,579.2337,1367.92,589.85" style="stroke:#181818;stroke-width:1;"/></g><!--link LoseTurnActionCard to ActionCard--><g class="link" data-entity-1="LoseTurnActionCard" data-entity-2="ActionCard" data-source-line="65" data-uid="lnk27" id="link_LoseTurnActionCard_ActionCard"><path codeLine="65" d="M1956.67,460.23 C1938.78,468.73 1917.83,477.82 1898.12,484.27 C1711.07,545.48 1498.8381,580.6571 1385.6281,596.8771" fill="none" id="LoseTurnActionCard-to-ActionCard" style="stroke:#181818;stroke-width:1;"/><polygon fill="none" points="1367.81,599.43,1386.479,602.8165,1384.7771,590.9378,1367.81,599.43" style="stroke:#181818;stroke-width:1;"/></g><!--reverse link TileO to Game--><g class="link" data-entity-1="TileO" data-entity-2="Game" data-source-line="68" data-uid="lnk28" id="link_TileO_Game"><path codeLine="68" d="M271.12,100.05 C271.12,127.15 271.12,160.66 271.12,196.99" fill="none" id="TileO-backto-Game" style="stroke:#181818;stroke-width:1;"/><polygon fill="#181818" points="271.12,88.05,267.12,94.05,271.12,100.05,275.12,94.05,271.12,88.05" style="stroke:#181818;stroke-width:1;"/><text fill="#000000" font-family="sans-serif" font-size="13" lengthAdjust="spacing" textLength="43.6528" x="272.12" y="163.2569">games</text><text fill="#000000" font-family="sans-serif" font-size="13" lengthAdjust="spacing" textLength="8.271" x="262.2259" y="107.5207">1</text><text fill="#000000" font-family="sans-serif" font-size="13" lengthAdjust="spacing" textLength="6.5" x="264.7847" y="186.2292">*</text></g><!--reverse link Game to Tile--><g class="link" data-entity-1="Game" data-entity-2="Tile" data-source-line="69" data-uid="lnk29" id="link_Game_Tile"><path codeLine="69" d="M239.1996,321.5919 C219.6296,369.5919 205.44,428.64 231.12,484.27 C245.29,514.96 271.17,540.88 297.25,560.98" fill="none" id="Game-backto-Tile" style="stroke:#181818;stroke-width:1;"/><polygon fill="#181818" points="243.73,310.48,237.7608,314.5258,239.1996,321.5919,245.1688,317.5461,243.73,310.48" style="stroke:#181818;stroke-width:1;"/><text fill="#000000" font-family="sans-serif" font-size="13" lengthAdjust="spacing" textLength="27.0918" x="232.12" y="440.3869">tiles</text><text fill="#000000" font-family="sans-serif" font-size="13" lengthAdjust="spacing" textLength="8.271" x="231.9207" y="330.3789">1</text><text fill="#000000" font-family="sans-serif" font-size="13" lengthAdjust="spacing" textLength="6.5" x="279.6322" y="550.1481">*</text></g><!--reverse link Game to Connection--><g class="link" data-entity-1="Game" data-entity-2="Connection" data-source-line="70" data-uid="lnk30" id="link_Game_Connection"><path codeLine="70" d="M135.8369,317.463 C105.7969,337.173 87.46,355.88 70.12,387.38 C6,503.85 40.77,673.67 56.61,735" fill="none" id="Game-backto-Connection" style="stroke:#181818;stroke-width:1;"/><polygon fill="#181818" points="145.87,310.88,138.6591,310.8271,135.8369,317.463,143.0478,317.5159,145.87,310.88" style="stroke:#181818;stroke-width:1;"/><text fill="#000000" font-family="sans-serif" font-size="13" lengthAdjust="spacing" textLength="78.3999" x="36.12" y="527.3369">connections</text><text fill="#000000" font-family="sans-serif" font-size="13" lengthAdjust="spacing" textLength="8.271" x="122.941" y="330.4235">1</text><text fill="#000000" font-family="sans-serif" font-size="13" lengthAdjust="spacing" textLength="6.5" x="48.2378" y="723.971">*</text></g><!--reverse link Game to Die--><g class="link" data-entity-1="Game" data-entity-2="Die" data-source-line="71" data-uid="lnk31" id="link_Game_Die"><path codeLine="71" d="M185.98,318.8371 C175.69,328.0971 174.66,330.05 166.12,340.38 C148.07,362.21 133.47,391.41 124.59,411.53" fill="none" id="Game-backto-Die" style="stroke:#181818;stroke-width:1;"/><polygon fill="#181818" points="194.9,310.81,187.7643,311.8502,185.98,318.8371,193.1157,317.7969,194.9,310.81" style="stroke:#181818;stroke-width:1;"/><text fill="#000000" font-family="sans-serif" font-size="13" lengthAdjust="spacing" textLength="19.8618" x="167.12" y="353.4469">die</text><text fill="#000000" font-family="sans-serif" font-size="13" lengthAdjust="spacing" textLength="8.271" x="177.6401" y="330.3454">1</text><text fill="#000000" font-family="sans-serif" font-size="13" lengthAdjust="spacing" textLength="8.271" x="117.9559" y="400.8643">1</text></g><!--reverse link Game to Deck--><g class="link" data-entity-1="Game" data-entity-2="Deck" data-source-line="72" data-uid="lnk32" id="link_Game_Deck"><path codeLine="72" d="M423.3559,265.4588 C552.3659,278.8488 733.89,309.87 884.12,387.38 C895.85,393.43 906.93,402.82 915.83,411.65" fill="none" id="Game-backto-Deck" style="stroke:#181818;stroke-width:1;"/><polygon fill="#181818" points="411.42,264.22,416.975,268.818,423.3559,265.4588,417.8009,260.8608,411.42,264.22" style="stroke:#181818;stroke-width:1;"/><text fill="#000000" font-family="sans-serif" font-size="13" lengthAdjust="spacing" textLength="30.9258" x="808.12" y="353.4469">deck</text><text fill="#000000" font-family="sans-serif" font-size="13" lengthAdjust="spacing" textLength="8.271" x="419.3187" y="261.4511">1</text><text fill="#000000" font-family="sans-serif" font-size="13" lengthAdjust="spacing" textLength="8.271" x="901.6406" y="400.6185">1</text></g><!--link Game to Player--><g class="link" data-entity-1="Game" data-entity-2="Player" data-source-line="73" data-uid="lnk33" id="link_Game_Player"><path codeLine="73" d="M311.98,310.62 C324.91,326.57 339.83,343.4 355.12,357.38 C367.39,368.6 376.5012,375.9756 390.4012,385.8056" fill="none" id="Game-to-Player" style="stroke:#181818;stroke-width:1;"/><polygon fill="#181818" points="395.3,389.27,390.2614,380.8076,391.2177,386.383,385.6422,387.3393,395.3,389.27" style="stroke:#181818;stroke-width:1;"/><text fill="#000000" font-family="sans-serif" font-size="13" lengthAdjust="spacing" textLength="87.8643" x="356.12" y="353.4469">currentPlayer</text><text fill="#000000" font-family="sans-serif" font-size="13" lengthAdjust="spacing" textLength="8.271" x="308.4886" y="330.536">1</text><text fill="#000000" font-family="sans-serif" font-size="13" lengthAdjust="spacing" textLength="24.8066" x="362.8924" y="381.0224">0..1</text></g><!--reverse link Game to Player--><g class="link" data-entity-1="Game" data-entity-2="Player" data-source-line="74" data-uid="lnk34" id="link_Game_Player"><path codeLine="74" d="M421.1105,313.5208 C435.0105,323.0408 437.84,327.4 448.12,340.38 C458.54,353.55 464.03,370.84 466.84,387.03" fill="none" id="Game-backto-Player" style="stroke:#181818;stroke-width:1;"/><polygon fill="#181818" points="411.21,306.74,413.9,313.4306,421.1105,313.5208,418.4205,306.8302,411.21,306.74" style="stroke:#181818;stroke-width:1;"/><text fill="#000000" font-family="sans-serif" font-size="13" lengthAdjust="spacing" textLength="47.6392" x="459.12" y="353.4469">players</text><text fill="#000000" font-family="sans-serif" font-size="13" lengthAdjust="spacing" textLength="8.271" x="419.0973" y="306.2964">1</text><text fill="#000000" font-family="sans-serif" font-size="13" lengthAdjust="spacing" textLength="24.8066" x="440.8895" y="376.1897">2..4</text></g><!--reverse link Deck to ActionCard--><g class="link" data-entity-1="Deck" data-entity-2="ActionCard" data-source-line="75" data-uid="lnk35" id="link_Deck_ActionCard"><path codeLine="75" d="M924.2974,471.6337 C918.2774,492.5937 917.11,511.51 933.12,531.27 C969.56,576.26 1133.06,596.18 1228.42,604.1" fill="none" id="Deck-backto-ActionCard" style="stroke:#181818;stroke-width:1;"/><polygon fill="#181818" points="927.61,460.1,922.1091,464.7626,924.2974,471.6337,929.7982,466.9711,927.61,460.1" style="stroke:#181818;stroke-width:1;"/><text fill="#000000" font-family="sans-serif" font-size="13" lengthAdjust="spacing" textLength="35.4834" x="934.12" y="527.3369">cards</text><text fill="#000000" font-family="sans-serif" font-size="13" lengthAdjust="spacing" textLength="8.271" x="916.5939" y="479.9295">1</text><text fill="#000000" font-family="sans-serif" font-size="13" lengthAdjust="spacing" textLength="33.0776" x="1187.7462" y="600.0044">0..32</text></g><!--link Deck to ActionCard--><g class="link" data-entity-1="Deck" data-entity-2="ActionCard" data-source-line="82" data-uid="lnk40" id="link_Deck_ActionCard"><path codeLine="82" d="M957.8,460.13 C966.38,468.47 976.67,477.48 987.12,484.27 C1063.54,533.96 1157.2319,567.7067 1222.8519,587.7567" fill="none" id="Deck-to-ActionCard" style="stroke:#181818;stroke-width:1;"/><polygon fill="#181818" points="1228.59,589.51,1221.1517,583.0547,1223.8082,588.0489,1218.814,590.7055,1228.59,589.51" style="stroke:#181818;stroke-width:1;"/><text fill="#000000" font-family="sans-serif" font-size="13" lengthAdjust="spacing" textLength="78.0508" x="1069.12" y="527.3369">currentCard</text><text fill="#000000" font-family="sans-serif" font-size="13" lengthAdjust="spacing" textLength="8.271" x="954.1427" y="479.9668">1</text><text fill="#000000" font-family="sans-serif" font-size="13" lengthAdjust="spacing" textLength="24.8066" x="1196.2237" y="583.7263">0..1</text></g><!--link Game to WinTile--><g class="link" data-entity-1="Game" data-entity-2="WinTile" data-source-line="78" data-uid="lnk36" id="link_Game_WinTile"><path codeLine="78" d="M263.09,310.74 C262.6,326.11 263.69,342.61 268.12,357.38 C274.13,377.43 283.4716,392.3632 294.8716,406.8632" fill="none" id="Game-to-WinTile" style="stroke:#181818;stroke-width:1;"/><polygon fill="#181818" points="298.58,411.58,296.162,402.0326,295.4897,407.6493,289.8729,406.9771,298.58,411.58" style="stroke:#181818;stroke-width:1;"/><text fill="#000000" font-family="sans-serif" font-size="13" lengthAdjust="spacing" textLength="45.646" x="269.12" y="353.4469">winTile</text><text fill="#000000" font-family="sans-serif" font-size="13" lengthAdjust="spacing" textLength="8.271" x="253.7145" y="330.2673">1</text><text fill="#000000" font-family="sans-serif" font-size="13" lengthAdjust="spacing" textLength="24.8066" x="266.7479" y="400.9265">0..1</text></g><!--link Tile to Connection--><g class="link" data-entity-1="Tile" data-entity-2="Connection" data-source-line="79" data-uid="lnk37" id="link_Tile_Connection"><path codeLine="79" d="M286.3,653.36 C229.78,679.9 159.27,713.01 112.81,734.83" fill="none" id="Tile-Connection" style="stroke:#181818;stroke-width:1;"/><text fill="#000000" font-family="sans-serif" font-size="13" lengthAdjust="spacing" textLength="109.8716" x="212.12" y="701.2269">connections/tiles</text><text fill="#000000" font-family="sans-serif" font-size="13" lengthAdjust="spacing" textLength="8.271" x="270.1635" y="653.5388">2</text><text fill="#000000" font-family="sans-serif" font-size="13" lengthAdjust="spacing" textLength="24.8066" x="98.0959" y="724.1545">0..4</text></g><!--link Player to Tile--><g class="link" data-entity-1="Player" data-entity-2="Tile" data-source-line="80" data-uid="lnk38" id="link_Player_Tile"><path codeLine="80" d="M395.58,484.6 C386.92,493.4 379.32,503.31 374.12,514.27 C367.36,528.5 365.6804,539.344 366.7404,554.834" fill="none" id="Player-to-Tile" style="stroke:#181818;stroke-width:1;"/><polygon fill="#181818" points="367.15,560.82,370.5262,551.5679,366.8086,555.8317,362.5449,552.1141,367.15,560.82" style="stroke:#181818;stroke-width:1;"/><text fill="#000000" font-family="sans-serif" font-size="13" lengthAdjust="spacing" textLength="73.5439" x="375.12" y="527.3369">startingTile</text><text fill="#000000" font-family="sans-serif" font-size="13" lengthAdjust="spacing" textLength="8.271" x="379.5983" y="485.9302">1</text><text fill="#000000" font-family="sans-serif" font-size="13" lengthAdjust="spacing" textLength="24.8066" x="340.2526" y="550.3177">0..1</text></g><!--link Player to Tile--><g class="link" data-entity-1="Player" data-entity-2="Tile" data-source-line="81" data-uid="lnk39" id="link_Player_Tile"><path codeLine="81" d="M466.68,484.72 C464.44,500.21 460.37,517.05 453.12,531.27 C447.72,541.84 444.3268,547.3809 436.3268,556.5409" fill="none" id="Player-to-Tile-1" style="stroke:#181818;stroke-width:1;"/><polygon fill="#181818" points="432.38,561.06,441.313,556.9125,435.669,557.2941,435.2875,551.6501,432.38,561.06" style="stroke:#181818;stroke-width:1;"/><text fill="#000000" font-family="sans-serif" font-size="13" lengthAdjust="spacing" textLength="70.5732" x="461.12" y="527.3369">currentTile</text><text fill="#000000" font-family="sans-serif" font-size="13" lengthAdjust="spacing" textLength="24.8066" x="440.7946" y="504.3739">0..4</text><text fill="#000000" font-family="sans-serif" font-size="13" lengthAdjust="spacing" textLength="24.8066" x="414.5208" y="550.2394">0..1</text></g><!--SRC=[VLHTRzem57tthx3oM2bifNsAj4e58ZI90gAqrHxTSDTPSsnaEso8yTztxJZ4XD0y9Bu-vnxVZro3h4hwf3P03vHCykVlqpcPFZxbb1m9E6oiXD8ENEKJCfgzv6IwolCv-P7FPeitP15I26OCNNC12teuDlQKbIXAA3vSMbfKMeEqOoKb59OhkUHGWF6uFx_4bxSEnZBBYoCjb3JMEpzlcOQkA_r6xuRNFEPL-GvwyVFHEuoPtWJ-ARvMBWfwmY6seFZjJVPkh6O5Pd5AjStixscrzwkHKWAOfB-O6G78LswuXGsvb6bZ2tL2bCiFbC95vK7JnhjIGc1uiTFnF1KNbkd3Lr2gNLI_FiuQ16oLjdtOJ1bOLxhZ5y0tBjt1BRjcrNiaL8PBJ9llkDqlGNErQVPj9RLvaPOBvxK3qeZCbIwPQ8J3vbAmFUZefvA-ooVJOendQWweV-32lLqnct3JzD-3RoI9ucqte_FRJNBP0m-sDhdIYYxjauvqgJsDwL9w-jEb45BFPtARq9iqfSbDKazeHZ_mOuWtpc2VV4QjIwK7ZkOdSuCNZ0igVjrKPNJ3eGzpCuOWVY8qJHzeydKmm6LeUjRS8BNTLHeE1lSHT-iNXdZrbeMATyCa7ZoKTNS3rgVtyEPloUYVUkNBYBIXetdM_VLIVAbh5wBgI0TTlBgqnQdtuWspbhqaXn9uRfjQn3lFB5ovQFq7]--></g></svg>