<svg xmlns="http://www.w3.org/2000/svg" xmlns:xlink="http://www.w3.org/1999/xlink" contentStyleType="text/css" data-diagram-type="CLASS" height="1150px" preserveAspectRatio="none" style="width:1146px;height:1150px;background:#FFFFFF;" version="1.1" viewBox="0 0 1146 1150" width="1146px" zoomAndPan="magnify"><defs/><g><!--class DestroyBlock--><g class="entity" data-entity="DestroyBlock" data-source-line="2" data-uid="ent0002" id="entity_DestroyBlock"><rect fill="#F1F1F1" height="48" rx="2.5" ry="2.5" style="stroke:#181818;stroke-width:0.5;" width="124.6475" x="601.19" y="7"/><ellipse cx="616.19" cy="23" fill="#ADD1B2" rx="11" ry="11" style="stroke:#181818;stroke-width:1;"/><path d="M619.1588,28.6406 Q618.5806,28.9375 617.94,29.0781 Q617.2994,29.2344 616.5963,29.2344 Q614.0963,29.2344 612.7681,27.5938 Q611.4556,25.9375 611.4556,22.8125 Q611.4556,19.6875 612.7681,18.0313 Q614.0963,16.375 616.5963,16.375 Q617.2994,16.375 617.94,16.5313 Q618.5963,16.6875 619.1588,16.9844 L619.1588,19.7031 Q618.5338,19.125 617.94,18.8594 Q617.3463,18.5781 616.7213,18.5781 Q615.3775,18.5781 614.69,19.6563 Q614.0025,20.7188 614.0025,22.8125 Q614.0025,24.9063 614.69,25.9844 Q615.3775,27.0469 616.7213,27.0469 Q617.3463,27.0469 617.94,26.7813 Q618.5338,26.5 619.1588,25.9219 L619.1588,28.6406 Z " fill="#000000"/><text fill="#000000" font-family="sans-serif" font-size="14" lengthAdjust="spacing" textLength="92.6475" x="630.19" y="27.8467">DestroyBlock</text><line style="stroke:#181818;stroke-width:0.5;" x1="602.19" x2="724.8375" y1="39" y2="39"/><line style="stroke:#181818;stroke-width:0.5;" x1="602.19" x2="724.8375" y1="47" y2="47"/></g><!--class User--><g class="entity" data-entity="User" data-source-line="4" data-uid="ent0003" id="entity_User"><rect fill="#F1F1F1" height="80.5938" rx="2.5" ry="2.5" style="stroke:#181818;stroke-width:0.5;" width="126.8779" x="359.08" y="116"/><ellipse cx="402.4155" cy="132" fill="#ADD1B2" rx="11" ry="11" style="stroke:#181818;stroke-width:1;"/><path d="M405.3842,137.6406 Q404.8061,137.9375 404.1655,138.0781 Q403.5249,138.2344 402.8217,138.2344 Q400.3217,138.2344 398.9936,136.5938 Q397.6811,134.9375 397.6811,131.8125 Q397.6811,128.6875 398.9936,127.0313 Q400.3217,125.375 402.8217,125.375 Q403.5249,125.375 404.1655,125.5313 Q404.8217,125.6875 405.3842,125.9844 L405.3842,128.7031 Q404.7592,128.125 404.1655,127.8594 Q403.5717,127.5781 402.9467,127.5781 Q401.603,127.5781 400.9155,128.6563 Q400.228,129.7188 400.228,131.8125 Q400.228,133.9063 400.9155,134.9844 Q401.603,136.0469 402.9467,136.0469 Q403.5717,136.0469 404.1655,135.7813 Q404.7592,135.5 405.3842,134.9219 L405.3842,137.6406 Z " fill="#000000"/><text fill="#000000" font-family="sans-serif" font-size="14" lengthAdjust="spacing" textLength="31.9102" x="422.7123" y="136.8467">User</text><line style="stroke:#181818;stroke-width:0.5;" x1="360.08" x2="484.9579" y1="148" y2="148"/><text fill="#000000" font-family="sans-serif" font-size="14" lengthAdjust="spacing" textLength="114.8779" x="365.08" y="164.9951">string username</text><text fill="#000000" font-family="sans-serif" font-size="14" lengthAdjust="spacing" textLength="111.3506" x="365.08" y="181.292">string password</text><line style="stroke:#181818;stroke-width:0.5;" x1="360.08" x2="484.9579" y1="188.5938" y2="188.5938"/></g><!--class BlockAssignment--><g class="entity" data-entity="BlockAssignment" data-source-line="9" data-uid="ent0004" id="entity_BlockAssignment"><rect fill="#F1F1F1" height="80.5938" rx="2.5" ry="2.5" style="stroke:#181818;stroke-width:0.5;" width="188.6133" x="332.21" y="714.97"/><ellipse cx="363.5546" cy="730.97" fill="#ADD1B2" rx="11" ry="11" style="stroke:#181818;stroke-width:1;"/><path d="M366.5233,736.6106 Q365.9452,736.9075 365.3046,737.0481 Q364.664,737.2044 363.9608,737.2044 Q361.4608,737.2044 360.1327,735.5638 Q358.8202,733.9075 358.8202,730.7825 Q358.8202,727.6575 360.1327,726.0013 Q361.4608,724.345 363.9608,724.345 Q364.664,724.345 365.3046,724.5013 Q365.9608,724.6575 366.5233,724.9544 L366.5233,727.6731 Q365.8983,727.095 365.3046,726.8294 Q364.7108,726.5481 364.0858,726.5481 Q362.7421,726.5481 362.0546,727.6263 Q361.3671,728.6888 361.3671,730.7825 Q361.3671,732.8763 362.0546,733.9544 Q362.7421,735.0169 364.0858,735.0169 Q364.7108,735.0169 365.3046,734.7513 Q365.8983,734.47 366.5233,733.8919 L366.5233,736.6106 Z " fill="#000000"/><text fill="#000000" font-family="sans-serif" font-size="14" lengthAdjust="spacing" textLength="120.292" x="381.1867" y="735.8167">BlockAssignment</text><line style="stroke:#181818;stroke-width:0.5;" x1="333.21" x2="519.8233" y1="746.97" y2="746.97"/><text fill="#000000" font-family="sans-serif" font-size="14" lengthAdjust="spacing" textLength="176.6133" x="338.21" y="763.9651">int gridHorizontalPosition</text><text fill="#000000" font-family="sans-serif" font-size="14" lengthAdjust="spacing" textLength="158.6211" x="338.21" y="780.262">int gridVerticalPosition</text><line style="stroke:#181818;stroke-width:0.5;" x1="333.21" x2="519.8233" y1="787.5638" y2="787.5638"/></g><!--class Level--><g class="entity" data-entity="Level" data-source-line="14" data-uid="ent0005" id="entity_Level"><rect fill="#F1F1F1" height="64.2969" rx="2.5" ry="2.5" style="stroke:#181818;stroke-width:0.5;" width="141.876" x="378.58" y="548.93"/><ellipse cx="426.6674" cy="564.93" fill="#ADD1B2" rx="11" ry="11" style="stroke:#181818;stroke-width:1;"/><path d="M429.6362,570.5706 Q429.058,570.8675 428.4174,571.0081 Q427.7768,571.1644 427.0737,571.1644 Q424.5737,571.1644 423.2455,569.5238 Q421.933,567.8675 421.933,564.7425 Q421.933,561.6175 423.2455,559.9613 Q424.5737,558.305 427.0737,558.305 Q427.7768,558.305 428.4174,558.4613 Q429.0737,558.6175 429.6362,558.9144 L429.6362,561.6331 Q429.0112,561.055 428.4174,560.7894 Q427.8237,560.5081 427.1987,560.5081 Q425.8549,560.5081 425.1674,561.5863 Q424.4799,562.6488 424.4799,564.7425 Q424.4799,566.8363 425.1674,567.9144 Q425.8549,568.9769 427.1987,568.9769 Q427.8237,568.9769 428.4174,568.7113 Q429.0112,568.43 429.6362,567.8519 L429.6362,570.5706 Z " fill="#000000"/><text fill="#000000" font-family="sans-serif" font-size="14" lengthAdjust="spacing" textLength="37.2012" x="447.1674" y="569.7767">Level</text><line style="stroke:#181818;stroke-width:0.5;" x1="379.58" x2="519.456" y1="580.93" y2="580.93"/><text fill="#000000" font-family="sans-serif" font-size="14" lengthAdjust="spacing" textLength="129.876" x="384.58" y="597.9251">boolean isRandom</text><line style="stroke:#181818;stroke-width:0.5;" x1="379.58" x2="519.456" y1="605.2269" y2="605.2269"/></g><!--class Game--><g class="entity" data-entity="Game" data-source-line="18" data-uid="ent0006" id="entity_Game"><rect fill="#F1F1F1" height="80.5938" rx="2.5" ry="2.5" style="stroke:#181818;stroke-width:0.5;" width="154.502" x="372.27" y="382.89"/><ellipse cx="424.4316" cy="398.89" fill="#ADD1B2" rx="11" ry="11" style="stroke:#181818;stroke-width:1;"/><path d="M427.4004,404.5306 Q426.8222,404.8275 426.1816,404.9681 Q425.541,405.1244 424.8379,405.1244 Q422.3379,405.1244 421.0097,403.4838 Q419.6972,401.8275 419.6972,398.7025 Q419.6972,395.5775 421.0097,393.9213 Q422.3379,392.265 424.8379,392.265 Q425.541,392.265 426.1816,392.4213 Q426.8379,392.5775 427.4004,392.8744 L427.4004,395.5931 Q426.7754,395.015 426.1816,394.7494 Q425.5879,394.4681 424.9629,394.4681 Q423.6191,394.4681 422.9316,395.5463 Q422.2441,396.6088 422.2441,398.7025 Q422.2441,400.7963 422.9316,401.8744 Q423.6191,402.9369 424.9629,402.9369 Q425.5879,402.9369 426.1816,402.6713 Q426.7754,402.39 427.4004,401.8119 L427.4004,404.5306 Z " fill="#000000"/><text fill="#000000" font-family="sans-serif" font-size="14" lengthAdjust="spacing" textLength="41.6787" x="444.9316" y="403.7367">Game</text><line style="stroke:#181818;stroke-width:0.5;" x1="373.27" x2="525.772" y1="414.89" y2="414.89"/><text fill="#000000" font-family="sans-serif" font-size="14" lengthAdjust="spacing" textLength="84.3418" x="378.27" y="431.8851">string name</text><text fill="#000000" font-family="sans-serif" font-size="14" lengthAdjust="spacing" textLength="142.502" x="378.27" y="448.182">int nrBlocksPerLevel</text><line style="stroke:#181818;stroke-width:0.5;" x1="373.27" x2="525.772" y1="455.4838" y2="455.4838"/></g><!--class Block--><g class="entity" data-entity="Block" data-source-line="23" data-uid="ent0007" id="entity_Block"><rect fill="#F1F1F1" height="129.4844" rx="2.5" ry="2.5" style="stroke:#181818;stroke-width:0.5;" width="77.7002" x="534.67" y="872.86"/><ellipse cx="553.1962" cy="888.86" fill="#ADD1B2" rx="11" ry="11" style="stroke:#181818;stroke-width:1;"/><path d="M556.1649,894.5006 Q555.5868,894.7975 554.9462,894.9381 Q554.3055,895.0944 553.6024,895.0944 Q551.1024,895.0944 549.7743,893.4538 Q548.4618,891.7975 548.4618,888.6725 Q548.4618,885.5475 549.7743,883.8913 Q551.1024,882.235 553.6024,882.235 Q554.3055,882.235 554.9462,882.3913 Q555.6024,882.5475 556.1649,882.8444 L556.1649,885.5631 Q555.5399,884.985 554.9462,884.7194 Q554.3524,884.4381 553.7274,884.4381 Q552.3837,884.4381 551.6962,885.5163 Q551.0087,886.5788 551.0087,888.6725 Q551.0087,890.7663 551.6962,891.8444 Q552.3837,892.9069 553.7274,892.9069 Q554.3524,892.9069 554.9462,892.6413 Q555.5399,892.36 556.1649,891.7819 L556.1649,894.5006 Z " fill="#000000"/><text fill="#000000" font-family="sans-serif" font-size="14" lengthAdjust="spacing" textLength="37.8643" x="567.9798" y="893.7067">Block</text><line style="stroke:#181818;stroke-width:0.5;" x1="535.67" x2="611.3702" y1="904.86" y2="904.86"/><text fill="#000000" font-family="sans-serif" font-size="14" lengthAdjust="spacing" textLength="35.4785" x="540.67" y="921.8551">int id</text><text fill="#000000" font-family="sans-serif" font-size="14" lengthAdjust="spacing" textLength="45.958" x="540.67" y="938.152">int red</text><text fill="#000000" font-family="sans-serif" font-size="14" lengthAdjust="spacing" textLength="63.4443" x="540.67" y="954.4489">int green</text><text fill="#000000" font-family="sans-serif" font-size="14" lengthAdjust="spacing" textLength="52.9648" x="540.67" y="970.7457">int blue</text><text fill="#000000" font-family="sans-serif" font-size="14" lengthAdjust="spacing" textLength="65.7002" x="540.67" y="987.0426">int points</text><line style="stroke:#181818;stroke-width:0.5;" x1="535.67" x2="611.3702" y1="994.3444" y2="994.3444"/></g><!--class Paddle--><g class="entity" data-entity="Paddle" data-source-line="31" data-uid="ent0008" id="entity_Paddle"><rect fill="#F1F1F1" height="80.5938" rx="2.5" ry="2.5" style="stroke:#181818;stroke-width:0.5;" width="161.0371" x="7" y="540.78"/><ellipse cx="59.6196" cy="556.78" fill="#ADD1B2" rx="11" ry="11" style="stroke:#181818;stroke-width:1;"/><path d="M62.5884,562.4206 Q62.0103,562.7175 61.3696,562.8581 Q60.729,563.0144 60.0259,563.0144 Q57.5259,563.0144 56.1978,561.3738 Q54.8853,559.7175 54.8853,556.5925 Q54.8853,553.4675 56.1978,551.8113 Q57.5259,550.155 60.0259,550.155 Q60.729,550.155 61.3696,550.3113 Q62.0259,550.4675 62.5884,550.7644 L62.5884,553.4831 Q61.9634,552.905 61.3696,552.6394 Q60.7759,552.3581 60.1509,552.3581 Q58.8071,552.3581 58.1196,553.4363 Q57.4321,554.4988 57.4321,556.5925 Q57.4321,558.6863 58.1196,559.7644 Q58.8071,560.8269 60.1509,560.8269 Q60.7759,560.8269 61.3696,560.5613 Q61.9634,560.28 62.5884,559.7019 L62.5884,562.4206 Z " fill="#000000"/><text fill="#000000" font-family="sans-serif" font-size="14" lengthAdjust="spacing" textLength="47.2979" x="80.1196" y="561.6267">Paddle</text><line style="stroke:#181818;stroke-width:0.5;" x1="8" x2="167.0371" y1="572.78" y2="572.78"/><text fill="#000000" font-family="sans-serif" font-size="14" lengthAdjust="spacing" textLength="149.0371" x="13" y="589.7751">int maxPaddleLength</text><text fill="#000000" font-family="sans-serif" font-size="14" lengthAdjust="spacing" textLength="144.9355" x="13" y="606.072">int minPaddleLength</text><line style="stroke:#181818;stroke-width:0.5;" x1="8" x2="167.0371" y1="613.3738" y2="613.3738"/></g><!--class Ball--><g class="entity" data-entity="Ball" data-source-line="36" data-uid="ent0009" id="entity_Ball"><rect fill="#F1F1F1" height="80.5938" rx="2.5" ry="2.5" style="stroke:#181818;stroke-width:0.5;" width="140.543" x="203.25" y="540.78"/><ellipse cx="256.29" cy="556.78" fill="#ADD1B2" rx="11" ry="11" style="stroke:#181818;stroke-width:1;"/><path d="M259.2588,562.4206 Q258.6807,562.7175 258.04,562.8581 Q257.3994,563.0144 256.6963,563.0144 Q254.1963,563.0144 252.8682,561.3738 Q251.5557,559.7175 251.5557,556.5925 Q251.5557,553.4675 252.8682,551.8113 Q254.1963,550.155 256.6963,550.155 Q257.3994,550.155 258.04,550.3113 Q258.6963,550.4675 259.2588,550.7644 L259.2588,553.4831 Q258.6338,552.905 258.04,552.6394 Q257.4463,552.3581 256.8213,552.3581 Q255.4775,552.3581 254.79,553.4363 Q254.1025,554.4988 254.1025,556.5925 Q254.1025,558.6863 254.79,559.7644 Q255.4775,560.8269 256.8213,560.8269 Q257.4463,560.8269 258.04,560.5613 Q258.6338,560.28 259.2588,559.7019 L259.2588,562.4206 Z " fill="#000000"/><text fill="#000000" font-family="sans-serif" font-size="14" lengthAdjust="spacing" textLength="25.9629" x="276.79" y="561.6267">Ball</text><line style="stroke:#181818;stroke-width:0.5;" x1="204.25" x2="342.793" y1="572.78" y2="572.78"/><text fill="#000000" font-family="sans-serif" font-size="14" lengthAdjust="spacing" textLength="128.543" x="209.25" y="589.7751">int minBallSpeedX</text><text fill="#000000" font-family="sans-serif" font-size="14" lengthAdjust="spacing" textLength="127.5039" x="209.25" y="606.072">int minBallSpeedY</text><line style="stroke:#181818;stroke-width:0.5;" x1="204.25" x2="342.793" y1="613.3738" y2="613.3738"/></g><!--class HallOfFameEntry--><g class="entity" data-entity="HallOfFameEntry" data-source-line="41" data-uid="ent0010" id="entity_HallOfFameEntry"><rect fill="#F1F1F1" height="64.2969" rx="2.5" ry="2.5" style="stroke:#181818;stroke-width:0.5;" width="150.9658" x="492.04" y="257.6"/><ellipse cx="507.04" cy="273.6" fill="#ADD1B2" rx="11" ry="11" style="stroke:#181818;stroke-width:1;"/><path d="M510.0088,279.2406 Q509.4306,279.5375 508.79,279.6781 Q508.1494,279.8344 507.4463,279.8344 Q504.9463,279.8344 503.6181,278.1938 Q502.3056,276.5375 502.3056,273.4125 Q502.3056,270.2875 503.6181,268.6313 Q504.9463,266.975 507.4463,266.975 Q508.1494,266.975 508.79,267.1313 Q509.4463,267.2875 510.0088,267.5844 L510.0088,270.3031 Q509.3838,269.725 508.79,269.4594 Q508.1963,269.1781 507.5713,269.1781 Q506.2275,269.1781 505.54,270.2563 Q504.8525,271.3188 504.8525,273.4125 Q504.8525,275.5063 505.54,276.5844 Q506.2275,277.6469 507.5713,277.6469 Q508.1963,277.6469 508.79,277.3813 Q509.3838,277.1 510.0088,276.5219 L510.0088,279.2406 Z " fill="#000000"/><text fill="#000000" font-family="sans-serif" font-size="14" lengthAdjust="spacing" textLength="118.9658" x="521.04" y="278.4467">HallOfFameEntry</text><line style="stroke:#181818;stroke-width:0.5;" x1="493.04" x2="642.0058" y1="289.6" y2="289.6"/><text fill="#000000" font-family="sans-serif" font-size="14" lengthAdjust="spacing" textLength="60.6279" x="498.04" y="306.5951">int score</text><line style="stroke:#181818;stroke-width:0.5;" x1="493.04" x2="642.0058" y1="313.8969" y2="313.8969"/></g><!--class PlayedGame--><g class="entity" data-entity="PlayedGame" data-source-line="45" data-uid="ent0011" id="entity_PlayedGame"><rect fill="#F1F1F1" height="113.1875" rx="2.5" ry="2.5" style="stroke:#181818;stroke-width:0.5;" width="122.9609" x="705.04" y="524.49"/><ellipse cx="721.2037" cy="540.49" fill="#ADD1B2" rx="11" ry="11" style="stroke:#181818;stroke-width:1;"/><path d="M724.1724,546.1306 Q723.5943,546.4275 722.9537,546.5681 Q722.313,546.7244 721.6099,546.7244 Q719.1099,546.7244 717.7818,545.0838 Q716.4693,543.4275 716.4693,540.3025 Q716.4693,537.1775 717.7818,535.5213 Q719.1099,533.865 721.6099,533.865 Q722.313,533.865 722.9537,534.0213 Q723.6099,534.1775 724.1724,534.4744 L724.1724,537.1931 Q723.5474,536.615 722.9537,536.3494 Q722.3599,536.0681 721.7349,536.0681 Q720.3912,536.0681 719.7037,537.1463 Q719.0162,538.2088 719.0162,540.3025 Q719.0162,542.3963 719.7037,543.4744 Q720.3912,544.5369 721.7349,544.5369 Q722.3599,544.5369 722.9537,544.2713 Q723.5474,543.99 724.1724,543.4119 L724.1724,546.1306 Z " fill="#000000"/><text fill="#000000" font-family="sans-serif" font-size="14" lengthAdjust="spacing" textLength="88.375" x="735.4623" y="545.3367">PlayedGame</text><line style="stroke:#181818;stroke-width:0.5;" x1="706.04" x2="827.0009" y1="556.49" y2="556.49"/><text fill="#000000" font-family="sans-serif" font-size="14" lengthAdjust="spacing" textLength="35.4785" x="711.04" y="573.4851">int id</text><text fill="#000000" font-family="sans-serif" font-size="14" lengthAdjust="spacing" textLength="60.6279" x="711.04" y="589.782">int score</text><text fill="#000000" font-family="sans-serif" font-size="14" lengthAdjust="spacing" textLength="54.6738" x="711.04" y="606.0789">int lives</text><text fill="#000000" font-family="sans-serif" font-size="14" lengthAdjust="spacing" textLength="110.9609" x="711.04" y="622.3757">int currentLevel</text><line style="stroke:#181818;stroke-width:0.5;" x1="706.04" x2="827.0009" y1="629.6775" y2="629.6775"/></g><!--class PlayedBall--><g class="entity" data-entity="PlayedBall" data-source-line="52" data-uid="ent0012" id="entity_PlayedBall"><rect fill="#F1F1F1" height="113.1875" rx="2.5" ry="2.5" style="stroke:#181818;stroke-width:0.5;" width="162.5547" x="873.24" y="698.67"/><ellipse cx="914.293" cy="714.67" fill="#ADD1B2" rx="11" ry="11" style="stroke:#181818;stroke-width:1;"/><path d="M917.2617,720.3106 Q916.6836,720.6075 916.043,720.7481 Q915.4024,720.9044 914.6992,720.9044 Q912.1992,720.9044 910.8711,719.2638 Q909.5586,717.6075 909.5586,714.4825 Q909.5586,711.3575 910.8711,709.7013 Q912.1992,708.045 914.6992,708.045 Q915.4024,708.045 916.043,708.2013 Q916.6992,708.3575 917.2617,708.6544 L917.2617,711.3731 Q916.6367,710.795 916.043,710.5294 Q915.4492,710.2481 914.8242,710.2481 Q913.4805,710.2481 912.793,711.3263 Q912.1055,712.3888 912.1055,714.4825 Q912.1055,716.5763 912.793,717.6544 Q913.4805,718.7169 914.8242,718.7169 Q915.4492,718.7169 916.043,718.4513 Q916.6367,718.17 917.2617,717.5919 L917.2617,720.3106 Z " fill="#000000"/><text fill="#000000" font-family="sans-serif" font-size="14" lengthAdjust="spacing" textLength="72.6592" x="934.0825" y="719.5167">PlayedBall</text><line style="stroke:#181818;stroke-width:0.5;" x1="874.24" x2="1034.7947" y1="730.67" y2="730.67"/><text fill="#000000" font-family="sans-serif" font-size="14" lengthAdjust="spacing" textLength="150.5547" x="879.24" y="747.6651">double ballDirectionX</text><text fill="#000000" font-family="sans-serif" font-size="14" lengthAdjust="spacing" textLength="149.5156" x="879.24" y="763.962">double ballDirectionY</text><text fill="#000000" font-family="sans-serif" font-size="14" lengthAdjust="spacing" textLength="138.7764" x="879.24" y="780.2589">double currentBallX</text><text fill="#000000" font-family="sans-serif" font-size="14" lengthAdjust="spacing" textLength="137.7373" x="879.24" y="796.5557">double currentBallY</text><line style="stroke:#181818;stroke-width:0.5;" x1="874.24" x2="1034.7947" y1="803.8575" y2="803.8575"/></g><!--class PlayedPaddle--><g class="entity" data-entity="PlayedPaddle" data-source-line="59" data-uid="ent0013" id="entity_PlayedPaddle"><rect fill="#F1F1F1" height="96.8906" rx="2.5" ry="2.5" style="stroke:#181818;stroke-width:0.5;" width="211.0557" x="626.99" y="706.82"/><ellipse cx="681.2708" cy="722.82" fill="#ADD1B2" rx="11" ry="11" style="stroke:#181818;stroke-width:1;"/><path d="M684.2395,728.4606 Q683.6614,728.7575 683.0208,728.8981 Q682.3801,729.0544 681.677,729.0544 Q679.177,729.0544 677.8489,727.4138 Q676.5364,725.7575 676.5364,722.6325 Q676.5364,719.5075 677.8489,717.8513 Q679.177,716.195 681.677,716.195 Q682.3801,716.195 683.0208,716.3513 Q683.677,716.5075 684.2395,716.8044 L684.2395,719.5231 Q683.6145,718.945 683.0208,718.6794 Q682.427,718.3981 681.802,718.3981 Q680.4583,718.3981 679.7708,719.4763 Q679.0833,720.5388 679.0833,722.6325 Q679.0833,724.7263 679.7708,725.8044 Q680.4583,726.8669 681.802,726.8669 Q682.427,726.8669 683.0208,726.6013 Q683.6145,726.32 684.2395,725.7419 L684.2395,728.4606 Z " fill="#000000"/><text fill="#000000" font-family="sans-serif" font-size="14" lengthAdjust="spacing" textLength="93.9941" x="701.7708" y="727.6667">PlayedPaddle</text><line style="stroke:#181818;stroke-width:0.5;" x1="627.99" x2="837.0457" y1="738.82" y2="738.82"/><text fill="#000000" font-family="sans-serif" font-size="14" lengthAdjust="spacing" textLength="199.0557" x="632.99" y="755.8151">double currentPaddleLength</text><text fill="#000000" font-family="sans-serif" font-size="14" lengthAdjust="spacing" textLength="160.1113" x="632.99" y="772.112">double currentPaddleX</text><text fill="#000000" font-family="sans-serif" font-size="14" lengthAdjust="spacing" textLength="159.0723" x="632.99" y="788.4089">double currentPaddleY</text><line style="stroke:#181818;stroke-width:0.5;" x1="627.99" x2="837.0457" y1="795.7106" y2="795.7106"/></g><!--class PlayedBlockAssignment--><g class="entity" data-entity="PlayedBlockAssignment" data-source-line="65" data-uid="ent0014" id="entity_PlayedBlockAssignment"><rect fill="#F1F1F1" height="80.5938" rx="2.5" ry="2.5" style="stroke:#181818;stroke-width:0.5;" width="198.9883" x="731.02" y="1063.35"/><ellipse cx="746.02" cy="1079.35" fill="#ADD1B2" rx="11" ry="11" style="stroke:#181818;stroke-width:1;"/><path d="M748.9888,1084.9906 Q748.4106,1085.2875 747.77,1085.4281 Q747.1294,1085.5844 746.4263,1085.5844 Q743.9263,1085.5844 742.5981,1083.9438 Q741.2856,1082.2875 741.2856,1079.1625 Q741.2856,1076.0375 742.5981,1074.3813 Q743.9263,1072.725 746.4263,1072.725 Q747.1294,1072.725 747.77,1072.8813 Q748.4263,1073.0375 748.9888,1073.3344 L748.9888,1076.0531 Q748.3638,1075.475 747.77,1075.2094 Q747.1763,1074.9281 746.5513,1074.9281 Q745.2075,1074.9281 744.52,1076.0063 Q743.8325,1077.0688 743.8325,1079.1625 Q743.8325,1081.2563 744.52,1082.3344 Q745.2075,1083.3969 746.5513,1083.3969 Q747.1763,1083.3969 747.77,1083.1313 Q748.3638,1082.85 748.9888,1082.2719 L748.9888,1084.9906 Z " fill="#000000"/><text fill="#000000" font-family="sans-serif" font-size="14" lengthAdjust="spacing" textLength="166.9883" x="760.02" y="1084.1967">PlayedBlockAssignment</text><line style="stroke:#181818;stroke-width:0.5;" x1="732.02" x2="929.0083" y1="1095.35" y2="1095.35"/><text fill="#000000" font-family="sans-serif" font-size="14" lengthAdjust="spacing" textLength="30.9873" x="737.02" y="1112.3451">int x</text><text fill="#000000" font-family="sans-serif" font-size="14" lengthAdjust="spacing" textLength="30.9873" x="737.02" y="1128.642">int y</text><line style="stroke:#181818;stroke-width:0.5;" x1="732.02" x2="929.0083" y1="1135.9438" y2="1135.9438"/></g><!--class Player--><g class="entity" data-entity="Player" data-source-line="70" data-uid="ent0015" id="entity_Player"><rect fill="#F1F1F1" height="48" rx="2.5" ry="2.5" style="stroke:#181818;stroke-width:0.5;" width="75.5654" x="346.74" y="7"/><ellipse cx="361.74" cy="23" fill="#ADD1B2" rx="11" ry="11" style="stroke:#181818;stroke-width:1;"/><path d="M364.7088,28.6406 Q364.1306,28.9375 363.49,29.0781 Q362.8494,29.2344 362.1463,29.2344 Q359.6463,29.2344 358.3181,27.5938 Q357.0056,25.9375 357.0056,22.8125 Q357.0056,19.6875 358.3181,18.0313 Q359.6463,16.375 362.1463,16.375 Q362.8494,16.375 363.49,16.5313 Q364.1463,16.6875 364.7088,16.9844 L364.7088,19.7031 Q364.0838,19.125 363.49,18.8594 Q362.8963,18.5781 362.2713,18.5781 Q360.9275,18.5781 360.24,19.6563 Q359.5525,20.7188 359.5525,22.8125 Q359.5525,24.9063 360.24,25.9844 Q360.9275,27.0469 362.2713,27.0469 Q362.8963,27.0469 363.49,26.7813 Q364.0838,26.5 364.7088,25.9219 L364.7088,28.6406 Z " fill="#000000"/><text fill="#000000" font-family="sans-serif" font-size="14" lengthAdjust="spacing" textLength="43.5654" x="375.74" y="27.8467">Player</text><line style="stroke:#181818;stroke-width:0.5;" x1="347.74" x2="421.3054" y1="39" y2="39"/><line style="stroke:#181818;stroke-width:0.5;" x1="347.74" x2="421.3054" y1="47" y2="47"/></g><!--class Admin--><g class="entity" data-entity="Admin" data-source-line="71" data-uid="ent0016" id="entity_Admin"><rect fill="#F1F1F1" height="48" rx="2.5" ry="2.5" style="stroke:#181818;stroke-width:0.5;" width="76.8643" x="457.09" y="7"/><ellipse cx="472.09" cy="23" fill="#ADD1B2" rx="11" ry="11" style="stroke:#181818;stroke-width:1;"/><path d="M475.0588,28.6406 Q474.4806,28.9375 473.84,29.0781 Q473.1994,29.2344 472.4963,29.2344 Q469.9963,29.2344 468.6681,27.5938 Q467.3556,25.9375 467.3556,22.8125 Q467.3556,19.6875 468.6681,18.0313 Q469.9963,16.375 472.4963,16.375 Q473.1994,16.375 473.84,16.5313 Q474.4963,16.6875 475.0588,16.9844 L475.0588,19.7031 Q474.4338,19.125 473.84,18.8594 Q473.2463,18.5781 472.6213,18.5781 Q471.2775,18.5781 470.59,19.6563 Q469.9025,20.7188 469.9025,22.8125 Q469.9025,24.9063 470.59,25.9844 Q471.2775,27.0469 472.6213,27.0469 Q473.2463,27.0469 473.84,26.7813 Q474.4338,26.5 475.0588,25.9219 L475.0588,28.6406 Z " fill="#000000"/><text fill="#000000" font-family="sans-serif" font-size="14" lengthAdjust="spacing" textLength="44.8643" x="486.09" y="27.8467">Admin</text><line style="stroke:#181818;stroke-width:0.5;" x1="458.09" x2="532.9543" y1="39" y2="39"/><line style="stroke:#181818;stroke-width:0.5;" x1="458.09" x2="532.9543" y1="47" y2="47"/></g><!--reverse link DestroyBlock to User--><g class="link" data-entity-1="DestroyBlock" data-entity-2="User" data-source-line="74" data-uid="lnk17" id="link_DestroyBlock_User"><path codeLine="74" d="M606.9374,60.9464 C569.7874,79.9564 527.73,101.47 486.45,122.59" fill="none" id="DestroyBlock-backto-User" style="stroke:#181818;stroke-width:1;"/><polygon fill="#181818" points="617.62,55.48,610.4566,54.6523,606.9374,60.9464,614.1008,61.7741,617.62,55.48" style="stroke:#181818;stroke-width:1;"/><text fill="#000000" font-family="sans-serif" font-size="13" lengthAdjust="spacing" textLength="8.271" x="598.1134" y="74.9576">1</text><text fill="#000000" font-family="sans-serif" font-size="13" lengthAdjust="spacing" textLength="6.5" x="493.7979" y="115.1572">*</text></g><!--reverse link DestroyBlock to Game--><g class="link" data-entity-1="DestroyBlock" data-entity-2="Game" data-source-line="75" data-uid="lnk18" id="link_DestroyBlock_Game"><path codeLine="75" d="M674.4523,66.9864 C689.8723,119.6464 715.72,237.72 660.52,321.89 C630.66,367.43 574.09,392.78 527.03,406.61" fill="none" id="DestroyBlock-backto-Game" style="stroke:#181818;stroke-width:1;"/><polygon fill="#181818" points="671.08,55.47,668.9273,62.3523,674.4523,66.9864,676.6049,60.1041,671.08,55.47" style="stroke:#181818;stroke-width:1;"/><text fill="#000000" font-family="sans-serif" font-size="13" lengthAdjust="spacing" textLength="8.271" x="663.936" y="74.9453">1</text><text fill="#000000" font-family="sans-serif" font-size="13" lengthAdjust="spacing" textLength="6.5" x="534.7273" y="401.3884">*</text></g><!--reverse link DestroyBlock to PlayedGame--><g class="link" data-entity-1="DestroyBlock" data-entity-2="PlayedGame" data-source-line="76" data-uid="lnk19" id="link_DestroyBlock_PlayedGame"><path codeLine="76" d="M710.0615,62.4409 C739.6215,84.2809 766.52,112.76 766.52,155.3 C766.52,155.3 766.52,155.3 766.52,424.19 C766.52,457.34 766.52,494.46 766.52,524.16" fill="none" id="DestroyBlock-backto-PlayedGame" style="stroke:#181818;stroke-width:1;"/><polygon fill="#181818" points="700.41,55.31,702.8588,62.0926,710.0615,62.4409,707.6127,55.6583,700.41,55.31" style="stroke:#181818;stroke-width:1;"/><text fill="#000000" font-family="sans-serif" font-size="13" lengthAdjust="spacing" textLength="8.271" x="700.4615" y="75.1468">1</text><text fill="#000000" font-family="sans-serif" font-size="13" lengthAdjust="spacing" textLength="6.5" x="760.1848" y="513.3833">*</text></g><!--reverse link DestroyBlock to HallOfFameEntry--><g class="link" data-entity-1="DestroyBlock" data-entity-2="HallOfFameEntry" data-source-line="77" data-uid="lnk20" id="link_DestroyBlock_HallOfFameEntry"><path codeLine="77" d="M650.6269,66.4798 C633.3169,112.7698 598.73,205.27 579.21,257.48" fill="none" id="DestroyBlock-backto-HallOfFameEntry" style="stroke:#181818;stroke-width:1;"/><polygon fill="#181818" points="654.83,55.24,648.9818,59.4589,650.6269,66.4798,656.4751,62.261,654.83,55.24" style="stroke:#181818;stroke-width:1;"/><text fill="#000000" font-family="sans-serif" font-size="13" lengthAdjust="spacing" textLength="8.271" x="643.7714" y="75.0597">1</text><text fill="#000000" font-family="sans-serif" font-size="13" lengthAdjust="spacing" textLength="6.5" x="575.0533" y="246.3584">*</text></g><!--reverse link Game to Block--><g class="link" data-entity-1="Game" data-entity-2="Block" data-source-line="79" data-uid="lnk21" id="link_Game_Block"><path codeLine="79" d="M503.1405,472.527 C519.4505,489.477 527.87,501.91 537.52,524.49 C586.67,639.58 585.59,788.93 579.89,872.58" fill="none" id="Game-backto-Block" style="stroke:#181818;stroke-width:1;"/><polygon fill="#181818" points="494.82,463.88,496.0979,470.977,503.1405,472.527,501.8626,465.43,494.82,463.88" style="stroke:#181818;stroke-width:1;"/><text fill="#000000" font-family="sans-serif" font-size="13" lengthAdjust="spacing" textLength="8.271" x="493.4236" y="483.6383">1</text><text fill="#000000" font-family="sans-serif" font-size="13" lengthAdjust="spacing" textLength="6.5" x="574.2859" y="861.722">*</text></g><!--reverse link Game to Paddle--><g class="link" data-entity-1="Game" data-entity-2="Paddle" data-source-line="80" data-uid="lnk22" id="link_Game_Paddle"><path codeLine="80" d="M360.6554,454.0889 C307.3554,472.7689 246.75,495.7 185.52,524.49 C175.25,529.31 164.61,534.81 154.28,540.42" fill="none" id="Game-backto-Paddle" style="stroke:#181818;stroke-width:1;"/><polygon fill="#181818" points="371.98,450.12,364.9947,448.3296,360.6554,454.0889,367.6407,455.8793,371.98,450.12" style="stroke:#181818;stroke-width:1;"/><text fill="#000000" font-family="sans-serif" font-size="13" lengthAdjust="spacing" textLength="8.271" x="355.9666" y="449.1064">1</text><text fill="#000000" font-family="sans-serif" font-size="13" lengthAdjust="spacing" textLength="8.271" x="156.3042" y="529.8225">1</text></g><!--reverse link Game to Ball--><g class="link" data-entity-1="Game" data-entity-2="Ball" data-source-line="81" data-uid="lnk23" id="link_Game_Ball"><path codeLine="81" d="M395.668,471.8876 C369.188,495.3476 344.77,516.97 318.3,540.41" fill="none" id="Game-backto-Ball" style="stroke:#181818;stroke-width:1;"/><polygon fill="#181818" points="404.65,463.93,397.5065,464.9148,395.668,471.8876,402.8115,470.9028,404.65,463.93" style="stroke:#181818;stroke-width:1;"/><text fill="#000000" font-family="sans-serif" font-size="13" lengthAdjust="spacing" textLength="8.271" x="388.8828" y="483.6962">1</text><text fill="#000000" font-family="sans-serif" font-size="13" lengthAdjust="spacing" textLength="8.271" x="316.8207" y="529.8109">1</text></g><!--reverse link Game to Level--><g class="link" data-entity-1="Game" data-entity-2="Level" data-source-line="82" data-uid="lnk24" id="link_Game_Level"><path codeLine="82" d="M449.52,475.93 C449.52,502.18 449.52,524.11 449.52,548.51" fill="none" id="Game-backto-Level" style="stroke:#181818;stroke-width:1;"/><polygon fill="#181818" points="449.52,463.93,445.52,469.93,449.52,475.93,453.52,469.93,449.52,463.93" style="stroke:#181818;stroke-width:1;"/><text fill="#000000" font-family="sans-serif" font-size="13" lengthAdjust="spacing" textLength="8.271" x="440.9039" y="483.6962">1</text><text fill="#000000" font-family="sans-serif" font-size="13" lengthAdjust="spacing" textLength="23.0356" x="424.3316" y="537.9515">1..*</text></g><!--reverse link Level to BlockAssignment--><g class="link" data-entity-1="Level" data-entity-2="BlockAssignment" data-source-line="84" data-uid="lnk25" id="link_Level_BlockAssignment"><path codeLine="84" d="M443.7113,625.5544 C439.9113,654.0044 435.9,684.04 431.8,714.71" fill="none" id="Level-backto-BlockAssignment" style="stroke:#181818;stroke-width:1;"/><polygon fill="#181818" points="445.3,613.66,440.5409,619.0776,443.7113,625.5544,448.4704,620.1368,445.3,613.66" style="stroke:#181818;stroke-width:1;"/><text fill="#000000" font-family="sans-serif" font-size="13" lengthAdjust="spacing" textLength="8.271" x="435.7593" y="633.3801">1</text><text fill="#000000" font-family="sans-serif" font-size="13" lengthAdjust="spacing" textLength="6.5" x="426.2196" y="703.8285">*</text></g><!--reverse link PlayedGame to PlayedBlockAssignment--><g class="link" data-entity-1="PlayedGame" data-entity-2="PlayedBlockAssignment" data-source-line="86" data-uid="lnk26" id="link_PlayedGame_PlayedBlockAssignment"><path codeLine="86" d="M840.1603,589.2307 C908.3903,598.9407 1003.37,624.17 1053.52,698.67 C1139.18,825.94 971.9,988.85 882.17,1062.87" fill="none" id="PlayedGame-backto-PlayedBlockAssignment" style="stroke:#181818;stroke-width:1;"/><polygon fill="#181818" points="828.28,587.54,833.6566,592.3455,840.1603,589.2307,834.7837,584.4253,828.28,587.54" style="stroke:#181818;stroke-width:1;"/><text fill="#000000" font-family="sans-serif" font-size="13" lengthAdjust="spacing" textLength="8.271" x="835.8991" y="584.4939">1</text><text fill="#000000" font-family="sans-serif" font-size="13" lengthAdjust="spacing" textLength="6.5" x="883.9644" y="1052.2534">*</text></g><!--reverse link PlayedGame to PlayedPaddle--><g class="link" data-entity-1="PlayedGame" data-entity-2="PlayedPaddle" data-source-line="87" data-uid="lnk27" id="link_PlayedGame_PlayedPaddle"><path codeLine="87" d="M753.1573,649.7531 C748.7973,671.8531 746.15,685.21 741.96,706.44" fill="none" id="PlayedGame-backto-PlayedPaddle" style="stroke:#181818;stroke-width:1;"/><polygon fill="#181818" points="755.48,637.98,750.3943,643.0923,753.1573,649.7531,758.243,644.6408,755.48,637.98" style="stroke:#181818;stroke-width:1;"/><text fill="#000000" font-family="sans-serif" font-size="13" lengthAdjust="spacing" textLength="8.271" x="745.6635" y="657.9033">1</text><text fill="#000000" font-family="sans-serif" font-size="13" lengthAdjust="spacing" textLength="8.271" x="734.7444" y="695.5955">1</text></g><!--reverse link PlayedGame to PlayedBall--><g class="link" data-entity-1="PlayedGame" data-entity-2="PlayedBall" data-source-line="88" data-uid="lnk28" id="link_PlayedGame_PlayedBall"><path codeLine="88" d="M836.4079,646.0864 C857.5279,665.4364 872.34,679 893.47,698.35" fill="none" id="PlayedGame-backto-PlayedBall" style="stroke:#181818;stroke-width:1;"/><polygon fill="#181818" points="827.56,637.98,829.2818,644.9825,836.4079,646.0864,834.6861,639.0839,827.56,637.98" style="stroke:#181818;stroke-width:1;"/><text fill="#000000" font-family="sans-serif" font-size="13" lengthAdjust="spacing" textLength="8.271" x="826.5282" y="657.9033">1</text><text fill="#000000" font-family="sans-serif" font-size="13" lengthAdjust="spacing" textLength="8.271" x="877.5589" y="687.5746">1</text></g><!--link Player to User--><g class="link" data-entity-1="Player" data-entity-2="User" data-source-line="91" data-uid="lnk29" id="link_Player_User"><path codeLine="91" d="M391.76,55.48 C397.01,72.53 398.9331,78.8001 405.0731,98.7001" fill="none" id="Player-to-User" style="stroke:#181818;stroke-width:1;"/><polygon fill="none" points="410.38,115.9,410.8064,96.9311,399.3398,100.4691,410.38,115.9" style="stroke:#181818;stroke-width:1;"/></g><!--link Admin to User--><g class="link" data-entity-1="Admin" data-entity-2="User" data-source-line="92" data-uid="lnk30" id="link_Admin_User"><path codeLine="92" d="M481.62,55.48 C471.52,72.53 466.7992,80.5105 455.0192,100.4105" fill="none" id="Admin-to-User" style="stroke:#181818;stroke-width:1;"/><polygon fill="none" points="445.85,115.9,460.1824,103.4669,449.856,97.3541,445.85,115.9" style="stroke:#181818;stroke-width:1;"/></g><!--link User to Game--><g class="link" data-entity-1="User" data-entity-2="Game" data-source-line="95" data-uid="lnk31" id="link_User_Game"><path codeLine="95" d="M423.74,196.98 C425.05,230.38 427.64,279.37 432.52,321.89 C434.83,342.07 438.5,364.36 441.84,382.79" fill="none" id="User-Game" style="stroke:#181818;stroke-width:1;"/><text fill="#000000" font-family="sans-serif" font-size="13" lengthAdjust="spacing" textLength="40.7329" x="433.52" y="294.3069">admin</text><text fill="#000000" font-family="sans-serif" font-size="13" lengthAdjust="spacing" textLength="8.271" x="415.3187" y="216.7367">1</text><text fill="#000000" font-family="sans-serif" font-size="13" lengthAdjust="spacing" textLength="6.5" x="434.1124" y="371.935">*</text></g><!--link User to Game--><g class="link" data-entity-1="User" data-entity-2="Game" data-source-line="96" data-uid="lnk32" id="link_User_Game"><path codeLine="96" d="M398.76,196.83 C381.7,230.35 363.91,279.59 377.52,321.89 C384.61,343.93 398.53,365.22 412.26,382.48" fill="none" id="User-Game-1" style="stroke:#181818;stroke-width:1;"/><text fill="#000000" font-family="sans-serif" font-size="13" lengthAdjust="spacing" textLength="40.8662" x="378.52" y="294.3069">player</text><text fill="#000000" font-family="sans-serif" font-size="13" lengthAdjust="spacing" textLength="8.271" x="386.3575" y="216.5628">1</text><text fill="#000000" font-family="sans-serif" font-size="13" lengthAdjust="spacing" textLength="6.5" x="399.8833" y="371.8745">*</text></g><!--link BlockAssignment to Block--><g class="link" data-entity-1="BlockAssignment" data-entity-2="Block" data-source-line="98" data-uid="lnk33" id="link_BlockAssignment_Block"><path codeLine="98" d="M458.78,795.84 C481.01,823.11 510.67,859.51 534.27,888.46" fill="none" id="BlockAssignment-Block" style="stroke:#181818;stroke-width:1;"/><text fill="#000000" font-family="sans-serif" font-size="13" lengthAdjust="spacing" textLength="6.5" x="457.4837" y="815.5791">*</text><text fill="#000000" font-family="sans-serif" font-size="13" lengthAdjust="spacing" textLength="8.271" x="518.3207" y="875.0957">1</text></g><!--link User to HallOfFameEntry--><g class="link" data-entity-1="User" data-entity-2="HallOfFameEntry" data-source-line="99" data-uid="lnk34" id="link_User_HallOfFameEntry"><path codeLine="99" d="M466.42,197.09 C487.76,216.44 513.03,239.35 532.97,257.43" fill="none" id="User-HallOfFameEntry" style="stroke:#181818;stroke-width:1;"/><text fill="#000000" font-family="sans-serif" font-size="13" lengthAdjust="spacing" textLength="8.271" x="464.5506" y="216.5619">1</text><text fill="#000000" font-family="sans-serif" font-size="13" lengthAdjust="spacing" textLength="6.5" x="519.2763" y="246.298">*</text></g><!--link HallOfFameEntry to Game--><g class="link" data-entity-1="HallOfFameEntry" data-entity-2="Game" data-source-line="100" data-uid="lnk35" id="link_HallOfFameEntry_Game"><path codeLine="100" d="M539.25,322.23 C523.03,340.31 502.5,363.18 485.17,382.48" fill="none" id="HallOfFameEntry-Game" style="stroke:#181818;stroke-width:1;"/><text fill="#000000" font-family="sans-serif" font-size="13" lengthAdjust="spacing" textLength="6.5" x="527.3363" y="341.931">*</text><text fill="#000000" font-family="sans-serif" font-size="13" lengthAdjust="spacing" textLength="8.271" x="482.2357" y="371.8745">1</text></g><!--link Game to PlayedGame--><g class="link" data-entity-1="Game" data-entity-2="PlayedGame" data-source-line="101" data-uid="lnk36" id="link_Game_PlayedGame"><path codeLine="101" d="M526.92,459.13 C550.35,469.93 576.08,482 599.52,493.49 C634.57,510.66 673.28,530.67 704.61,547.12" fill="none" id="Game-PlayedGame" style="stroke:#181818;stroke-width:1;"/><text fill="#000000" font-family="sans-serif" font-size="13" lengthAdjust="spacing" textLength="8.271" x="534.6913" y="458.9142">1</text><text fill="#000000" font-family="sans-serif" font-size="13" lengthAdjust="spacing" textLength="6.5" x="690.7295" y="539.1416">*</text></g><!--link Block to PlayedBlockAssignment--><g class="link" data-entity-1="Block" data-entity-2="PlayedBlockAssignment" data-source-line="102" data-uid="lnk37" id="link_Block_PlayedBlockAssignment"><path codeLine="102" d="M612.83,963.7 C654.17,990.08 719.81,1031.98 768.22,1062.88" fill="none" id="Block-PlayedBlockAssignment" style="stroke:#181818;stroke-width:1;"/><text fill="#000000" font-family="sans-serif" font-size="13" lengthAdjust="spacing" textLength="8.271" x="620.2972" y="963.9748">1</text><text fill="#000000" font-family="sans-serif" font-size="13" lengthAdjust="spacing" textLength="6.5" x="751.8536" y="1052.2649">*</text></g><!--SRC=[VLHDRzim3BthLmY-D2tW3hqMs81ktTe11Hgis90S5Oj9YSgI8Jbjqsx_VVgmBLcEwqDYFPAF51_f4_hPFVIROCQ02ITIkHEz1jDgTVWgLFL4t_-H3lvjGDDtGkrZxIXtT6yHoMf8iSQwlYZDoH3dUQwCmPsiGROT1TgtdKP-gpI-ATaoiLG6MrHoPFu3kiKgCGwqT_0CeYFRA2M0IOhc5vDSrT7hnfOtBdeesAMGsbTdbg0zNrPrKYlouLK3Jse4Y1Lln3voDyh-ciYuP9mBI2XhzXgmEv2xzZ7YA4Tuh8a9aSQZTCX30y1NHz5rZBsrsFtsXxtyTzdgGq9ZAgKXALEm0_2aRzdjWtj_4lWCPZXLUwsjn5ah0sDIF5VxZUt4nYBNgA5omgvcBUlKqcLmPAiPV9rd7ZL-x3_f_p7pQjOoIJK_ww_3so4Bqcx7mlcAM_Nyoftq- -bM0psPeOjArKst2EQqszdHjXON1JqhIrgS5NvVvwrEu7bh789vdsoY2F4pathuc0os_w5tKzo9bwFdvvOdp1C96pz94DjDI3Ayq-latiUSBuhHq7piumiUfFef7q5ZosG5T87RJjnFGLEcWPe6AcG2tvWNaAgjrwWNiXk6ilpx9MWN8XDWI6KleInLe5b89Klr8kt7hQVodsfNPo8slQJC4SuP6v-Ua7o4dKilaDSpZy_d8F_I90H-e8PcJcSj3jb7mlq7]--></g></svg>