<svg xmlns="http://www.w3.org/2000/svg" xmlns:xlink="http://www.w3.org/1999/xlink" contentStyleType="text/css" data-diagram-type="CLASS" height="1105px" preserveAspectRatio="none" style="width:1452px;height:1105px;background:#FFFFFF;" version="1.1" viewBox="0 0 1452 1105" width="1452px" zoomAndPan="magnify"><defs/><g><!--class DestroyBlock--><g class="entity" data-entity="DestroyBlock" data-source-line="1" data-uid="ent0002" id="entity_DestroyBlock"><rect fill="#F1F1F1" height="48" rx="2.5" ry="2.5" style="stroke:#181818;stroke-width:0.5;" width="124.6475" x="905.07" y="7"/><ellipse cx="920.07" cy="23" fill="#ADD1B2" rx="11" ry="11" style="stroke:#181818;stroke-width:1;"/><path d="M923.0387,28.6406 Q922.4606,28.9375 921.82,29.0781 Q921.1794,29.2344 920.4762,29.2344 Q917.9762,29.2344 916.6481,27.5938 Q915.3356,25.9375 915.3356,22.8125 Q915.3356,19.6875 916.6481,18.0313 Q917.9762,16.375 920.4762,16.375 Q921.1794,16.375 921.82,16.5313 Q922.4762,16.6875 923.0387,16.9844 L923.0387,19.7031 Q922.4137,19.125 921.82,18.8594 Q921.2262,18.5781 920.6012,18.5781 Q919.2575,18.5781 918.57,19.6563 Q917.8825,20.7188 917.8825,22.8125 Q917.8825,24.9063 918.57,25.9844 Q919.2575,27.0469 920.6012,27.0469 Q921.2262,27.0469 921.82,26.7813 Q922.4137,26.5 923.0387,25.9219 L923.0387,28.6406 Z " fill="#000000"/><text fill="#000000" font-family="sans-serif" font-size="14" lengthAdjust="spacing" textLength="92.6475" x="934.07" y="27.8467">DestroyBlock</text><line style="stroke:#181818;stroke-width:0.5;" x1="906.07" x2="1028.7175" y1="39" y2="39"/><line style="stroke:#181818;stroke-width:0.5;" x1="906.07" x2="1028.7175" y1="47" y2="47"/></g><!--class User--><g class="entity" data-entity="User" data-source-line="3" data-uid="ent0003" id="entity_User"><rect fill="#F1F1F1" height="80.5938" rx="2.5" ry="2.5" style="stroke:#181818;stroke-width:0.5;" width="126.8779" x="557.96" y="265.14"/><ellipse cx="601.2955" cy="281.14" fill="#ADD1B2" rx="11" ry="11" style="stroke:#181818;stroke-width:1;"/><path d="M604.2642,286.7806 Q603.6861,287.0775 603.0455,287.2181 Q602.4049,287.3744 601.7017,287.3744 Q599.2017,287.3744 597.8736,285.7337 Q596.5611,284.0775 596.5611,280.9525 Q596.5611,277.8275 597.8736,276.1712 Q599.2017,274.515 601.7017,274.515 Q602.4049,274.515 603.0455,274.6712 Q603.7017,274.8275 604.2642,275.1244 L604.2642,277.8431 Q603.6392,277.265 603.0455,276.9994 Q602.4517,276.7181 601.8267,276.7181 Q600.483,276.7181 599.7955,277.7962 Q599.108,278.8587 599.108,280.9525 Q599.108,283.0462 599.7955,284.1244 Q600.483,285.1869 601.8267,285.1869 Q602.4517,285.1869 603.0455,284.9212 Q603.6392,284.64 604.2642,284.0619 L604.2642,286.7806 Z " fill="#000000"/><text fill="#000000" font-family="sans-serif" font-size="14" lengthAdjust="spacing" textLength="31.9102" x="621.5923" y="285.9867">User</text><line style="stroke:#181818;stroke-width:0.5;" x1="558.96" x2="683.8379" y1="297.14" y2="297.14"/><text fill="#000000" font-family="sans-serif" font-size="14" lengthAdjust="spacing" textLength="114.8779" x="563.96" y="314.1351">string username</text><text fill="#000000" font-family="sans-serif" font-size="14" lengthAdjust="spacing" textLength="111.3506" x="563.96" y="330.432">string password</text><line style="stroke:#181818;stroke-width:0.5;" x1="558.96" x2="683.8379" y1="337.7337" y2="337.7337"/></g><!--class BlockAssignment--><g class="entity" data-entity="BlockAssignment" data-source-line="8" data-uid="ent0004" id="entity_BlockAssignment"><rect fill="#F1F1F1" height="80.5938" rx="2.5" ry="2.5" style="stroke:#181818;stroke-width:0.5;" width="188.6133" x="152.09" y="637.37"/><ellipse cx="183.4346" cy="653.37" fill="#ADD1B2" rx="11" ry="11" style="stroke:#181818;stroke-width:1;"/><path d="M186.4033,659.0106 Q185.8252,659.3075 185.1846,659.4481 Q184.544,659.6044 183.8408,659.6044 Q181.3408,659.6044 180.0127,657.9637 Q178.7002,656.3075 178.7002,653.1825 Q178.7002,650.0575 180.0127,648.4012 Q181.3408,646.745 183.8408,646.745 Q184.544,646.745 185.1846,646.9012 Q185.8408,647.0575 186.4033,647.3544 L186.4033,650.0731 Q185.7783,649.495 185.1846,649.2294 Q184.5908,648.9481 183.9658,648.9481 Q182.6221,648.9481 181.9346,650.0262 Q181.2471,651.0887 181.2471,653.1825 Q181.2471,655.2762 181.9346,656.3544 Q182.6221,657.4169 183.9658,657.4169 Q184.5908,657.4169 185.1846,657.1512 Q185.7783,656.87 186.4033,656.2919 L186.4033,659.0106 Z " fill="#000000"/><text fill="#000000" font-family="sans-serif" font-size="14" lengthAdjust="spacing" textLength="120.292" x="201.0667" y="658.2167">BlockAssignment</text><line style="stroke:#181818;stroke-width:0.5;" x1="153.09" x2="339.7033" y1="669.37" y2="669.37"/><text fill="#000000" font-family="sans-serif" font-size="14" lengthAdjust="spacing" textLength="176.6133" x="158.09" y="686.3651">int gridHorizontalPosition</text><text fill="#000000" font-family="sans-serif" font-size="14" lengthAdjust="spacing" textLength="158.6211" x="158.09" y="702.662">int gridVerticalPosition</text><line style="stroke:#181818;stroke-width:0.5;" x1="153.09" x2="339.7033" y1="709.9637" y2="709.9637"/></g><!--class Level--><g class="entity" data-entity="Level" data-source-line="13" data-uid="ent0005" id="entity_Level"><rect fill="#F1F1F1" height="64.2969" rx="2.5" ry="2.5" style="stroke:#181818;stroke-width:0.5;" width="141.876" x="175.46" y="455.33"/><ellipse cx="223.5474" cy="471.33" fill="#ADD1B2" rx="11" ry="11" style="stroke:#181818;stroke-width:1;"/><path d="M226.5162,476.9706 Q225.938,477.2675 225.2974,477.4081 Q224.6568,477.5644 223.9537,477.5644 Q221.4537,477.5644 220.1255,475.9237 Q218.813,474.2675 218.813,471.1425 Q218.813,468.0175 220.1255,466.3612 Q221.4537,464.705 223.9537,464.705 Q224.6568,464.705 225.2974,464.8612 Q225.9537,465.0175 226.5162,465.3144 L226.5162,468.0331 Q225.8912,467.455 225.2974,467.1894 Q224.7037,466.9081 224.0787,466.9081 Q222.7349,466.9081 222.0474,467.9862 Q221.3599,469.0487 221.3599,471.1425 Q221.3599,473.2362 222.0474,474.3144 Q222.7349,475.3769 224.0787,475.3769 Q224.7037,475.3769 225.2974,475.1112 Q225.8912,474.83 226.5162,474.2519 L226.5162,476.9706 Z " fill="#000000"/><text fill="#000000" font-family="sans-serif" font-size="14" lengthAdjust="spacing" textLength="37.2012" x="244.0474" y="476.1767">Level</text><line style="stroke:#181818;stroke-width:0.5;" x1="176.46" x2="316.336" y1="487.33" y2="487.33"/><text fill="#000000" font-family="sans-serif" font-size="14" lengthAdjust="spacing" textLength="129.876" x="181.46" y="504.3251">boolean isRandom</text><line style="stroke:#181818;stroke-width:0.5;" x1="176.46" x2="316.336" y1="511.6269" y2="511.6269"/></g><!--class Game--><g class="entity" data-entity="Game" data-source-line="17" data-uid="ent0006" id="entity_Game"><rect fill="#F1F1F1" height="96.8906" rx="2.5" ry="2.5" style="stroke:#181818;stroke-width:0.5;" width="154.502" x="720.15" y="257"/><ellipse cx="772.3116" cy="273" fill="#ADD1B2" rx="11" ry="11" style="stroke:#181818;stroke-width:1;"/><path d="M775.2804,278.6406 Q774.7022,278.9375 774.0616,279.0781 Q773.421,279.2344 772.7179,279.2344 Q770.2179,279.2344 768.8897,277.5937 Q767.5772,275.9375 767.5772,272.8125 Q767.5772,269.6875 768.8897,268.0312 Q770.2179,266.375 772.7179,266.375 Q773.421,266.375 774.0616,266.5312 Q774.7179,266.6875 775.2804,266.9844 L775.2804,269.7031 Q774.6554,269.125 774.0616,268.8594 Q773.4679,268.5781 772.8429,268.5781 Q771.4991,268.5781 770.8116,269.6562 Q770.1241,270.7187 770.1241,272.8125 Q770.1241,274.9062 770.8116,275.9844 Q771.4991,277.0469 772.8429,277.0469 Q773.4679,277.0469 774.0616,276.7812 Q774.6554,276.5 775.2804,275.9219 L775.2804,278.6406 Z " fill="#000000"/><text fill="#000000" font-family="sans-serif" font-size="14" lengthAdjust="spacing" textLength="41.6787" x="792.8116" y="277.8467">Game</text><line style="stroke:#181818;stroke-width:0.5;" x1="721.15" x2="873.652" y1="289" y2="289"/><text fill="#000000" font-family="sans-serif" font-size="14" lengthAdjust="spacing" textLength="84.3418" x="726.15" y="305.9951">string name</text><text fill="#000000" font-family="sans-serif" font-size="14" lengthAdjust="spacing" textLength="142.502" x="726.15" y="322.292">int nrBlocksPerLevel</text><text fill="#000000" font-family="sans-serif" font-size="14" lengthAdjust="spacing" textLength="128.5156" x="726.15" y="338.5889">boolean published</text><line style="stroke:#181818;stroke-width:0.5;" x1="721.15" x2="873.652" y1="345.8906" y2="345.8906"/></g><!--class Block--><g class="entity" data-entity="Block" data-source-line="23" data-uid="ent0007" id="entity_Block"><rect fill="#F1F1F1" height="129.4844" rx="2.5" ry="2.5" style="stroke:#181818;stroke-width:0.5;" width="77.7002" x="798.55" y="811.26"/><ellipse cx="817.0762" cy="827.26" fill="#ADD1B2" rx="11" ry="11" style="stroke:#181818;stroke-width:1;"/><path d="M820.0449,832.9006 Q819.4668,833.1975 818.8262,833.3381 Q818.1855,833.4944 817.4824,833.4944 Q814.9824,833.4944 813.6543,831.8538 Q812.3418,830.1975 812.3418,827.0725 Q812.3418,823.9475 813.6543,822.2913 Q814.9824,820.635 817.4824,820.635 Q818.1855,820.635 818.8262,820.7913 Q819.4824,820.9475 820.0449,821.2444 L820.0449,823.9631 Q819.4199,823.385 818.8262,823.1194 Q818.2324,822.8381 817.6074,822.8381 Q816.2637,822.8381 815.5762,823.9163 Q814.8887,824.9788 814.8887,827.0725 Q814.8887,829.1663 815.5762,830.2444 Q816.2637,831.3069 817.6074,831.3069 Q818.2324,831.3069 818.8262,831.0413 Q819.4199,830.76 820.0449,830.1819 L820.0449,832.9006 Z " fill="#000000"/><text fill="#000000" font-family="sans-serif" font-size="14" lengthAdjust="spacing" textLength="37.8643" x="831.8598" y="832.1067">Block</text><line style="stroke:#181818;stroke-width:0.5;" x1="799.55" x2="875.2502" y1="843.26" y2="843.26"/><text fill="#000000" font-family="sans-serif" font-size="14" lengthAdjust="spacing" textLength="35.4785" x="804.55" y="860.2551">int id</text><text fill="#000000" font-family="sans-serif" font-size="14" lengthAdjust="spacing" textLength="45.958" x="804.55" y="876.552">int red</text><text fill="#000000" font-family="sans-serif" font-size="14" lengthAdjust="spacing" textLength="63.4443" x="804.55" y="892.8489">int green</text><text fill="#000000" font-family="sans-serif" font-size="14" lengthAdjust="spacing" textLength="52.9648" x="804.55" y="909.1457">int blue</text><text fill="#000000" font-family="sans-serif" font-size="14" lengthAdjust="spacing" textLength="65.7002" x="804.55" y="925.4426">int points</text><line style="stroke:#181818;stroke-width:0.5;" x1="799.55" x2="875.2502" y1="932.7444" y2="932.7444"/></g><!--class Paddle--><g class="entity" data-entity="Paddle" data-source-line="31" data-uid="ent0008" id="entity_Paddle"><rect fill="#F1F1F1" height="80.5938" rx="2.5" ry="2.5" style="stroke:#181818;stroke-width:0.5;" width="161.0371" x="351.88" y="447.18"/><ellipse cx="404.4996" cy="463.18" fill="#ADD1B2" rx="11" ry="11" style="stroke:#181818;stroke-width:1;"/><path d="M407.4684,468.8206 Q406.8903,469.1175 406.2496,469.2581 Q405.609,469.4144 404.9059,469.4144 Q402.4059,469.4144 401.0778,467.7737 Q399.7653,466.1175 399.7653,462.9925 Q399.7653,459.8675 401.0778,458.2112 Q402.4059,456.555 404.9059,456.555 Q405.609,456.555 406.2496,456.7112 Q406.9059,456.8675 407.4684,457.1644 L407.4684,459.8831 Q406.8434,459.305 406.2496,459.0394 Q405.6559,458.7581 405.0309,458.7581 Q403.6871,458.7581 402.9996,459.8362 Q402.3121,460.8987 402.3121,462.9925 Q402.3121,465.0862 402.9996,466.1644 Q403.6871,467.2269 405.0309,467.2269 Q405.6559,467.2269 406.2496,466.9612 Q406.8434,466.68 407.4684,466.1019 L407.4684,468.8206 Z " fill="#000000"/><text fill="#000000" font-family="sans-serif" font-size="14" lengthAdjust="spacing" textLength="47.2979" x="424.9996" y="468.0267">Paddle</text><line style="stroke:#181818;stroke-width:0.5;" x1="352.88" x2="511.9171" y1="479.18" y2="479.18"/><text fill="#000000" font-family="sans-serif" font-size="14" lengthAdjust="spacing" textLength="149.0371" x="357.88" y="496.1751">int maxPaddleLength</text><text fill="#000000" font-family="sans-serif" font-size="14" lengthAdjust="spacing" textLength="144.9355" x="357.88" y="512.472">int minPaddleLength</text><line style="stroke:#181818;stroke-width:0.5;" x1="352.88" x2="511.9171" y1="519.7738" y2="519.7738"/></g><!--class Ball--><g class="entity" data-entity="Ball" data-source-line="36" data-uid="ent0009" id="entity_Ball"><rect fill="#F1F1F1" height="96.8906" rx="2.5" ry="2.5" style="stroke:#181818;stroke-width:0.5;" width="236.9912" x="547.9" y="439.04"/><ellipse cx="649.1642" cy="455.04" fill="#ADD1B2" rx="11" ry="11" style="stroke:#181818;stroke-width:1;"/><path d="M652.1329,460.6806 Q651.5548,460.9775 650.9142,461.1181 Q650.2735,461.2744 649.5704,461.2744 Q647.0704,461.2744 645.7423,459.6337 Q644.4298,457.9775 644.4298,454.8525 Q644.4298,451.7275 645.7423,450.0712 Q647.0704,448.415 649.5704,448.415 Q650.2735,448.415 650.9142,448.5712 Q651.5704,448.7275 652.1329,449.0244 L652.1329,451.7431 Q651.5079,451.165 650.9142,450.8994 Q650.3204,450.6181 649.6954,450.6181 Q648.3517,450.6181 647.6642,451.6962 Q646.9767,452.7587 646.9767,454.8525 Q646.9767,456.9462 647.6642,458.0244 Q648.3517,459.0869 649.6954,459.0869 Q650.3204,459.0869 650.9142,458.8212 Q651.5079,458.54 652.1329,457.9619 L652.1329,460.6806 Z " fill="#000000"/><text fill="#000000" font-family="sans-serif" font-size="14" lengthAdjust="spacing" textLength="25.9629" x="669.6642" y="459.8867">Ball</text><line style="stroke:#181818;stroke-width:0.5;" x1="548.9" x2="783.8912" y1="471.04" y2="471.04"/><text fill="#000000" font-family="sans-serif" font-size="14" lengthAdjust="spacing" textLength="128.543" x="553.9" y="488.0351">int minBallSpeedX</text><text fill="#000000" font-family="sans-serif" font-size="14" lengthAdjust="spacing" textLength="127.5039" x="553.9" y="504.332">int minBallSpeedY</text><text fill="#000000" font-family="sans-serif" font-size="14" lengthAdjust="spacing" textLength="224.9912" x="553.9" y="520.6289">double ballSpeedIncreaseFactor</text><line style="stroke:#181818;stroke-width:0.5;" x1="548.9" x2="783.8912" y1="527.9306" y2="527.9306"/></g><!--class HallOfFameEntry--><g class="entity" data-entity="HallOfFameEntry" data-source-line="42" data-uid="ent0010" id="entity_HallOfFameEntry"><rect fill="#F1F1F1" height="64.2969" rx="2.5" ry="2.5" style="stroke:#181818;stroke-width:0.5;" width="150.9658" x="889.91" y="455.33"/><ellipse cx="904.91" cy="471.33" fill="#ADD1B2" rx="11" ry="11" style="stroke:#181818;stroke-width:1;"/><path d="M907.8788,476.9706 Q907.3006,477.2675 906.66,477.4081 Q906.0194,477.5644 905.3163,477.5644 Q902.8163,477.5644 901.4881,475.9237 Q900.1756,474.2675 900.1756,471.1425 Q900.1756,468.0175 901.4881,466.3612 Q902.8163,464.705 905.3163,464.705 Q906.0194,464.705 906.66,464.8612 Q907.3163,465.0175 907.8788,465.3144 L907.8788,468.0331 Q907.2538,467.455 906.66,467.1894 Q906.0663,466.9081 905.4413,466.9081 Q904.0975,466.9081 903.41,467.9862 Q902.7225,469.0487 902.7225,471.1425 Q902.7225,473.2362 903.41,474.3144 Q904.0975,475.3769 905.4413,475.3769 Q906.0663,475.3769 906.66,475.1112 Q907.2538,474.83 907.8788,474.2519 L907.8788,476.9706 Z " fill="#000000"/><text fill="#000000" font-family="sans-serif" font-size="14" lengthAdjust="spacing" textLength="118.9658" x="918.91" y="476.1767">HallOfFameEntry</text><line style="stroke:#181818;stroke-width:0.5;" x1="890.91" x2="1039.8758" y1="487.33" y2="487.33"/><text fill="#000000" font-family="sans-serif" font-size="14" lengthAdjust="spacing" textLength="60.6279" x="895.91" y="504.3251">int score</text><line style="stroke:#181818;stroke-width:0.5;" x1="890.91" x2="1039.8758" y1="511.6269" y2="511.6269"/></g><!--class PlayedGame--><g class="entity" data-entity="PlayedGame" data-source-line="46" data-uid="ent0011" id="entity_PlayedGame"><rect fill="#F1F1F1" height="113.1875" rx="2.5" ry="2.5" style="stroke:#181818;stroke-width:0.5;" width="122.9609" x="1075.92" y="430.89"/><ellipse cx="1092.0837" cy="446.89" fill="#ADD1B2" rx="11" ry="11" style="stroke:#181818;stroke-width:1;"/><path d="M1095.0524,452.5306 Q1094.4743,452.8275 1093.8337,452.9681 Q1093.193,453.1244 1092.4899,453.1244 Q1089.9899,453.1244 1088.6618,451.4837 Q1087.3493,449.8275 1087.3493,446.7025 Q1087.3493,443.5775 1088.6618,441.9212 Q1089.9899,440.265 1092.4899,440.265 Q1093.193,440.265 1093.8337,440.4212 Q1094.4899,440.5775 1095.0524,440.8744 L1095.0524,443.5931 Q1094.4274,443.015 1093.8337,442.7494 Q1093.2399,442.4681 1092.6149,442.4681 Q1091.2712,442.4681 1090.5837,443.5462 Q1089.8962,444.6087 1089.8962,446.7025 Q1089.8962,448.7962 1090.5837,449.8744 Q1091.2712,450.9369 1092.6149,450.9369 Q1093.2399,450.9369 1093.8337,450.6712 Q1094.4274,450.39 1095.0524,449.8119 L1095.0524,452.5306 Z " fill="#000000"/><text fill="#000000" font-family="sans-serif" font-size="14" lengthAdjust="spacing" textLength="88.375" x="1106.3423" y="451.7367">PlayedGame</text><line style="stroke:#181818;stroke-width:0.5;" x1="1076.92" x2="1197.8809" y1="462.89" y2="462.89"/><text fill="#000000" font-family="sans-serif" font-size="14" lengthAdjust="spacing" textLength="35.4785" x="1081.92" y="479.8851">int id</text><text fill="#000000" font-family="sans-serif" font-size="14" lengthAdjust="spacing" textLength="60.6279" x="1081.92" y="496.182">int score</text><text fill="#000000" font-family="sans-serif" font-size="14" lengthAdjust="spacing" textLength="54.6738" x="1081.92" y="512.4789">int lives</text><text fill="#000000" font-family="sans-serif" font-size="14" lengthAdjust="spacing" textLength="110.9609" x="1081.92" y="528.7757">int currentLevel</text><line style="stroke:#181818;stroke-width:0.5;" x1="1076.92" x2="1197.8809" y1="536.0775" y2="536.0775"/></g><!--class PlayedBall--><g class="entity" data-entity="PlayedBall" data-source-line="53" data-uid="ent0012" id="entity_PlayedBall"><rect fill="#F1F1F1" height="113.1875" rx="2.5" ry="2.5" style="stroke:#181818;stroke-width:0.5;" width="162.5547" x="1037.12" y="621.07"/><ellipse cx="1078.173" cy="637.07" fill="#ADD1B2" rx="11" ry="11" style="stroke:#181818;stroke-width:1;"/><path d="M1081.1417,642.7106 Q1080.5636,643.0075 1079.923,643.1481 Q1079.2824,643.3044 1078.5792,643.3044 Q1076.0792,643.3044 1074.7511,641.6637 Q1073.4386,640.0075 1073.4386,636.8825 Q1073.4386,633.7575 1074.7511,632.1012 Q1076.0792,630.445 1078.5792,630.445 Q1079.2824,630.445 1079.923,630.6012 Q1080.5792,630.7575 1081.1417,631.0544 L1081.1417,633.7731 Q1080.5167,633.195 1079.923,632.9294 Q1079.3292,632.6481 1078.7042,632.6481 Q1077.3605,632.6481 1076.673,633.7262 Q1075.9855,634.7887 1075.9855,636.8825 Q1075.9855,638.9762 1076.673,640.0544 Q1077.3605,641.1169 1078.7042,641.1169 Q1079.3292,641.1169 1079.923,640.8512 Q1080.5167,640.57 1081.1417,639.9919 L1081.1417,642.7106 Z " fill="#000000"/><text fill="#000000" font-family="sans-serif" font-size="14" lengthAdjust="spacing" textLength="72.6592" x="1097.9625" y="641.9167">PlayedBall</text><line style="stroke:#181818;stroke-width:0.5;" x1="1038.12" x2="1198.6747" y1="653.07" y2="653.07"/><text fill="#000000" font-family="sans-serif" font-size="14" lengthAdjust="spacing" textLength="150.5547" x="1043.12" y="670.0651">double ballDirectionX</text><text fill="#000000" font-family="sans-serif" font-size="14" lengthAdjust="spacing" textLength="149.5156" x="1043.12" y="686.362">double ballDirectionY</text><text fill="#000000" font-family="sans-serif" font-size="14" lengthAdjust="spacing" textLength="138.7764" x="1043.12" y="702.6589">double currentBallX</text><text fill="#000000" font-family="sans-serif" font-size="14" lengthAdjust="spacing" textLength="137.7373" x="1043.12" y="718.9557">double currentBallY</text><line style="stroke:#181818;stroke-width:0.5;" x1="1038.12" x2="1198.6747" y1="726.2575" y2="726.2575"/></g><!--class PlayedPaddle--><g class="entity" data-entity="PlayedPaddle" data-source-line="60" data-uid="ent0013" id="entity_PlayedPaddle"><rect fill="#F1F1F1" height="96.8906" rx="2.5" ry="2.5" style="stroke:#181818;stroke-width:0.5;" width="211.0557" x="1234.87" y="629.22"/><ellipse cx="1289.1508" cy="645.22" fill="#ADD1B2" rx="11" ry="11" style="stroke:#181818;stroke-width:1;"/><path d="M1292.1195,650.8606 Q1291.5414,651.1575 1290.9008,651.2981 Q1290.2601,651.4544 1289.557,651.4544 Q1287.057,651.4544 1285.7289,649.8137 Q1284.4164,648.1575 1284.4164,645.0325 Q1284.4164,641.9075 1285.7289,640.2512 Q1287.057,638.595 1289.557,638.595 Q1290.2601,638.595 1290.9008,638.7512 Q1291.557,638.9075 1292.1195,639.2044 L1292.1195,641.9231 Q1291.4945,641.345 1290.9008,641.0794 Q1290.307,640.7981 1289.682,640.7981 Q1288.3383,640.7981 1287.6508,641.8762 Q1286.9633,642.9387 1286.9633,645.0325 Q1286.9633,647.1262 1287.6508,648.2044 Q1288.3383,649.2669 1289.682,649.2669 Q1290.307,649.2669 1290.9008,649.0012 Q1291.4945,648.72 1292.1195,648.1419 L1292.1195,650.8606 Z " fill="#000000"/><text fill="#000000" font-family="sans-serif" font-size="14" lengthAdjust="spacing" textLength="93.9941" x="1309.6508" y="650.0667">PlayedPaddle</text><line style="stroke:#181818;stroke-width:0.5;" x1="1235.87" x2="1444.9257" y1="661.22" y2="661.22"/><text fill="#000000" font-family="sans-serif" font-size="14" lengthAdjust="spacing" textLength="199.0557" x="1240.87" y="678.2151">double currentPaddleLength</text><text fill="#000000" font-family="sans-serif" font-size="14" lengthAdjust="spacing" textLength="160.1113" x="1240.87" y="694.512">double currentPaddleX</text><text fill="#000000" font-family="sans-serif" font-size="14" lengthAdjust="spacing" textLength="159.0723" x="1240.87" y="710.8089">double currentPaddleY</text><line style="stroke:#181818;stroke-width:0.5;" x1="1235.87" x2="1444.9257" y1="718.1106" y2="718.1106"/></g><!--class PlayedBlockAssignment--><g class="entity" data-entity="PlayedBlockAssignment" data-source-line="66" data-uid="ent0014" id="entity_PlayedBlockAssignment"><rect fill="#F1F1F1" height="80.5938" rx="2.5" ry="2.5" style="stroke:#181818;stroke-width:0.5;" width="198.9883" x="820.9" y="1017.75"/><ellipse cx="835.9" cy="1033.75" fill="#ADD1B2" rx="11" ry="11" style="stroke:#181818;stroke-width:1;"/><path d="M838.8688,1039.3906 Q838.2906,1039.6875 837.65,1039.8281 Q837.0094,1039.9844 836.3063,1039.9844 Q833.8063,1039.9844 832.4781,1038.3438 Q831.1656,1036.6875 831.1656,1033.5625 Q831.1656,1030.4375 832.4781,1028.7813 Q833.8063,1027.125 836.3063,1027.125 Q837.0094,1027.125 837.65,1027.2813 Q838.3063,1027.4375 838.8688,1027.7344 L838.8688,1030.4531 Q838.2438,1029.875 837.65,1029.6094 Q837.0563,1029.3281 836.4313,1029.3281 Q835.0875,1029.3281 834.4,1030.4063 Q833.7125,1031.4688 833.7125,1033.5625 Q833.7125,1035.6563 834.4,1036.7344 Q835.0875,1037.7969 836.4313,1037.7969 Q837.0563,1037.7969 837.65,1037.5313 Q838.2438,1037.25 838.8688,1036.6719 L838.8688,1039.3906 Z " fill="#000000"/><text fill="#000000" font-family="sans-serif" font-size="14" lengthAdjust="spacing" textLength="166.9883" x="849.9" y="1038.5967">PlayedBlockAssignment</text><line style="stroke:#181818;stroke-width:0.5;" x1="821.9" x2="1018.8883" y1="1049.75" y2="1049.75"/><text fill="#000000" font-family="sans-serif" font-size="14" lengthAdjust="spacing" textLength="30.9873" x="826.9" y="1066.7451">int x</text><text fill="#000000" font-family="sans-serif" font-size="14" lengthAdjust="spacing" textLength="30.9873" x="826.9" y="1083.042">int y</text><line style="stroke:#181818;stroke-width:0.5;" x1="821.9" x2="1018.8883" y1="1090.3438" y2="1090.3438"/></g><!--class Player--><g class="entity" data-entity="Player" data-source-line="71" data-uid="ent0015" id="entity_Player"><rect fill="#F1F1F1" height="48" rx="2.5" ry="2.5" style="stroke:#181818;stroke-width:0.5;" width="75.5654" x="988.61" y="132"/><ellipse cx="1003.61" cy="148" fill="#ADD1B2" rx="11" ry="11" style="stroke:#181818;stroke-width:1;"/><path d="M1006.5788,153.6406 Q1006.0006,153.9375 1005.36,154.0781 Q1004.7194,154.2344 1004.0163,154.2344 Q1001.5163,154.2344 1000.1881,152.5937 Q998.8756,150.9375 998.8756,147.8125 Q998.8756,144.6875 1000.1881,143.0312 Q1001.5163,141.375 1004.0163,141.375 Q1004.7194,141.375 1005.36,141.5312 Q1006.0163,141.6875 1006.5788,141.9844 L1006.5788,144.7031 Q1005.9538,144.125 1005.36,143.8594 Q1004.7663,143.5781 1004.1413,143.5781 Q1002.7975,143.5781 1002.11,144.6562 Q1001.4225,145.7187 1001.4225,147.8125 Q1001.4225,149.9062 1002.11,150.9844 Q1002.7975,152.0469 1004.1413,152.0469 Q1004.7663,152.0469 1005.36,151.7812 Q1005.9538,151.5 1006.5788,150.9219 L1006.5788,153.6406 Z " fill="#000000"/><text fill="#000000" font-family="sans-serif" font-size="14" lengthAdjust="spacing" textLength="43.5654" x="1017.61" y="152.8467">Player</text><line style="stroke:#181818;stroke-width:0.5;" x1="989.61" x2="1063.1754" y1="164" y2="164"/><line style="stroke:#181818;stroke-width:0.5;" x1="989.61" x2="1063.1754" y1="172" y2="172"/></g><!--class Admin--><g class="entity" data-entity="Admin" data-source-line="72" data-uid="ent0016" id="entity_Admin"><rect fill="#F1F1F1" height="48" rx="2.5" ry="2.5" style="stroke:#181818;stroke-width:0.5;" width="76.8643" x="722.96" y="132"/><ellipse cx="737.96" cy="148" fill="#ADD1B2" rx="11" ry="11" style="stroke:#181818;stroke-width:1;"/><path d="M740.9287,153.6406 Q740.3506,153.9375 739.71,154.0781 Q739.0694,154.2344 738.3662,154.2344 Q735.8662,154.2344 734.5381,152.5937 Q733.2256,150.9375 733.2256,147.8125 Q733.2256,144.6875 734.5381,143.0312 Q735.8662,141.375 738.3662,141.375 Q739.0694,141.375 739.71,141.5312 Q740.3662,141.6875 740.9287,141.9844 L740.9287,144.7031 Q740.3037,144.125 739.71,143.8594 Q739.1162,143.5781 738.4912,143.5781 Q737.1475,143.5781 736.46,144.6562 Q735.7725,145.7187 735.7725,147.8125 Q735.7725,149.9062 736.46,150.9844 Q737.1475,152.0469 738.4912,152.0469 Q739.1162,152.0469 739.71,151.7812 Q740.3037,151.5 740.9287,150.9219 L740.9287,153.6406 Z " fill="#000000"/><text fill="#000000" font-family="sans-serif" font-size="14" lengthAdjust="spacing" textLength="44.8643" x="751.96" y="152.8467">Admin</text><line style="stroke:#181818;stroke-width:0.5;" x1="723.96" x2="798.8243" y1="164" y2="164"/><line style="stroke:#181818;stroke-width:0.5;" x1="723.96" x2="798.8243" y1="172" y2="172"/></g><!--reverse link DestroyBlock to User--><g class="link" data-entity-1="DestroyBlock" data-entity-2="User" data-source-line="74" data-uid="lnk17" id="link_DestroyBlock_User"><path codeLine="74" d="M892.685,37.2198 C824.865,44.8398 730.19,65.94 668.4,132 C634.59,168.14 624.66,226.19 621.98,264.81" fill="none" id="DestroyBlock-backto-User" style="stroke:#181818;stroke-width:1;"/><polygon fill="#181818" points="904.61,35.88,898.2009,32.5749,892.685,37.2198,899.0941,40.5249,904.61,35.88" style="stroke:#181818;stroke-width:1;"/><text fill="#000000" font-family="sans-serif" font-size="13" lengthAdjust="spacing" textLength="35.1279" x="669.4" y="160.5669">users</text><text fill="#000000" font-family="sans-serif" font-size="13" lengthAdjust="spacing" textLength="8.271" x="888.9038" y="32.6516">1</text><text fill="#000000" font-family="sans-serif" font-size="13" lengthAdjust="spacing" textLength="6.5" x="615.6343" y="254.2173">*</text></g><!--reverse link DestroyBlock to Admin--><g class="link" data-entity-1="DestroyBlock" data-entity-2="Admin" data-source-line="75" data-uid="lnk18" id="link_DestroyBlock_Admin"><path codeLine="75" d="M893.6077,55.0352 C870.1877,63.5852 855.25,70.87 833.4,85 C813.49,97.87 794.41,116.82 780.9,131.76" fill="none" id="DestroyBlock-backto-Admin" style="stroke:#181818;stroke-width:1;"/><polygon fill="#181818" points="904.88,50.92,897.8721,49.2202,893.6077,55.0352,900.6156,56.735,904.88,50.92" style="stroke:#181818;stroke-width:1;"/><text fill="#000000" font-family="sans-serif" font-size="13" lengthAdjust="spacing" textLength="47.5059" x="834.4" y="98.0669">admins</text><text fill="#000000" font-family="sans-serif" font-size="13" lengthAdjust="spacing" textLength="8.271" x="888.7902" y="49.5087">1</text><text fill="#000000" font-family="sans-serif" font-size="13" lengthAdjust="spacing" textLength="6.5" x="778.9847" y="121.1065">*</text></g><!--reverse link DestroyBlock to Player--><g class="link" data-entity-1="DestroyBlock" data-entity-2="Player" data-source-line="76" data-uid="lnk19" id="link_DestroyBlock_Player"><path codeLine="76" d="M983.8199,66.2397 C994.3199,88.1297 1004.72,109.8 1015.2,131.66" fill="none" id="DestroyBlock-backto-Player" style="stroke:#181818;stroke-width:1;"/><polygon fill="#181818" points="978.63,55.42,977.6184,62.5598,983.8199,66.2397,984.8315,59.0999,978.63,55.42" style="stroke:#181818;stroke-width:1;"/><text fill="#000000" font-family="sans-serif" font-size="13" lengthAdjust="spacing" textLength="47.6392" x="1001.4" y="98.0669">players</text><text fill="#000000" font-family="sans-serif" font-size="13" lengthAdjust="spacing" textLength="8.271" x="972.3347" y="74.8838">1</text><text fill="#000000" font-family="sans-serif" font-size="13" lengthAdjust="spacing" textLength="6.5" x="1005.8015" y="120.9821">*</text></g><!--reverse link DestroyBlock to Game--><g class="link" data-entity-1="DestroyBlock" data-entity-2="Game" data-source-line="77" data-uid="lnk20" id="link_DestroyBlock_Game"><path codeLine="77" d="M953.2458,66.344 C932.0858,117.664 887.74,225.13 886.4,227 C878.86,237.47 869.64,247.47 860.02,256.61" fill="none" id="DestroyBlock-backto-Game" style="stroke:#181818;stroke-width:1;"/><polygon fill="#181818" points="957.82,55.25,951.8349,59.2723,953.2458,66.344,959.2309,62.3217,957.82,55.25" style="stroke:#181818;stroke-width:1;"/><text fill="#000000" font-family="sans-serif" font-size="13" lengthAdjust="spacing" textLength="43.6528" x="925.4" y="160.5669">games</text><text fill="#000000" font-family="sans-serif" font-size="13" lengthAdjust="spacing" textLength="8.271" x="946.5444" y="75.0721">1</text><text fill="#000000" font-family="sans-serif" font-size="13" lengthAdjust="spacing" textLength="6.5" x="862.4391" y="245.7641">*</text></g><!--reverse link DestroyBlock to PlayedGame--><g class="link" data-entity-1="DestroyBlock" data-entity-2="PlayedGame" data-source-line="78" data-uid="lnk21" id="link_DestroyBlock_PlayedGame"><path codeLine="78" d="M1041.2673,54.7461 C1108.6973,78.8961 1199.96,124.32 1236.4,210 C1268.27,284.95 1221.82,374.02 1182.38,430.4" fill="none" id="DestroyBlock-backto-PlayedGame" style="stroke:#181818;stroke-width:1;"/><polygon fill="#181818" points="1029.97,50.7,1034.2699,56.4888,1041.2673,54.7461,1036.9674,48.9573,1029.97,50.7" style="stroke:#181818;stroke-width:1;"/><text fill="#000000" font-family="sans-serif" font-size="13" lengthAdjust="spacing" textLength="89.248" x="1242.4" y="223.0669">playedGames</text><text fill="#000000" font-family="sans-serif" font-size="13" lengthAdjust="spacing" textLength="8.271" x="1037.6835" y="49.1852">1</text><text fill="#000000" font-family="sans-serif" font-size="13" lengthAdjust="spacing" textLength="6.5" x="1181.2628" y="420.0071">*</text></g><!--reverse link DestroyBlock to HallOfFameEntry--><g class="link" data-entity-1="DestroyBlock" data-entity-2="HallOfFameEntry" data-source-line="79" data-uid="lnk22" id="link_DestroyBlock_HallOfFameEntry"><path codeLine="79" d="M1026.3563,61.2556 C1040.6363,69.4556 1045.27,73.54 1057.4,85 C1151.89,174.24 1234.77,239.85 1172.4,353.89 C1168.02,361.89 1077.13,418.36 1017.26,454.98" fill="none" id="DestroyBlock-backto-HallOfFameEntry" style="stroke:#181818;stroke-width:1;"/><polygon fill="#181818" points="1015.95,55.28,1019.1613,61.7366,1026.3563,61.2556,1023.145,54.799,1015.95,55.28" style="stroke:#181818;stroke-width:1;"/><text fill="#000000" font-family="sans-serif" font-size="13" lengthAdjust="spacing" textLength="45.062" x="1182.4" y="223.0669">entries</text><text fill="#000000" font-family="sans-serif" font-size="13" lengthAdjust="spacing" textLength="8.271" x="1018.8436" y="75.1095">1</text><text fill="#000000" font-family="sans-serif" font-size="13" lengthAdjust="spacing" textLength="6.5" x="1020.9299" y="444.1853">*</text></g><!--reverse link Game to Block--><g class="link" data-entity-1="Game" data-entity-2="Block" data-source-line="81" data-uid="lnk23" id="link_Game_Block"><path codeLine="81" d="M777.2468,365.8981 C774.0268,381.0581 775.52,386 780.4,400.89 C785.54,416.6 796.64,415.39 802.4,430.89 C850.07,559.21 848.55,722.4 843.07,810.89" fill="none" id="Game-backto-Block" style="stroke:#181818;stroke-width:1;"/><polygon fill="#181818" points="779.74,354.16,774.5807,359.198,777.2468,365.8981,782.4061,360.8601,779.74,354.16" style="stroke:#181818;stroke-width:1;"/><text fill="#000000" font-family="sans-serif" font-size="13" lengthAdjust="spacing" textLength="41.2661" x="839.4" y="587.1369">blocks</text><text fill="#000000" font-family="sans-serif" font-size="13" lengthAdjust="spacing" textLength="8.271" x="768.8475" y="373.7897">1</text><text fill="#000000" font-family="sans-serif" font-size="13" lengthAdjust="spacing" textLength="6.5" x="837.3894" y="800.0222">*</text></g><!--reverse link Game to Paddle--><g class="link" data-entity-1="Game" data-entity-2="Paddle" data-source-line="82" data-uid="lnk24" id="link_Game_Paddle"><path codeLine="82" d="M709.0351,350.947 C703.1451,353.737 708.12,351.32 702.4,353.89 C669.64,368.59 660.24,369.38 627.4,383.89 C583.57,403.24 572.81,408.61 530.4,430.89 C520.87,435.89 510.92,441.31 501.15,446.73" fill="none" id="Game-backto-Paddle" style="stroke:#181818;stroke-width:1;"/><polygon fill="#181818" points="719.88,345.81,712.7452,344.7636,709.0351,350.947,716.1699,351.9935,719.88,345.81" style="stroke:#181818;stroke-width:1;"/><text fill="#000000" font-family="sans-serif" font-size="13" lengthAdjust="spacing" textLength="44.332" x="628.4" y="396.9569">paddle</text><text fill="#000000" font-family="sans-serif" font-size="13" lengthAdjust="spacing" textLength="8.271" x="703.8269" y="368.3618">1</text><text fill="#000000" font-family="sans-serif" font-size="13" lengthAdjust="spacing" textLength="8.271" x="503.4914" y="436.1181">1</text></g><!--reverse link Game to Ball--><g class="link" data-entity-1="Game" data-entity-2="Ball" data-source-line="83" data-uid="lnk25" id="link_Game_Ball"><path codeLine="83" d="M710.4901,358.8624 C698.9401,368.3824 697.48,371.67 689.4,383.89 C678.72,400.02 672.94,420.38 669.83,438.71" fill="none" id="Game-backto-Ball" style="stroke:#181818;stroke-width:1;"/><polygon fill="#181818" points="719.75,351.23,712.5759,351.9596,710.4901,358.8624,717.6642,358.1329,719.75,351.23" style="stroke:#181818;stroke-width:1;"/><text fill="#000000" font-family="sans-serif" font-size="13" lengthAdjust="spacing" textLength="23.4419" x="690.4" y="396.9569">ball</text><text fill="#000000" font-family="sans-serif" font-size="13" lengthAdjust="spacing" textLength="8.271" x="703.9806" y="368.3819">1</text><text fill="#000000" font-family="sans-serif" font-size="13" lengthAdjust="spacing" textLength="8.271" x="661.7695" y="427.8725">1</text></g><!--reverse link Game to Level--><g class="link" data-entity-1="Game" data-entity-2="Level" data-source-line="84" data-uid="lnk26" id="link_Game_Level"><path codeLine="84" d="M708.7669,351.9005 C702.9369,354.3205 708.16,351.95 702.4,353.89 C634.24,376.84 613.82,369.33 543.4,383.89 C450.16,403.16 422.37,394.49 334.4,430.89 C319.03,437.24 303.35,446.21 289.56,455.09" fill="none" id="Game-backto-Level" style="stroke:#181818;stroke-width:1;"/><polygon fill="#181818" points="719.85,347.3,712.7749,345.9059,708.7669,351.9005,715.842,353.2946,719.85,347.3" style="stroke:#181818;stroke-width:1;"/><text fill="#000000" font-family="sans-serif" font-size="13" lengthAdjust="spacing" textLength="37.686" x="544.4" y="396.9569">levels</text><text fill="#000000" font-family="sans-serif" font-size="13" lengthAdjust="spacing" textLength="8.271" x="703.8357" y="364.2318">1</text><text fill="#000000" font-family="sans-serif" font-size="13" lengthAdjust="spacing" textLength="33.0776" x="261.8167" y="444.3169">1..99</text></g><!--reverse link Game to BlockAssignment--><g class="link" data-entity-1="Game" data-entity-2="BlockAssignment" data-source-line="85" data-uid="lnk27" id="link_Game_BlockAssignment"><path codeLine="85" d="M708.5574,352.2631 C702.7774,354.5131 708.14,352.19 702.4,353.89 C560.15,395.89 137.87,319.97 39.4,430.89 C6,468.51 15.25,499.94 39.4,544.07 C63.51,588.16 109.24,619.75 151.59,641" fill="none" id="Game-backto-BlockAssignment" style="stroke:#181818;stroke-width:1;"/><polygon fill="#181818" points="719.74,347.91,712.6977,346.359,708.5574,352.2631,715.5997,353.8141,719.74,347.91" style="stroke:#181818;stroke-width:1;"/><text fill="#000000" font-family="sans-serif" font-size="13" lengthAdjust="spacing" textLength="117.8062" x="40.4" y="492.0469">blockAssignments</text><text fill="#000000" font-family="sans-serif" font-size="13" lengthAdjust="spacing" textLength="8.271" x="703.9696" y="348.3158">1</text><text fill="#000000" font-family="sans-serif" font-size="13" lengthAdjust="spacing" textLength="6.5" x="137.5111" y="634.4148">*</text></g><!--link Game to HallOfFameEntry--><g class="link" data-entity-1="Game" data-entity-2="HallOfFameEntry" data-source-line="86" data-uid="lnk28" id="link_Game_HallOfFameEntry"><path codeLine="86" d="M786.06,354.09 C784.82,370.08 786.53,387.28 795.4,400.89 C813.43,428.56 833.76,416.3 863.4,430.89 C878.51,438.32 889.3405,443.9509 904.1805,452.0309" fill="none" id="Game-to-HallOfFameEntry" style="stroke:#181818;stroke-width:1;"/><polygon fill="#181818" points="909.45,454.9,903.4584,447.0833,905.0587,452.5091,899.6329,454.1093,909.45,454.9" style="stroke:#181818;stroke-width:1;"/><text fill="#000000" font-family="sans-serif" font-size="13" lengthAdjust="spacing" textLength="112.5884" x="796.4" y="396.9569">mostRecentEntry</text><text fill="#000000" font-family="sans-serif" font-size="13" lengthAdjust="spacing" textLength="8.271" x="785.0467" y="374.0616">1</text><text fill="#000000" font-family="sans-serif" font-size="13" lengthAdjust="spacing" textLength="24.8066" x="872.5753" y="444.3396">0..1</text></g><!--link HallOfFameEntry to Game--><g class="link" data-entity-1="HallOfFameEntry" data-entity-2="Game" data-source-line="105" data-uid="lnk40" id="link_HallOfFameEntry_Game"><path codeLine="105" d="M954.47,455.26 C945.76,433.52 931.95,404.8 913.4,383.89 C902.31,371.39 888.77,360 874.91,350.03" fill="none" id="HallOfFameEntry-Game" style="stroke:#181818;stroke-width:1;"/><text fill="#000000" font-family="sans-serif" font-size="13" lengthAdjust="spacing" textLength="6.5" x="945.65" y="444.1487">*</text><text fill="#000000" font-family="sans-serif" font-size="13" lengthAdjust="spacing" textLength="8.271" x="882.6917" y="367.0675">1</text></g><!--link Game to PlayedGame--><g class="link" data-entity-1="Game" data-entity-2="PlayedGame" data-source-line="87" data-uid="lnk29" id="link_Game_PlayedGame"><path codeLine="87" d="M875.09,339.36 C927.94,362.73 998.81,396.05 1058.4,430.89 C1064.04,434.19 1069.8,437.77 1075.51,441.48" fill="none" id="Game-PlayedGame" style="stroke:#181818;stroke-width:1;"/><text fill="#000000" font-family="sans-serif" font-size="13" lengthAdjust="spacing" textLength="36.8799" x="1003.4" y="396.9569">game</text><text fill="#000000" font-family="sans-serif" font-size="13" lengthAdjust="spacing" textLength="8.271" x="882.6332" y="338.8681">1</text><text fill="#000000" font-family="sans-serif" font-size="13" lengthAdjust="spacing" textLength="6.5" x="1061.2279" y="431.7002">*</text></g><!--link Level to BlockAssignment--><g class="link" data-entity-1="Level" data-entity-2="BlockAssignment" data-source-line="89" data-uid="lnk30" id="link_Level_BlockAssignment"><path codeLine="89" d="M246.4,519.98 C246.4,552.1 246.4,602.04 246.4,636.87" fill="none" id="Level-BlockAssignment" style="stroke:#181818;stroke-width:1;"/><text fill="#000000" font-family="sans-serif" font-size="13" lengthAdjust="spacing" textLength="30.9131" x="247.4" y="587.1369">level</text><text fill="#000000" font-family="sans-serif" font-size="13" lengthAdjust="spacing" textLength="8.271" x="237.6637" y="539.6849">1</text><text fill="#000000" font-family="sans-serif" font-size="13" lengthAdjust="spacing" textLength="6.5" x="239.9623" y="626.2502">*</text></g><!--reverse link PlayedGame to PlayedBlockAssignment--><g class="link" data-entity-1="PlayedGame" data-entity-2="PlayedBlockAssignment" data-source-line="91" data-uid="lnk31" id="link_PlayedGame_PlayedBlockAssignment"><path codeLine="91" d="M1068.0333,553.0774 C1047.1833,575.1174 1033.78,593.13 1019.4,621.07 C983.39,691.04 942.32,923.64 926.79,1017.38" fill="none" id="PlayedGame-backto-PlayedBlockAssignment" style="stroke:#181818;stroke-width:1;"/><polygon fill="#181818" points="1076.28,544.36,1069.2509,545.9698,1068.0333,553.0774,1075.0624,551.4676,1076.28,544.36" style="stroke:#181818;stroke-width:1;"/><text fill="#000000" font-family="sans-serif" font-size="13" lengthAdjust="spacing" textLength="41.2661" x="975.4" y="777.3269">blocks</text><text fill="#000000" font-family="sans-serif" font-size="13" lengthAdjust="spacing" textLength="8.271" x="1059.5476" y="548.0708">1</text><text fill="#000000" font-family="sans-serif" font-size="13" lengthAdjust="spacing" textLength="6.5" x="921.3711" y="1006.7809">*</text></g><!--reverse link PlayedGame to PlayedPaddle--><g class="link" data-entity-1="PlayedGame" data-entity-2="PlayedPaddle" data-source-line="92" data-uid="lnk32" id="link_PlayedGame_PlayedPaddle"><path codeLine="92" d="M1206.551,552.5874 C1235.541,579.4574 1261.11,603.17 1288.85,628.88" fill="none" id="PlayedGame-backto-PlayedPaddle" style="stroke:#181818;stroke-width:1;"/><polygon fill="#181818" points="1197.75,544.43,1199.4314,551.4423,1206.551,552.5874,1204.8696,545.575,1197.75,544.43" style="stroke:#181818;stroke-width:1;"/><text fill="#000000" font-family="sans-serif" font-size="13" lengthAdjust="spacing" textLength="8.271" x="1196.2811" y="563.9562">1</text><text fill="#000000" font-family="sans-serif" font-size="13" lengthAdjust="spacing" textLength="8.271" x="1273.0576" y="618.0411">1</text></g><!--reverse link PlayedGame to PlayedBall--><g class="link" data-entity-1="PlayedGame" data-entity-2="PlayedBall" data-source-line="93" data-uid="lnk33" id="link_PlayedGame_PlayedBall"><path codeLine="93" d="M1130.5442,556.3693 C1128.1142,580.4293 1126.49,596.54 1124.06,620.61" fill="none" id="PlayedGame-backto-PlayedBall" style="stroke:#181818;stroke-width:1;"/><polygon fill="#181818" points="1131.75,544.43,1127.1673,549.9977,1130.5442,556.3693,1135.1268,550.8016,1131.75,544.43" style="stroke:#181818;stroke-width:1;"/><text fill="#000000" font-family="sans-serif" font-size="13" lengthAdjust="spacing" textLength="8.271" x="1122.6498" y="563.9562">1</text><text fill="#000000" font-family="sans-serif" font-size="13" lengthAdjust="spacing" textLength="8.271" x="1116.2792" y="609.8175">1</text></g><!--link Player to User--><g class="link" data-entity-1="Player" data-entity-2="User" data-source-line="95" data-uid="lnk34" id="link_Player_User"><path codeLine="95" d="M988.35,170.81 C979.53,173.92 970.16,177.14 961.4,180 C892.15,202.6 874.22,206.28 804.4,227 C759.1,240.44 745.77,238.25 702.4,257 C696.71,259.45 690.93,262.23 685.21,265.17" fill="none" id="Player-User" style="stroke:#181818;stroke-width:1;"/><text fill="#000000" font-family="sans-serif" font-size="13" lengthAdjust="spacing" textLength="40.8662" x="863.4" y="223.0669">player</text><text fill="#000000" font-family="sans-serif" font-size="13" lengthAdjust="spacing" textLength="8.271" x="972.3614" y="169.283">1</text><text fill="#000000" font-family="sans-serif" font-size="13" lengthAdjust="spacing" textLength="8.271" x="687.5133" y="254.0384">1</text></g><!--link Player to PlayedGame--><g class="link" data-entity-1="Player" data-entity-2="PlayedGame" data-source-line="96" data-uid="lnk35" id="link_Player_PlayedGame"><path codeLine="96" d="M1047.26,180.26 C1063.3,199.46 1084.63,228.15 1096.4,257 C1119.4,313.4 1129.53,382.79 1133.97,430.42" fill="none" id="Player-PlayedGame" style="stroke:#181818;stroke-width:1;"/><text fill="#000000" font-family="sans-serif" font-size="13" lengthAdjust="spacing" textLength="40.8662" x="1123.4" y="310.0069">player</text><text fill="#000000" font-family="sans-serif" font-size="13" lengthAdjust="spacing" textLength="8.271" x="1043.4044" y="200.0846">1</text><text fill="#000000" font-family="sans-serif" font-size="13" lengthAdjust="spacing" textLength="6.5" x="1127.2168" y="419.6263">*</text></g><!--link Player to HallOfFameEntry--><g class="link" data-entity-1="Player" data-entity-2="HallOfFameEntry" data-source-line="97" data-uid="lnk36" id="link_Player_HallOfFameEntry"><path codeLine="97" d="M1032.23,180.34 C1042.19,224.74 1058.98,323.81 1032.4,400.89 C1025.45,421.05 1011.58,440.09 998.25,455.07" fill="none" id="Player-HallOfFameEntry" style="stroke:#181818;stroke-width:1;"/><text fill="#000000" font-family="sans-serif" font-size="13" lengthAdjust="spacing" textLength="40.8662" x="1047.4" y="310.0069">player</text><text fill="#000000" font-family="sans-serif" font-size="13" lengthAdjust="spacing" textLength="8.271" x="1024.7109" y="200.1841">1</text><text fill="#000000" font-family="sans-serif" font-size="13" lengthAdjust="spacing" textLength="6.5" x="998.1773" y="444.293">*</text></g><!--link Admin to User--><g class="link" data-entity-1="Admin" data-entity-2="User" data-source-line="98" data-uid="lnk37" id="link_Admin_User"><path codeLine="98" d="M736.39,180.37 C726.86,189.47 715.98,200.08 706.4,210 C689.38,227.6 671.14,247.7 655.94,264.81" fill="none" id="Admin-User" style="stroke:#181818;stroke-width:1;"/><text fill="#000000" font-family="sans-serif" font-size="13" lengthAdjust="spacing" textLength="40.7329" x="707.4" y="223.0669">admin</text><text fill="#000000" font-family="sans-serif" font-size="13" lengthAdjust="spacing" textLength="24.8066" x="703.469" y="200.2214">0..1</text><text fill="#000000" font-family="sans-serif" font-size="13" lengthAdjust="spacing" textLength="8.271" x="652.8291" y="254.2173">1</text></g><!--link Admin to Game--><g class="link" data-entity-1="Admin" data-entity-2="Game" data-source-line="100" data-uid="lnk38" id="link_Admin_Game"><path codeLine="100" d="M757.24,180.31 C755.56,194.07 754.77,211.73 758.4,227 C760.76,236.96 764.62,247.09 769.02,256.6" fill="none" id="Admin-Game" style="stroke:#181818;stroke-width:1;"/><text fill="#000000" font-family="sans-serif" font-size="13" lengthAdjust="spacing" textLength="40.7329" x="759.4" y="223.0669">admin</text><text fill="#000000" font-family="sans-serif" font-size="13" lengthAdjust="spacing" textLength="8.271" x="747.2859" y="200.1468">1</text><text fill="#000000" font-family="sans-serif" font-size="13" lengthAdjust="spacing" textLength="6.5" x="758.8368" y="246.1044">*</text></g><!--link BlockAssignment to Block--><g class="link" data-entity-1="BlockAssignment" data-entity-2="Block" data-source-line="104" data-uid="lnk39" id="link_BlockAssignment_Block"><path codeLine="104" d="M341.02,710.1 C472.93,753.92 706.23,831.43 798.38,862.04" fill="none" id="BlockAssignment-Block" style="stroke:#181818;stroke-width:1;"/><text fill="#000000" font-family="sans-serif" font-size="13" lengthAdjust="spacing" textLength="6.5" x="348.8193" y="709.159">*</text><text fill="#000000" font-family="sans-serif" font-size="13" lengthAdjust="spacing" textLength="8.271" x="782.2051" y="855.0283">1</text></g><!--link Block to PlayedBlockAssignment--><g class="link" data-entity-1="Block" data-entity-2="PlayedBlockAssignment" data-source-line="107" data-uid="lnk41" id="link_Block_PlayedBlockAssignment"><path codeLine="107" d="M867.01,941.24 C878.74,966.69 891.86,995.14 902.15,1017.47" fill="none" id="Block-PlayedBlockAssignment" style="stroke:#181818;stroke-width:1;"/><text fill="#000000" font-family="sans-serif" font-size="13" lengthAdjust="spacing" textLength="34.4932" x="886.4" y="983.8169">block</text><text fill="#000000" font-family="sans-serif" font-size="13" lengthAdjust="spacing" textLength="8.271" x="861.665" y="960.8148">1</text><text fill="#000000" font-family="sans-serif" font-size="13" lengthAdjust="spacing" textLength="6.5" x="892.6728" y="1006.5852">*</text></g><!--SRC=[ZLHRRziW57xdLo0_LagqFDOFapfrlKYL5dNQb3uIE7LHCLZWTCsg_VS19kPYEriU0fppdU_SJGKn1b-3wRKwVX6AlkAFFmXHB_vXGECFXEtFwhbiyC5A96aXbNKM-ajfXaOxptDb36za2x8F5DpU6itPdTByjv8z4LjbUC-LpDG_GVUS9igHzW7UG0IolL82YCJSF1B9L1jHjpQyFEWnOET2QX-TsOBsV1bRTzWBRbwWp2N9WBFnge4baGF4FFRY43rsolwRoBWbZ0b8A5loFiWUG3RzIvHpcSbZJ4I8r9vB9_dU0R3ThFJ9IvcowG7UdwJtaceW1cu8xPMEz7SMyEtvnbRjg-prCV5agDAGP2B84LXIyA900_pq4lmDpFYY1wtjR0mzA1YJ_9AOhxa6wYPYjwZ9yWmU7DbkGVvKUivwa-CdBPfJxnOr4rVBI_8-tew5aNRBERolc6smtzLiUQjDXIzMArnTLCFwrdvdpJ9g8AenSUSPN0YWnfs_d47wWQXnOuz_yR60xSR76OjoBcjiwwQvDK6U9iKErhNTHBViXTwUeT7MixzC0Nu6QpzUfNAzlhoimjUeniATPY62fByXbYX9R5QhpxZwj5vlvf9ibUaVWLeBBqcjfeLqHKTeY2t1J8FnOIEK64-Riv22cRNQLDaEdSUuwWRdUenpCuxiC6AbVdPevb3J6WReCEkXqhbBF_xeX8XSmLTG8rJMn65E8-DKg7IU06vzS-9W_q-n_m80]--></g></svg>