<svg xmlns="http://www.w3.org/2000/svg" xmlns:xlink="http://www.w3.org/1999/xlink" contentStyleType="text/css" data-diagram-type="CLASS" height="867px" preserveAspectRatio="none" style="width:997px;height:867px;background:#FFFFFF;" version="1.1" viewBox="0 0 997 867" width="997px" zoomAndPan="magnify"><defs/><g><!--class LevelOfTutoring--><g class="entity" data-entity="LevelOfTutoring" data-source-line="1" data-uid="ent0002" id="entity_LevelOfTutoring"><rect fill="#F1F1F1" height="96.8906" rx="2.5" ry="2.5" style="stroke:#181818;stroke-width:0.5;" width="144.0342" x="7" y="23.3"/><ellipse cx="22" cy="39.3" fill="#EB937F" rx="11" ry="11" style="stroke:#181818;stroke-width:1;"/><path d="M26.1094,45.3 L18.3906,45.3 L18.3906,32.9094 L26.1094,32.9094 L26.1094,35.0656 L20.8438,35.0656 L20.8438,37.7375 L25.6094,37.7375 L25.6094,39.8937 L20.8438,39.8937 L20.8438,43.1437 L26.1094,43.1437 L26.1094,45.3 Z " fill="#000000"/><text fill="#000000" font-family="sans-serif" font-size="14" lengthAdjust="spacing" textLength="112.0342" x="36" y="44.1467">LevelOfTutoring</text><line style="stroke:#181818;stroke-width:0.5;" x1="8" x2="150.0342" y1="55.3" y2="55.3"/><text fill="#000000" font-family="sans-serif" font-size="14" lengthAdjust="spacing" textLength="100.8232" x="13" y="72.2951">PrimarySchool</text><text fill="#000000" font-family="sans-serif" font-size="14" lengthAdjust="spacing" textLength="78.6543" x="13" y="88.592">HighSchool</text><text fill="#000000" font-family="sans-serif" font-size="14" lengthAdjust="spacing" textLength="70.6221" x="13" y="104.8889">University</text><line style="stroke:#181818;stroke-width:0.5;" x1="8" x2="150.0342" y1="112.1906" y2="112.1906"/></g><!--class SessionStatus--><g class="entity" data-entity="SessionStatus" data-source-line="6" data-uid="ent0003" id="entity_SessionStatus"><rect fill="#F1F1F1" height="129.4844" rx="2.5" ry="2.5" style="stroke:#181818;stroke-width:0.5;" width="130.0273" x="186" y="7"/><ellipse cx="201" cy="23" fill="#EB937F" rx="11" ry="11" style="stroke:#181818;stroke-width:1;"/><path d="M205.1094,29 L197.3906,29 L197.3906,16.6094 L205.1094,16.6094 L205.1094,18.7656 L199.8438,18.7656 L199.8438,21.4375 L204.6094,21.4375 L204.6094,23.5938 L199.8438,23.5938 L199.8438,26.8438 L205.1094,26.8438 L205.1094,29 Z " fill="#000000"/><text fill="#000000" font-family="sans-serif" font-size="14" lengthAdjust="spacing" textLength="98.0273" x="215" y="27.8467">SessionStatus</text><line style="stroke:#181818;stroke-width:0.5;" x1="187" x2="315.0273" y1="39" y2="39"/><text fill="#000000" font-family="sans-serif" font-size="14" lengthAdjust="spacing" textLength="65.0098" x="192" y="55.9951">Proposed</text><text fill="#000000" font-family="sans-serif" font-size="14" lengthAdjust="spacing" textLength="72.9258" x="192" y="72.292">Confirmed</text><text fill="#000000" font-family="sans-serif" font-size="14" lengthAdjust="spacing" textLength="76.3574" x="192" y="88.5889">Completed</text><text fill="#000000" font-family="sans-serif" font-size="14" lengthAdjust="spacing" textLength="29.7979" x="192" y="104.8857">Paid</text><text fill="#000000" font-family="sans-serif" font-size="14" lengthAdjust="spacing" textLength="68.8174" x="192" y="121.1826">Cancelled</text><line style="stroke:#181818;stroke-width:0.5;" x1="187" x2="315.0273" y1="128.4844" y2="128.4844"/></g><!--class PaymentKind--><g class="entity" data-entity="PaymentKind" data-source-line="13" data-uid="ent0004" id="entity_PaymentKind"><rect fill="#F1F1F1" height="80.5938" rx="2.5" ry="2.5" style="stroke:#181818;stroke-width:0.5;" width="124.75" x="16.64" y="197.49"/><ellipse cx="31.64" cy="213.49" fill="#EB937F" rx="11" ry="11" style="stroke:#181818;stroke-width:1;"/><path d="M35.7494,219.49 L28.0306,219.49 L28.0306,207.0994 L35.7494,207.0994 L35.7494,209.2556 L30.4838,209.2556 L30.4838,211.9275 L35.2494,211.9275 L35.2494,214.0838 L30.4838,214.0838 L30.4838,217.3338 L35.7494,217.3338 L35.7494,219.49 Z " fill="#000000"/><text fill="#000000" font-family="sans-serif" font-size="14" lengthAdjust="spacing" textLength="92.75" x="45.64" y="218.3367">PaymentKind</text><line style="stroke:#181818;stroke-width:0.5;" x1="17.64" x2="140.39" y1="229.49" y2="229.49"/><text fill="#000000" font-family="sans-serif" font-size="14" lengthAdjust="spacing" textLength="75.4072" x="22.64" y="246.4851">CreditCard</text><text fill="#000000" font-family="sans-serif" font-size="14" lengthAdjust="spacing" textLength="90.4531" x="22.64" y="262.782">WireTransfer</text><line style="stroke:#181818;stroke-width:0.5;" x1="17.64" x2="140.39" y1="270.0838" y2="270.0838"/></g><!--class OTS--><g class="entity" data-entity="OTS" data-source-line="18" data-uid="ent0005" id="entity_OTS"><rect fill="#F1F1F1" height="48" rx="2.5" ry="2.5" style="stroke:#181818;stroke-width:0.5;" width="60.458" x="529.79" y="47.75"/><ellipse cx="544.79" cy="63.75" fill="#ADD1B2" rx="11" ry="11" style="stroke:#181818;stroke-width:1;"/><path d="M547.7588,69.3906 Q547.1806,69.6875 546.54,69.8281 Q545.8994,69.9844 545.1963,69.9844 Q542.6963,69.9844 541.3681,68.3438 Q540.0556,66.6875 540.0556,63.5625 Q540.0556,60.4375 541.3681,58.7813 Q542.6963,57.125 545.1963,57.125 Q545.8994,57.125 546.54,57.2813 Q547.1963,57.4375 547.7588,57.7344 L547.7588,60.4531 Q547.1338,59.875 546.54,59.6094 Q545.9463,59.3281 545.3213,59.3281 Q543.9775,59.3281 543.29,60.4063 Q542.6025,61.4688 542.6025,63.5625 Q542.6025,65.6563 543.29,66.7344 Q543.9775,67.7969 545.3213,67.7969 Q545.9463,67.7969 546.54,67.5313 Q547.1338,67.25 547.7588,66.6719 L547.7588,69.3906 Z " fill="#000000"/><text fill="#000000" font-family="sans-serif" font-size="14" lengthAdjust="spacing" textLength="28.458" x="558.79" y="68.5967">OTS</text><line style="stroke:#181818;stroke-width:0.5;" x1="530.79" x2="589.248" y1="79.75" y2="79.75"/><line style="stroke:#181818;stroke-width:0.5;" x1="530.79" x2="589.248" y1="87.75" y2="87.75"/></g><!--class User--><g class="entity" data-entity="User" data-source-line="20" data-uid="ent0006" id="entity_User"><rect fill="#F1F1F1" height="80.5938" rx="2.5" ry="2.5" style="stroke:#181818;stroke-width:0.5;" width="96.3418" x="657.85" y="197.49"/><ellipse cx="687.4442" cy="213.49" fill="#ADD1B2" rx="11" ry="11" style="stroke:#181818;stroke-width:1;"/><path d="M690.413,219.1306 Q689.8349,219.4275 689.1942,219.5681 Q688.5536,219.7244 687.8505,219.7244 Q685.3505,219.7244 684.0224,218.0838 Q682.7099,216.4275 682.7099,213.3025 Q682.7099,210.1775 684.0224,208.5213 Q685.3505,206.865 687.8505,206.865 Q688.5536,206.865 689.1942,207.0213 Q689.8505,207.1775 690.413,207.4744 L690.413,210.1931 Q689.788,209.615 689.1942,209.3494 Q688.6005,209.0681 687.9755,209.0681 Q686.6317,209.0681 685.9442,210.1463 Q685.2567,211.2088 685.2567,213.3025 Q685.2567,215.3963 685.9442,216.4744 Q686.6317,217.5369 687.9755,217.5369 Q688.6005,217.5369 689.1942,217.2713 Q689.788,216.99 690.413,216.4119 L690.413,219.1306 Z " fill="#000000"/><text fill="#000000" font-family="sans-serif" font-size="14" lengthAdjust="spacing" textLength="31.9102" x="704.6874" y="218.3367">User</text><line style="stroke:#181818;stroke-width:0.5;" x1="658.85" x2="753.1918" y1="229.49" y2="229.49"/><text fill="#000000" font-family="sans-serif" font-size="14" lengthAdjust="spacing" textLength="84.3418" x="663.85" y="246.4851">string name</text><text fill="#000000" font-family="sans-serif" font-size="14" lengthAdjust="spacing" textLength="83.248" x="663.85" y="262.782">string email</text><line style="stroke:#181818;stroke-width:0.5;" x1="658.85" x2="753.1918" y1="270.0838" y2="270.0838"/></g><!--class BestTutorAward--><g class="entity" data-entity="BestTutorAward" data-source-line="25" data-uid="ent0007" id="entity_BestTutorAward"><rect fill="#F1F1F1" height="80.5938" rx="2.5" ry="2.5" style="stroke:#181818;stroke-width:0.5;" width="144.4854" x="96.77" y="355.08"/><ellipse cx="111.77" cy="371.08" fill="#ADD1B2" rx="11" ry="11" style="stroke:#181818;stroke-width:1;"/><path d="M114.7388,376.7206 Q114.1606,377.0175 113.52,377.1581 Q112.8794,377.3144 112.1763,377.3144 Q109.6763,377.3144 108.3481,375.6738 Q107.0356,374.0175 107.0356,370.8925 Q107.0356,367.7675 108.3481,366.1113 Q109.6763,364.455 112.1763,364.455 Q112.8794,364.455 113.52,364.6113 Q114.1763,364.7675 114.7388,365.0644 L114.7388,367.7831 Q114.1138,367.205 113.52,366.9394 Q112.9263,366.6581 112.3013,366.6581 Q110.9575,366.6581 110.27,367.7363 Q109.5825,368.7988 109.5825,370.8925 Q109.5825,372.9863 110.27,374.0644 Q110.9575,375.1269 112.3013,375.1269 Q112.9263,375.1269 113.52,374.8613 Q114.1138,374.58 114.7388,374.0019 L114.7388,376.7206 Z " fill="#000000"/><text fill="#000000" font-family="sans-serif" font-size="14" lengthAdjust="spacing" textLength="112.4854" x="125.77" y="375.9267">BestTutorAward</text><line style="stroke:#181818;stroke-width:0.5;" x1="97.77" x2="240.2554" y1="387.08" y2="387.08"/><text fill="#000000" font-family="sans-serif" font-size="14" lengthAdjust="spacing" textLength="53.9355" x="102.77" y="404.0751">int year</text><text fill="#000000" font-family="sans-serif" font-size="14" lengthAdjust="spacing" textLength="68.1406" x="102.77" y="420.372">int month</text><line style="stroke:#181818;stroke-width:0.5;" x1="97.77" x2="240.2554" y1="427.6738" y2="427.6738"/></g><!--class Tutor--><g class="entity" data-entity="Tutor" data-source-line="30" data-uid="ent0008" id="entity_Tutor"><rect fill="#F1F1F1" height="64.2969" rx="2.5" ry="2.5" style="stroke:#181818;stroke-width:0.5;" width="147.8574" x="300.09" y="205.64"/><ellipse cx="351.151" cy="221.64" fill="#ADD1B2" rx="11" ry="11" style="stroke:#181818;stroke-width:1;"/><path d="M354.1198,227.2806 Q353.5417,227.5775 352.901,227.7181 Q352.2604,227.8744 351.5573,227.8744 Q349.0573,227.8744 347.7292,226.2338 Q346.4167,224.5775 346.4167,221.4525 Q346.4167,218.3275 347.7292,216.6713 Q349.0573,215.015 351.5573,215.015 Q352.2604,215.015 352.901,215.1713 Q353.5573,215.3275 354.1198,215.6244 L354.1198,218.3431 Q353.4948,217.765 352.901,217.4994 Q352.3073,217.2181 351.6823,217.2181 Q350.3385,217.2181 349.651,218.2963 Q348.9635,219.3588 348.9635,221.4525 Q348.9635,223.5463 349.651,224.6244 Q350.3385,225.6869 351.6823,225.6869 Q352.3073,225.6869 352.901,225.4213 Q353.4948,225.14 354.1198,224.5619 L354.1198,227.2806 Z " fill="#000000"/><text fill="#000000" font-family="sans-serif" font-size="14" lengthAdjust="spacing" textLength="37.2354" x="371.651" y="226.4867">Tutor</text><line style="stroke:#181818;stroke-width:0.5;" x1="301.09" x2="446.9474" y1="237.64" y2="237.64"/><text fill="#000000" font-family="sans-serif" font-size="14" lengthAdjust="spacing" textLength="135.8574" x="306.09" y="254.6351">string bankAccount</text><line style="stroke:#181818;stroke-width:0.5;" x1="301.09" x2="446.9474" y1="261.9369" y2="261.9369"/></g><!--class TutoringOffer--><g class="entity" data-entity="TutoringOffer" data-source-line="34" data-uid="ent0009" id="entity_TutoringOffer"><rect fill="#F1F1F1" height="64.2969" rx="2.5" ry="2.5" style="stroke:#181818;stroke-width:0.5;" width="126.543" x="456.75" y="363.23"/><ellipse cx="471.9354" cy="379.23" fill="#ADD1B2" rx="11" ry="11" style="stroke:#181818;stroke-width:1;"/><path d="M474.9042,384.8706 Q474.3261,385.1675 473.6854,385.3081 Q473.0448,385.4644 472.3417,385.4644 Q469.8417,385.4644 468.5136,383.8237 Q467.2011,382.1675 467.2011,379.0425 Q467.2011,375.9175 468.5136,374.2612 Q469.8417,372.605 472.3417,372.605 Q473.0448,372.605 473.6854,372.7612 Q474.3417,372.9175 474.9042,373.2144 L474.9042,375.9331 Q474.2792,375.355 473.6854,375.0894 Q473.0917,374.8081 472.4667,374.8081 Q471.1229,374.8081 470.4354,375.8862 Q469.7479,376.9487 469.7479,379.0425 Q469.7479,381.1362 470.4354,382.2144 Q471.1229,383.2769 472.4667,383.2769 Q473.0917,383.2769 473.6854,383.0112 Q474.2792,382.73 474.9042,382.1519 L474.9042,384.8706 Z " fill="#000000"/><text fill="#000000" font-family="sans-serif" font-size="14" lengthAdjust="spacing" textLength="94.1309" x="485.9767" y="384.0767">TutoringOffer</text><line style="stroke:#181818;stroke-width:0.5;" x1="457.75" x2="582.293" y1="395.23" y2="395.23"/><text fill="#000000" font-family="sans-serif" font-size="14" lengthAdjust="spacing" textLength="114.543" x="462.75" y="412.2251">float hourlyPrice</text><line style="stroke:#181818;stroke-width:0.5;" x1="457.75" x2="582.293" y1="419.5269" y2="419.5269"/></g><!--class Subject--><g class="entity" data-entity="Subject" data-source-line="38" data-uid="ent0010" id="entity_Subject"><rect fill="#F1F1F1" height="64.2969" rx="2.5" ry="2.5" style="stroke:#181818;stroke-width:0.5;" width="96.3418" x="511.85" y="205.64"/><ellipse cx="532.2526" cy="221.64" fill="#ADD1B2" rx="11" ry="11" style="stroke:#181818;stroke-width:1;"/><path d="M535.2214,227.2806 Q534.6433,227.5775 534.0026,227.7181 Q533.362,227.8744 532.6589,227.8744 Q530.1589,227.8744 528.8308,226.2338 Q527.5183,224.5775 527.5183,221.4525 Q527.5183,218.3275 528.8308,216.6713 Q530.1589,215.015 532.6589,215.015 Q533.362,215.015 534.0026,215.1713 Q534.6589,215.3275 535.2214,215.6244 L535.2214,218.3431 Q534.5964,217.765 534.0026,217.4994 Q533.4089,217.2181 532.7839,217.2181 Q531.4401,217.2181 530.7526,218.2963 Q530.0651,219.3588 530.0651,221.4525 Q530.0651,223.5463 530.7526,224.6244 Q531.4401,225.6869 532.7839,225.6869 Q533.4089,225.6869 534.0026,225.4213 Q534.5964,225.14 535.2214,224.5619 L535.2214,227.2806 Z " fill="#000000"/><text fill="#000000" font-family="sans-serif" font-size="14" lengthAdjust="spacing" textLength="52.3359" x="547.4532" y="226.4867">Subject</text><line style="stroke:#181818;stroke-width:0.5;" x1="512.85" x2="607.1918" y1="237.64" y2="237.64"/><text fill="#000000" font-family="sans-serif" font-size="14" lengthAdjust="spacing" textLength="84.3418" x="517.85" y="254.6351">string name</text><line style="stroke:#181818;stroke-width:0.5;" x1="512.85" x2="607.1918" y1="261.9369" y2="261.9369"/></g><!--class TutorAvailability--><g class="entity" data-entity="TutorAvailability" data-source-line="42" data-uid="ent0011" id="entity_TutorAvailability"><rect fill="#F1F1F1" height="80.5938" rx="2.5" ry="2.5" style="stroke:#181818;stroke-width:0.5;" width="146.3652" x="275.83" y="355.08"/><ellipse cx="290.83" cy="371.08" fill="#ADD1B2" rx="11" ry="11" style="stroke:#181818;stroke-width:1;"/><path d="M293.7988,376.7206 Q293.2206,377.0175 292.58,377.1581 Q291.9394,377.3144 291.2363,377.3144 Q288.7363,377.3144 287.4081,375.6738 Q286.0956,374.0175 286.0956,370.8925 Q286.0956,367.7675 287.4081,366.1113 Q288.7363,364.455 291.2363,364.455 Q291.9394,364.455 292.58,364.6113 Q293.2363,364.7675 293.7988,365.0644 L293.7988,367.7831 Q293.1738,367.205 292.58,366.9394 Q291.9863,366.6581 291.3613,366.6581 Q290.0175,366.6581 289.33,367.7363 Q288.6425,368.7988 288.6425,370.8925 Q288.6425,372.9863 289.33,374.0644 Q290.0175,375.1269 291.3613,375.1269 Q291.9863,375.1269 292.58,374.8613 Q293.1738,374.58 293.7988,374.0019 L293.7988,376.7206 Z " fill="#000000"/><text fill="#000000" font-family="sans-serif" font-size="14" lengthAdjust="spacing" textLength="114.3652" x="304.83" y="375.9267">TutorAvailability</text><line style="stroke:#181818;stroke-width:0.5;" x1="276.83" x2="421.1952" y1="387.08" y2="387.08"/><text fill="#000000" font-family="sans-serif" font-size="14" lengthAdjust="spacing" textLength="105.2119" x="281.83" y="404.0751">Date startTime</text><text fill="#000000" font-family="sans-serif" font-size="14" lengthAdjust="spacing" textLength="100.208" x="281.83" y="420.372">Time endTime</text><line style="stroke:#181818;stroke-width:0.5;" x1="276.83" x2="421.1952" y1="427.6738" y2="427.6738"/></g><!--class TutoringRole--><g class="entity" data-entity="TutoringRole" data-source-line="47" data-uid="ent0012" id="entity_TutoringRole"><rect fill="#F1F1F1" height="48" rx="2.5" ry="2.5" style="stroke:#181818;stroke-width:0.5;" width="121.6807" x="689.18" y="371.38"/><ellipse cx="704.18" cy="387.38" fill="#A9DCDF" rx="11" ry="11" style="stroke:#181818;stroke-width:1;"/><path d="M704.2894,382.7238 L703.1331,387.8019 L705.4613,387.8019 L704.2894,382.7238 Z M702.805,380.4894 L705.7894,380.4894 L709.1488,392.88 L706.6956,392.88 L705.93,389.8175 L702.6488,389.8175 L701.8988,392.88 L699.4613,392.88 L702.805,380.4894 Z " fill="#000000"/><text fill="#000000" font-family="sans-serif" font-size="14" font-style="italic" lengthAdjust="spacing" textLength="89.6807" x="718.18" y="392.2267">TutoringRole</text><line style="stroke:#181818;stroke-width:0.5;" x1="690.18" x2="809.8607" y1="403.38" y2="403.38"/><line style="stroke:#181818;stroke-width:0.5;" x1="690.18" x2="809.8607" y1="411.38" y2="411.38"/></g><!--class TutoringElement--><g class="entity" data-entity="TutoringElement" data-source-line="48" data-uid="ent0013" id="entity_TutoringElement"><rect fill="#F1F1F1" height="64.2969" rx="2.5" ry="2.5" style="stroke:#181818;stroke-width:0.5;" width="221.5078" x="397.26" y="637.97"/><ellipse cx="445.3406" cy="653.97" fill="#A9DCDF" rx="11" ry="11" style="stroke:#181818;stroke-width:1;"/><path d="M445.4499,649.3137 L444.2937,654.3919 L446.6218,654.3919 L445.4499,649.3137 Z M443.9656,647.0794 L446.9499,647.0794 L450.3093,659.47 L447.8562,659.47 L447.0906,656.4075 L443.8093,656.4075 L443.0593,659.47 L440.6218,659.47 L443.9656,647.0794 Z " fill="#000000"/><text fill="#000000" font-family="sans-serif" font-size="14" font-style="italic" lengthAdjust="spacing" textLength="116.8467" x="465.8406" y="658.8167">TutoringElement</text><line style="stroke:#181818;stroke-width:0.5;" x1="398.26" x2="617.7678" y1="669.97" y2="669.97"/><text fill="#000000" font-family="sans-serif" font-size="14" lengthAdjust="spacing" textLength="209.5078" x="403.26" y="686.9651">LevelOfTutoring tutoringLevel</text><line style="stroke:#181818;stroke-width:0.5;" x1="398.26" x2="617.7678" y1="694.2669" y2="694.2669"/></g><!--class Student--><g class="entity" data-entity="Student" data-source-line="52" data-uid="ent0014" id="entity_Student"><rect fill="#F1F1F1" height="48" rx="2.5" ry="2.5" style="stroke:#181818;stroke-width:0.5;" width="87.1113" x="796.46" y="213.78"/><ellipse cx="811.46" cy="229.78" fill="#ADD1B2" rx="11" ry="11" style="stroke:#181818;stroke-width:1;"/><path d="M814.4288,235.4206 Q813.8506,235.7175 813.21,235.8581 Q812.5694,236.0144 811.8663,236.0144 Q809.3663,236.0144 808.0381,234.3737 Q806.7256,232.7175 806.7256,229.5925 Q806.7256,226.4675 808.0381,224.8112 Q809.3663,223.155 811.8663,223.155 Q812.5694,223.155 813.21,223.3112 Q813.8663,223.4675 814.4288,223.7644 L814.4288,226.4831 Q813.8038,225.905 813.21,225.6394 Q812.6163,225.3581 811.9913,225.3581 Q810.6475,225.3581 809.96,226.4362 Q809.2725,227.4987 809.2725,229.5925 Q809.2725,231.6862 809.96,232.7644 Q810.6475,233.8269 811.9913,233.8269 Q812.6163,233.8269 813.21,233.5612 Q813.8038,233.28 814.4288,232.7019 L814.4288,235.4206 Z " fill="#000000"/><text fill="#000000" font-family="sans-serif" font-size="14" lengthAdjust="spacing" textLength="55.1113" x="825.46" y="234.6267">Student</text><line style="stroke:#181818;stroke-width:0.5;" x1="797.46" x2="882.5713" y1="245.78" y2="245.78"/><line style="stroke:#181818;stroke-width:0.5;" x1="797.46" x2="882.5713" y1="253.78" y2="253.78"/></g><!--class TutoringRequest--><g class="entity" data-entity="TutoringRequest" data-source-line="53" data-uid="ent0015" id="entity_TutoringRequest"><rect fill="#F1F1F1" height="48" rx="2.5" ry="2.5" style="stroke:#181818;stroke-width:0.5;" width="148.3818" x="568.83" y="496.68"/><ellipse cx="583.83" cy="512.68" fill="#ADD1B2" rx="11" ry="11" style="stroke:#181818;stroke-width:1;"/><path d="M586.7988,518.3206 Q586.2206,518.6175 585.58,518.7581 Q584.9394,518.9144 584.2363,518.9144 Q581.7363,518.9144 580.4081,517.2738 Q579.0956,515.6175 579.0956,512.4925 Q579.0956,509.3675 580.4081,507.7112 Q581.7363,506.055 584.2363,506.055 Q584.9394,506.055 585.58,506.2112 Q586.2363,506.3675 586.7988,506.6644 L586.7988,509.3831 Q586.1738,508.805 585.58,508.5394 Q584.9863,508.2581 584.3613,508.2581 Q583.0175,508.2581 582.33,509.3362 Q581.6425,510.3987 581.6425,512.4925 Q581.6425,514.5863 582.33,515.6644 Q583.0175,516.7269 584.3613,516.7269 Q584.9863,516.7269 585.58,516.4613 Q586.1738,516.18 586.7988,515.6019 L586.7988,518.3206 Z " fill="#000000"/><text fill="#000000" font-family="sans-serif" font-size="14" lengthAdjust="spacing" textLength="116.3818" x="597.83" y="517.5267">TutoringRequest</text><line style="stroke:#181818;stroke-width:0.5;" x1="569.83" x2="716.2118" y1="528.68" y2="528.68"/><line style="stroke:#181818;stroke-width:0.5;" x1="569.83" x2="716.2118" y1="536.68" y2="536.68"/></g><!--class TutoringSession--><g class="entity" data-entity="TutoringSession" data-source-line="54" data-uid="ent0016" id="entity_TutoringSession"><rect fill="#F1F1F1" height="96.8906" rx="2.5" ry="2.5" style="stroke:#181818;stroke-width:0.5;" width="210.9121" x="653.56" y="621.68"/><ellipse cx="698.6157" cy="637.68" fill="#ADD1B2" rx="11" ry="11" style="stroke:#181818;stroke-width:1;"/><path d="M701.5844,643.3206 Q701.0063,643.6175 700.3657,643.7581 Q699.725,643.9144 699.0219,643.9144 Q696.5219,643.9144 695.1938,642.2738 Q693.8813,640.6175 693.8813,637.4925 Q693.8813,634.3675 695.1938,632.7113 Q696.5219,631.055 699.0219,631.055 Q699.725,631.055 700.3657,631.2113 Q701.0219,631.3675 701.5844,631.6644 L701.5844,634.3831 Q700.9594,633.805 700.3657,633.5394 Q699.7719,633.2581 699.1469,633.2581 Q697.8032,633.2581 697.1157,634.3363 Q696.4282,635.3988 696.4282,637.4925 Q696.4282,639.5863 697.1157,640.6644 Q697.8032,641.7269 699.1469,641.7269 Q699.7719,641.7269 700.3657,641.4613 Q700.9594,641.18 701.5844,640.6019 L701.5844,643.3206 Z " fill="#000000"/><text fill="#000000" font-family="sans-serif" font-size="14" lengthAdjust="spacing" textLength="112.3008" x="719.1157" y="642.5267">TutoringSession</text><line style="stroke:#181818;stroke-width:0.5;" x1="654.56" x2="863.4721" y1="653.68" y2="653.68"/><text fill="#000000" font-family="sans-serif" font-size="14" lengthAdjust="spacing" textLength="123.1973" x="659.56" y="670.6751">Date sessionDate</text><text fill="#000000" font-family="sans-serif" font-size="14" lengthAdjust="spacing" textLength="102.3135" x="659.56" y="686.972">float totalPrice</text><text fill="#000000" font-family="sans-serif" font-size="14" lengthAdjust="spacing" textLength="198.9121" x="659.56" y="703.2689">SessionStatus sessionStatus</text><line style="stroke:#181818;stroke-width:0.5;" x1="654.56" x2="863.4721" y1="710.5706" y2="710.5706"/></g><!--class Payment--><g class="entity" data-entity="Payment" data-source-line="59" data-uid="ent0017" id="entity_Payment"><rect fill="#F1F1F1" height="80.5938" rx="2.5" ry="2.5" style="stroke:#181818;stroke-width:0.5;" width="207.5762" x="655.23" y="779.57"/><ellipse cx="723.8081" cy="795.57" fill="#ADD1B2" rx="11" ry="11" style="stroke:#181818;stroke-width:1;"/><path d="M726.7769,801.2106 Q726.1988,801.5075 725.5581,801.6481 Q724.9175,801.8044 724.2144,801.8044 Q721.7144,801.8044 720.3863,800.1637 Q719.0738,798.5075 719.0738,795.3825 Q719.0738,792.2575 720.3863,790.6012 Q721.7144,788.945 724.2144,788.945 Q724.9175,788.945 725.5581,789.1012 Q726.2144,789.2575 726.7769,789.5544 L726.7769,792.2731 Q726.1519,791.695 725.5581,791.4294 Q724.9644,791.1481 724.3394,791.1481 Q722.9956,791.1481 722.3081,792.2262 Q721.6206,793.2887 721.6206,795.3825 Q721.6206,797.4762 722.3081,798.5544 Q722.9956,799.6169 724.3394,799.6169 Q724.9644,799.6169 725.5581,799.3512 Q726.1519,799.07 726.7769,798.4919 L726.7769,801.2106 Z " fill="#000000"/><text fill="#000000" font-family="sans-serif" font-size="14" lengthAdjust="spacing" textLength="61.9199" x="744.3081" y="800.4167">Payment</text><line style="stroke:#181818;stroke-width:0.5;" x1="656.23" x2="861.8062" y1="811.57" y2="811.57"/><text fill="#000000" font-family="sans-serif" font-size="14" lengthAdjust="spacing" textLength="195.5762" x="661.23" y="828.5651">PaymentKind paymentForm</text><text fill="#000000" font-family="sans-serif" font-size="14" lengthAdjust="spacing" textLength="131.8447" x="661.23" y="844.862">date paymentDate</text><line style="stroke:#181818;stroke-width:0.5;" x1="656.23" x2="861.8062" y1="852.1637" y2="852.1637"/></g><!--link Tutor to TutoringRole--><g class="link" data-entity-1="Tutor" data-entity-2="TutoringRole" data-source-line="65" data-uid="lnk18" id="link_Tutor_TutoringRole"><path codeLine="65" d="M448.3,269.53 C520.32,299.33 611.3672,337.0089 676.7272,364.0489" fill="none" id="Tutor-to-TutoringRole" style="stroke:#181818;stroke-width:1;"/><polygon fill="none" points="693.36,370.93,679.0209,358.5046,674.4335,369.5931,693.36,370.93" style="stroke:#181818;stroke-width:1;"/></g><!--link Student to TutoringRole--><g class="link" data-entity-1="Student" data-entity-2="TutoringRole" data-source-line="66" data-uid="lnk19" id="link_Student_TutoringRole"><path codeLine="66" d="M826.54,262.08 C809.58,291.41 789.602,325.9385 772.592,355.3485" fill="none" id="Student-to-TutoringRole" style="stroke:#181818;stroke-width:1;"/><polygon fill="none" points="763.58,370.93,777.7858,358.3524,767.3981,352.3445,763.58,370.93" style="stroke:#181818;stroke-width:1;"/></g><!--link TutoringRequest to TutoringElement--><g class="link" data-entity-1="TutoringRequest" data-entity-2="TutoringElement" data-source-line="67" data-uid="lnk20" id="link_TutoringRequest_TutoringElement"><path codeLine="67" d="M621.63,545.04 C598.73,570.05 574.4261,596.5949 549.0061,624.3549" fill="none" id="TutoringRequest-to-TutoringElement" style="stroke:#181818;stroke-width:1;"/><polygon fill="none" points="536.85,637.63,553.4312,628.4069,544.5811,620.3028,536.85,637.63" style="stroke:#181818;stroke-width:1;"/></g><!--link TutoringOffer to TutoringElement--><g class="link" data-entity-1="TutoringOffer" data-entity-2="TutoringElement" data-source-line="68" data-uid="lnk21" id="link_TutoringOffer_TutoringElement"><path codeLine="68" d="M518.63,427.93 C516.32,480.52 512.4929,567.4775 510.1829,619.8675" fill="none" id="TutoringOffer-to-TutoringElement" style="stroke:#181818;stroke-width:1;"/><polygon fill="none" points="509.39,637.85,516.1771,620.1318,504.1887,619.6032,509.39,637.85" style="stroke:#181818;stroke-width:1;"/></g><!--reverse link OTS to Subject--><g class="link" data-entity-1="OTS" data-entity-2="Subject" data-source-line="70" data-uid="lnk22" id="link_OTS_Subject"><path codeLine="70" d="M560.02,107.9 C560.02,136.51 560.02,173.33 560.02,205.32" fill="none" id="OTS-backto-Subject" style="stroke:#181818;stroke-width:1;"/><polygon fill="#181818" points="560.02,95.9,556.02,101.9,560.02,107.9,564.02,101.9,560.02,95.9" style="stroke:#181818;stroke-width:1;"/><text fill="#000000" font-family="sans-serif" font-size="13" lengthAdjust="spacing" textLength="8.271" x="551.0783" y="115.6978">1</text><text fill="#000000" font-family="sans-serif" font-size="13" lengthAdjust="spacing" textLength="6.5" x="553.4784" y="194.5312">*</text></g><!--reverse link OTS to User--><g class="link" data-entity-1="OTS" data-entity-2="User" data-source-line="71" data-uid="lnk23" id="link_OTS_User"><path codeLine="71" d="M588.607,104.8648 C611.947,131.0948 642.43,165.34 670.6,197" fill="none" id="OTS-backto-User" style="stroke:#181818;stroke-width:1;"/><polygon fill="#181818" points="580.63,95.9,581.6303,103.0414,588.607,104.8648,587.6068,97.7234,580.63,95.9" style="stroke:#181818;stroke-width:1;"/><text fill="#000000" font-family="sans-serif" font-size="13" lengthAdjust="spacing" textLength="8.271" x="576.712" y="115.6978">1</text><text fill="#000000" font-family="sans-serif" font-size="13" lengthAdjust="spacing" textLength="6.5" x="658.5165" y="186.3818">*</text></g><!--reverse link OTS to BestTutorAward--><g class="link" data-entity-1="OTS" data-entity-2="BestTutorAward" data-source-line="72" data-uid="lnk24" id="link_OTS_BestTutorAward"><path codeLine="72" d="M517.9167,82.823 C462.9367,96.933 357.58,130.15 283.02,197.49 C234.36,241.43 200.87,311.17 183.34,354.78" fill="none" id="OTS-backto-BestTutorAward" style="stroke:#181818;stroke-width:1;"/><polygon fill="#181818" points="529.54,79.84,522.734,77.4571,517.9167,82.823,524.7227,85.2059,529.54,79.84" style="stroke:#181818;stroke-width:1;"/><text fill="#000000" font-family="sans-serif" font-size="13" lengthAdjust="spacing" textLength="8.271" x="513.5981" y="77.0587">1</text><text fill="#000000" font-family="sans-serif" font-size="13" lengthAdjust="spacing" textLength="6.5" x="179.2575" y="343.8918">*</text></g><!--reverse link Tutor to TutoringOffer--><g class="link" data-entity-1="Tutor" data-entity-2="TutoringOffer" data-source-line="74" data-uid="lnk25" id="link_Tutor_TutoringOffer"><path codeLine="74" d="M411.7703,279.0216 C437.1003,306.0216 465.2,335.96 490.52,362.94" fill="none" id="Tutor-backto-TutoringOffer" style="stroke:#181818;stroke-width:1;"/><polygon fill="#181818" points="403.56,270.27,404.748,277.3826,411.7703,279.0216,410.5824,271.909,403.56,270.27" style="stroke:#181818;stroke-width:1;"/><text fill="#000000" font-family="sans-serif" font-size="13" lengthAdjust="spacing" textLength="8.271" x="400.4546" y="289.971">1</text><text fill="#000000" font-family="sans-serif" font-size="13" lengthAdjust="spacing" textLength="6.5" x="478.1705" y="352.1571">*</text></g><!--reverse link Tutor to TutorAvailability--><g class="link" data-entity-1="Tutor" data-entity-2="TutorAvailability" data-source-line="75" data-uid="lnk26" id="link_Tutor_TutorAvailability"><path codeLine="75" d="M367.0559,282.118 C363.1459,306.448 359.61,328.44 355.4,354.63" fill="none" id="Tutor-backto-TutorAvailability" style="stroke:#181818;stroke-width:1;"/><polygon fill="#181818" points="368.96,270.27,364.0586,275.5593,367.0559,282.118,371.9573,276.8287,368.96,270.27" style="stroke:#181818;stroke-width:1;"/><text fill="#000000" font-family="sans-serif" font-size="13" lengthAdjust="spacing" textLength="8.271" x="359.259" y="289.971">1</text><text fill="#000000" font-family="sans-serif" font-size="13" lengthAdjust="spacing" textLength="6.5" x="349.9797" y="344.0181">*</text></g><!--reverse link User to TutoringRole--><g class="link" data-entity-1="User" data-entity-2="TutoringRole" data-source-line="77" data-uid="lnk27" id="link_User_TutoringRole"><path codeLine="77" d="M720.4955,289.9972 C728.7955,319.3472 736.56,346.77 743.47,371.22" fill="none" id="User-backto-TutoringRole" style="stroke:#181818;stroke-width:1;"/><polygon fill="#181818" points="717.23,278.45,715.0137,285.3121,720.4955,289.9972,722.7118,283.1351,717.23,278.45" style="stroke:#181818;stroke-width:1;"/><text fill="#000000" font-family="sans-serif" font-size="13" lengthAdjust="spacing" textLength="31.6812" x="730.02" y="321.1469">roles</text><text fill="#000000" font-family="sans-serif" font-size="13" lengthAdjust="spacing" textLength="8.271" x="710.4005" y="298.2035">1</text><text fill="#000000" font-family="sans-serif" font-size="13" lengthAdjust="spacing" textLength="24.8066" x="714.8198" y="360.191">0..2</text></g><!--reverse link Student to TutoringRequest--><g class="link" data-entity-1="Student" data-entity-2="TutoringRequest" data-source-line="79" data-uid="lnk28" id="link_Student_TutoringRequest"><path codeLine="79" d="M848.1573,273.9199 C856.3673,313.4999 864.42,382.78 828.02,435.68 C802.62,472.58 756.89,493.54 717.26,505.3" fill="none" id="Student-backto-TutoringRequest" style="stroke:#181818;stroke-width:1;"/><polygon fill="#181818" points="845.72,262.17,843.022,268.8574,848.1573,273.9199,850.8553,267.2325,845.72,262.17" style="stroke:#181818;stroke-width:1;"/><text fill="#000000" font-family="sans-serif" font-size="13" lengthAdjust="spacing" textLength="8.271" x="838.1685" y="282.0263">1</text><text fill="#000000" font-family="sans-serif" font-size="13" lengthAdjust="spacing" textLength="6.5" x="725.2511" y="500.0142">*</text></g><!--reverse link TutoringRequest to TutoringSession--><g class="link" data-entity-1="TutoringRequest" data-entity-2="TutoringSession" data-source-line="81" data-uid="lnk29" id="link_TutoringRequest_TutoringSession"><path codeLine="81" d="M635.3161,556.9412 C633.0461,571.2212 634.42,577.54 642.02,591.68 C648.01,602.83 656.4,612.65 665.96,621.22" fill="none" id="TutoringRequest-backto-TutoringSession" style="stroke:#181818;stroke-width:1;"/><polygon fill="#181818" points="637.2,545.09,632.3076,550.3876,635.3161,556.9412,640.2084,551.6436,637.2,545.09" style="stroke:#181818;stroke-width:1;"/><text fill="#000000" font-family="sans-serif" font-size="13" lengthAdjust="spacing" textLength="71.5635" x="643.02" y="587.7469">allSessions</text><text fill="#000000" font-family="sans-serif" font-size="13" lengthAdjust="spacing" textLength="8.271" x="626.9602" y="564.5514">1</text><text fill="#000000" font-family="sans-serif" font-size="13" lengthAdjust="spacing" textLength="6.5" x="647.0861" y="610.7164">*</text></g><!--link TutoringRequest to TutoringSession--><g class="link" data-entity-1="TutoringRequest" data-entity-2="TutoringSession" data-source-line="92" data-uid="lnk35" id="link_TutoringRequest_TutoringSession"><path codeLine="92" d="M685.55,545.17 C697.53,553.32 709.8,563.3 719.02,574.68 C730.12,588.37 736.4376,600.011 742.6776,615.991" fill="none" id="TutoringRequest-to-TutoringSession" style="stroke:#181818;stroke-width:1;"/><polygon fill="#181818" points="744.86,621.58,745.3123,611.7415,743.0413,616.9225,737.8603,614.6515,744.86,621.58" style="stroke:#181818;stroke-width:1;"/><text fill="#000000" font-family="sans-serif" font-size="13" lengthAdjust="spacing" textLength="75.0039" x="731.02" y="587.7469">firstSession</text><text fill="#000000" font-family="sans-serif" font-size="13" lengthAdjust="spacing" textLength="8.271" x="686.4912" y="564.6499">1</text><text fill="#000000" font-family="sans-serif" font-size="13" lengthAdjust="spacing" textLength="24.8066" x="717.2385" y="610.7749">0..1</text></g><!--reverse link TutoringSession to Payment--><g class="link" data-entity-1="TutoringSession" data-entity-2="Payment" data-source-line="82" data-uid="lnk30" id="link_TutoringSession_Payment"><path codeLine="82" d="M759.02,730.68 C759.02,750.25 759.02,760.66 759.02,779.31" fill="none" id="TutoringSession-backto-Payment" style="stroke:#181818;stroke-width:1;"/><polygon fill="#181818" points="759.02,718.68,755.02,724.68,759.02,730.68,763.02,724.68,759.02,718.68" style="stroke:#181818;stroke-width:1;"/><text fill="#000000" font-family="sans-serif" font-size="13" lengthAdjust="spacing" textLength="8.271" x="750.4771" y="738.6389">1</text><text fill="#000000" font-family="sans-serif" font-size="13" lengthAdjust="spacing" textLength="24.8066" x="733.0996" y="768.4285">0..1</text></g><!--link Subject to TutoringOffer--><g class="link" data-entity-1="Subject" data-entity-2="TutoringOffer" data-source-line="84" data-uid="lnk31" id="link_Subject_TutoringOffer"><path codeLine="84" d="M551.92,270.27 C544.98,297.27 535.04,335.96 528.1,362.94" fill="none" id="Subject-TutoringOffer" style="stroke:#181818;stroke-width:1;"/><text fill="#000000" font-family="sans-serif" font-size="13" lengthAdjust="spacing" textLength="8.271" x="541.6391" y="289.971">1</text><text fill="#000000" font-family="sans-serif" font-size="13" lengthAdjust="spacing" textLength="6.5" x="523.1491" y="352.1571">*</text></g><!--link Subject to TutoringRequest--><g class="link" data-entity-1="Subject" data-entity-2="TutoringRequest" data-source-line="85" data-uid="lnk32" id="link_Subject_TutoringRequest"><path codeLine="85" d="M571.92,270.12 C580.55,293.39 592.2,325.99 601.02,355.08 C616.12,404.89 630.36,464.26 637.75,496.33" fill="none" id="Subject-TutoringRequest" style="stroke:#181818;stroke-width:1;"/><text fill="#000000" font-family="sans-serif" font-size="13" lengthAdjust="spacing" textLength="8.271" x="565.5018" y="290.0418">1</text><text fill="#000000" font-family="sans-serif" font-size="13" lengthAdjust="spacing" textLength="6.5" x="629.7949" y="485.6496">*</text></g><!--link TutoringOffer to TutoringRequest--><g class="link" data-entity-1="TutoringOffer" data-entity-2="TutoringRequest" data-source-line="88" data-uid="lnk33" id="link_TutoringOffer_TutoringRequest"><path codeLine="88" d="M551.37,427.81 C572.73,449.21 600.52,477.08 619.87,496.48" fill="none" id="TutoringOffer-TutoringRequest" style="stroke:#181818;stroke-width:1;"/><text fill="#000000" font-family="sans-serif" font-size="13" lengthAdjust="spacing" textLength="24.8066" x="531.1352" y="447.5015">0..1</text><text fill="#000000" font-family="sans-serif" font-size="13" lengthAdjust="spacing" textLength="6.5" x="607.2329" y="485.4408">*</text></g><!--link TutoringSession to TutoringSession--><g class="link" data-entity-1="TutoringSession" data-entity-2="TutoringSession" data-source-line="91" data-uid="lnk34" id="link_TutoringSession_TutoringSession"><path codeLine="91" d="M864.68,656 C885.04,657.67 899.47,662.37 899.47,670.12 C899.47,677.87 891.0202,682.0924 870.6602,683.7524" fill="none" id="TutoringSession-to-TutoringSession" style="stroke:#181818;stroke-width:1;"/><polygon fill="#181818" points="864.68,684.24,873.9753,687.4954,869.6635,683.8337,873.3252,679.5219,864.68,684.24" style="stroke:#181818;stroke-width:1;"/><text fill="#000000" font-family="sans-serif" font-size="13" lengthAdjust="spacing" textLength="78.6284" x="905.47" y="674.6869">nextSession</text><text fill="#000000" font-family="sans-serif" font-size="13" lengthAdjust="spacing" textLength="8.271" x="872.4003" y="651.551">1</text><text fill="#000000" font-family="sans-serif" font-size="13" lengthAdjust="spacing" textLength="24.8066" x="872.6126" y="681.7558">0..1</text></g><!--link Tutor to BestTutorAward--><g class="link" data-entity-1="Tutor" data-entity-2="BestTutorAward" data-source-line="95" data-uid="lnk36" id="link_Tutor_BestTutorAward"><path codeLine="95" d="M332.53,270.27 C300.48,294.6 255.9,328.44 221.39,354.63" fill="none" id="Tutor-BestTutorAward" style="stroke:#181818;stroke-width:1;"/><text fill="#000000" font-family="sans-serif" font-size="13" lengthAdjust="spacing" textLength="8.271" x="315.8845" y="289.971">1</text><text fill="#000000" font-family="sans-serif" font-size="13" lengthAdjust="spacing" textLength="6.5" x="223.2994" y="344.0181">*</text></g><!--SRC=[XLJBRjim4BppAmWV0oXeUymXWEkcAD02DY87FQ-bLSoM8brovLPmy-yb9Kec9INrnVkOVSnoR5HDpR_X6UMssZUaZL3F_C8PtnbHWsdpugYrPFoBU3uEzfCIPpHMKClP2qFV8KThXLOv0JKsrEkJjbWwSwDL9KoDfJVhaqJovWw43u0gK4gF2wrsqDQewAjGPTTeOx0Kj07ZqD-5mRq1PIiq3iyA2TRoxJxdbz5xicZuXN7tiTJHKL1Zx6CDGbxBFwAbZlhwjniIIeKYtYAOqQcrekErg2j8nnn0_LmNXMuKJN0kkwsgSQrAQY1-r8sHhJjpWLTutXn-O44B-wSTrsT70Gv2-aVemP-0q5M0eRq8VBt1KPLTm3M0W-i8hdswswEMw0_uIlf1ed-GC6Qg5Gf65u-8K5DsHI-JGppYhyOTV9u84ahOz25lHuSZJI3xk_bWAZqRUsoO4JGLUiSAE_NsPstgBbVwkI7OpNMCMF_OMVRtFhaP6qZECrEs2I8SbANQM8Gmh-tL-nM_oJA-kbaD0fd5lUfdmLJP0uyOaQpmMZuM6sFTxsl4lBkz_R1AbNJ7ZVkoR3pFqi1m63Qxr19uaCOT1oc3Ozaq6-_apF3ARetmc_BvHTfl0COr9uyLPlmN7U-MPVT3tPoOmZyKlCMJl5di_btjM1q_yw8E_W40]--></g></svg>