<svg xmlns="http://www.w3.org/2000/svg" xmlns:xlink="http://www.w3.org/1999/xlink" contentStyleType="text/css" data-diagram-type="CLASS" height="866px" preserveAspectRatio="none" style="width:586px;height:866px;background:#FFFFFF;" version="1.1" viewBox="0 0 586 866" width="586px" zoomAndPan="magnify"><defs/><g><!--class User--><g class="entity" data-entity="User" data-source-line="1" data-uid="ent0002" id="entity_User"><rect fill="#F1F1F1" height="113.1875" rx="2.5" ry="2.5" style="stroke:#181818;stroke-width:0.5;" width="116.9863" x="341.29" y="7"/><ellipse cx="380.1743" cy="23" fill="#ADD1B2" rx="11" ry="11" style="stroke:#181818;stroke-width:1;"/><path d="M383.143,28.6406 Q382.5649,28.9375 381.9243,29.0781 Q381.2837,29.2344 380.5805,29.2344 Q378.0805,29.2344 376.7524,27.5938 Q375.4399,25.9375 375.4399,22.8125 Q375.4399,19.6875 376.7524,18.0313 Q378.0805,16.375 380.5805,16.375 Q381.2837,16.375 381.9243,16.5313 Q382.5805,16.6875 383.143,16.9844 L383.143,19.7031 Q382.518,19.125 381.9243,18.8594 Q381.3305,18.5781 380.7055,18.5781 Q379.3618,18.5781 378.6743,19.6563 Q377.9868,20.7188 377.9868,22.8125 Q377.9868,24.9063 378.6743,25.9844 Q379.3618,27.0469 380.7055,27.0469 Q381.3305,27.0469 381.9243,26.7813 Q382.518,26.5 383.143,25.9219 L383.143,28.6406 Z " fill="#000000"/><text fill="#000000" font-family="sans-serif" font-size="14" lengthAdjust="spacing" textLength="31.9102" x="399.4819" y="27.8467">User</text><line style="stroke:#181818;stroke-width:0.5;" x1="342.29" x2="457.2763" y1="39" y2="39"/><text fill="#000000" font-family="sans-serif" font-size="14" lengthAdjust="spacing" textLength="69.7607" x="347.29" y="55.9951">Int UserID</text><text fill="#000000" font-family="sans-serif" font-size="14" lengthAdjust="spacing" textLength="87.5342" x="347.29" y="72.292">String Name</text><text fill="#000000" font-family="sans-serif" font-size="14" lengthAdjust="spacing" textLength="85.0732" x="347.29" y="88.5889">String Email</text><text fill="#000000" font-family="sans-serif" font-size="14" lengthAdjust="spacing" textLength="104.9863" x="347.29" y="104.8857">Date BirthDate</text><line style="stroke:#181818;stroke-width:0.5;" x1="342.29" x2="457.2763" y1="112.1875" y2="112.1875"/></g><!--class Account--><g class="entity" data-entity="Account" data-source-line="8" data-uid="ent0003" id="entity_Account"><rect fill="#F1F1F1" height="72.5625" rx="2.5" ry="2.5" style="stroke:#181818;stroke-width:0.5;" width="147.9531" x="325.81" y="181.18"/><ellipse cx="365.8984" cy="201.3128" fill="#A9DCDF" rx="11" ry="11" style="stroke:#181818;stroke-width:1;"/><path d="M366.0078,196.6566 L364.8515,201.7347 L367.1796,201.7347 L366.0078,196.6566 Z M364.5234,194.4222 L367.5078,194.4222 L370.8671,206.8128 L368.414,206.8128 L367.6484,203.7503 L364.3671,203.7503 L363.6171,206.8128 L361.1796,206.8128 L364.5234,194.4222 Z " fill="#000000"/><text fill="#000000" font-family="sans-serif" font-size="12" font-style="italic" lengthAdjust="spacing" textLength="64.2012" x="383.4736" y="197.3187">«abstract»</text><text fill="#000000" font-family="sans-serif" font-size="14" font-style="italic" lengthAdjust="spacing" textLength="56.7725" x="387.1879" y="213.1439">Account</text><line style="stroke:#181818;stroke-width:0.5;" x1="326.81" x2="472.7631" y1="221.4456" y2="221.4456"/><text fill="#000000" font-family="sans-serif" font-size="14" lengthAdjust="spacing" textLength="135.9531" x="331.81" y="238.4407">Int AccountNumber</text><line style="stroke:#181818;stroke-width:0.5;" x1="326.81" x2="472.7631" y1="245.7425" y2="245.7425"/></g><!--class BusinessAccount--><g class="entity" data-entity="BusinessAccount" data-source-line="12" data-uid="ent0004" id="entity_BusinessAccount"><rect fill="#F1F1F1" height="64.2969" rx="2.5" ry="2.5" style="stroke:#181818;stroke-width:0.5;" width="166.1367" x="413.72" y="314.75"/><ellipse cx="435.753" cy="330.75" fill="#ADD1B2" rx="11" ry="11" style="stroke:#181818;stroke-width:1;"/><path d="M438.7218,336.3906 Q438.1436,336.6875 437.503,336.8281 Q436.8624,336.9844 436.1593,336.9844 Q433.6593,336.9844 432.3311,335.3438 Q431.0186,333.6875 431.0186,330.5625 Q431.0186,327.4375 432.3311,325.7813 Q433.6593,324.125 436.1593,324.125 Q436.8624,324.125 437.503,324.2813 Q438.1593,324.4375 438.7218,324.7344 L438.7218,327.4531 Q438.0968,326.875 437.503,326.6094 Q436.9093,326.3281 436.2843,326.3281 Q434.9405,326.3281 434.253,327.4063 Q433.5655,328.4688 433.5655,330.5625 Q433.5655,332.6563 434.253,333.7344 Q434.9405,334.7969 436.2843,334.7969 Q436.9093,334.7969 437.503,334.5313 Q438.0968,334.25 438.7218,333.6719 L438.7218,336.3906 Z " fill="#000000"/><text fill="#000000" font-family="sans-serif" font-size="14" lengthAdjust="spacing" textLength="118.5078" x="451.3159" y="335.5967">BusinessAccount</text><line style="stroke:#181818;stroke-width:0.5;" x1="414.72" x2="578.8567" y1="346.75" y2="346.75"/><text fill="#000000" font-family="sans-serif" font-size="14" lengthAdjust="spacing" textLength="154.1367" x="419.72" y="363.7451">String CompanyName</text><line style="stroke:#181818;stroke-width:0.5;" x1="414.72" x2="578.8567" y1="371.0469" y2="371.0469"/></g><!--class PersonalAccount--><g class="entity" data-entity="PersonalAccount" data-source-line="16" data-uid="ent0005" id="entity_PersonalAccount"><rect fill="#F1F1F1" height="48" rx="2.5" ry="2.5" style="stroke:#181818;stroke-width:0.5;" width="148.7852" x="230.39" y="322.89"/><ellipse cx="245.39" cy="338.89" fill="#ADD1B2" rx="11" ry="11" style="stroke:#181818;stroke-width:1;"/><path d="M248.3588,344.5306 Q247.7806,344.8275 247.14,344.9681 Q246.4994,345.1244 245.7963,345.1244 Q243.2963,345.1244 241.9681,343.4838 Q240.6556,341.8275 240.6556,338.7025 Q240.6556,335.5775 241.9681,333.9213 Q243.2963,332.265 245.7963,332.265 Q246.4994,332.265 247.14,332.4213 Q247.7963,332.5775 248.3588,332.8744 L248.3588,335.5931 Q247.7338,335.015 247.14,334.7494 Q246.5463,334.4681 245.9213,334.4681 Q244.5775,334.4681 243.89,335.5463 Q243.2025,336.6088 243.2025,338.7025 Q243.2025,340.7963 243.89,341.8744 Q244.5775,342.9369 245.9213,342.9369 Q246.5463,342.9369 247.14,342.6713 Q247.7338,342.39 248.3588,341.8119 L248.3588,344.5306 Z " fill="#000000"/><text fill="#000000" font-family="sans-serif" font-size="14" lengthAdjust="spacing" textLength="116.7852" x="259.39" y="343.7367">PersonalAccount</text><line style="stroke:#181818;stroke-width:0.5;" x1="231.39" x2="378.1752" y1="354.89" y2="354.89"/><line style="stroke:#181818;stroke-width:0.5;" x1="231.39" x2="378.1752" y1="362.89" y2="362.89"/></g><!--class FriendRequest--><g class="entity" data-entity="FriendRequest" data-source-line="20" data-uid="ent0006" id="entity_FriendRequest"><rect fill="#F1F1F1" height="48" rx="2.5" ry="2.5" style="stroke:#181818;stroke-width:0.5;" width="133.5684" x="7" y="322.89"/><ellipse cx="22" cy="338.89" fill="#ADD1B2" rx="11" ry="11" style="stroke:#181818;stroke-width:1;"/><path d="M24.9688,344.5306 Q24.3906,344.8275 23.75,344.9681 Q23.1094,345.1244 22.4063,345.1244 Q19.9063,345.1244 18.5781,343.4838 Q17.2656,341.8275 17.2656,338.7025 Q17.2656,335.5775 18.5781,333.9213 Q19.9063,332.265 22.4063,332.265 Q23.1094,332.265 23.75,332.4213 Q24.4063,332.5775 24.9688,332.8744 L24.9688,335.5931 Q24.3438,335.015 23.75,334.7494 Q23.1563,334.4681 22.5313,334.4681 Q21.1875,334.4681 20.5,335.5463 Q19.8125,336.6088 19.8125,338.7025 Q19.8125,340.7963 20.5,341.8744 Q21.1875,342.9369 22.5313,342.9369 Q23.1563,342.9369 23.75,342.6713 Q24.3438,342.39 24.9688,341.8119 L24.9688,344.5306 Z " fill="#000000"/><text fill="#000000" font-family="sans-serif" font-size="14" lengthAdjust="spacing" textLength="101.5684" x="36" y="343.7367">FriendRequest</text><line style="stroke:#181818;stroke-width:0.5;" x1="8" x2="139.5684" y1="354.89" y2="354.89"/><line style="stroke:#181818;stroke-width:0.5;" x1="8" x2="139.5684" y1="362.89" y2="362.89"/></g><!--class Page--><g class="entity" data-entity="Page" data-source-line="24" data-uid="ent0007" id="entity_Page"><rect fill="#F1F1F1" height="88.8594" rx="2.5" ry="2.5" style="stroke:#181818;stroke-width:0.5;" width="134.0557" x="352.76" y="770.23"/><ellipse cx="386.5945" cy="790.3628" fill="#A9DCDF" rx="11" ry="11" style="stroke:#181818;stroke-width:1;"/><path d="M386.7039,785.7066 L385.5476,790.7847 L387.8758,790.7847 L386.7039,785.7066 Z M385.2195,783.4722 L388.2039,783.4722 L391.5633,795.8628 L389.1101,795.8628 L388.3445,792.8003 L385.0633,792.8003 L384.3133,795.8628 L381.8758,795.8628 L385.2195,783.4722 Z " fill="#000000"/><text fill="#000000" font-family="sans-serif" font-size="12" font-style="italic" lengthAdjust="spacing" textLength="64.2012" x="402.78" y="786.3687">«abstract»</text><text fill="#000000" font-family="sans-serif" font-size="14" font-style="italic" lengthAdjust="spacing" textLength="34.5215" x="417.6198" y="802.1939">Page</text><line style="stroke:#181818;stroke-width:0.5;" x1="353.76" x2="485.8157" y1="810.4956" y2="810.4956"/><text fill="#000000" font-family="sans-serif" font-size="14" lengthAdjust="spacing" textLength="122.0557" x="358.76" y="827.4907">String PageName</text><text fill="#000000" font-family="sans-serif" font-size="14" lengthAdjust="spacing" textLength="60.375" x="358.76" y="843.7876">Int Visits</text><line style="stroke:#181818;stroke-width:0.5;" x1="353.76" x2="485.8157" y1="851.0894" y2="851.0894"/></g><!--class PersonalPage--><g class="entity" data-entity="PersonalPage" data-source-line="29" data-uid="ent0008" id="entity_PersonalPage"><rect fill="#F1F1F1" height="48" rx="2.5" ry="2.5" style="stroke:#181818;stroke-width:0.5;" width="126.5342" x="291.52" y="661.23"/><ellipse cx="306.52" cy="677.23" fill="#ADD1B2" rx="11" ry="11" style="stroke:#181818;stroke-width:1;"/><path d="M309.4888,682.8706 Q308.9106,683.1675 308.27,683.3081 Q307.6294,683.4644 306.9263,683.4644 Q304.4263,683.4644 303.0981,681.8238 Q301.7856,680.1675 301.7856,677.0425 Q301.7856,673.9175 303.0981,672.2613 Q304.4263,670.605 306.9263,670.605 Q307.6294,670.605 308.27,670.7613 Q308.9263,670.9175 309.4888,671.2144 L309.4888,673.9331 Q308.8638,673.355 308.27,673.0894 Q307.6763,672.8081 307.0513,672.8081 Q305.7075,672.8081 305.02,673.8863 Q304.3325,674.9488 304.3325,677.0425 Q304.3325,679.1363 305.02,680.2144 Q305.7075,681.2769 307.0513,681.2769 Q307.6763,681.2769 308.27,681.0113 Q308.8638,680.73 309.4888,680.1519 L309.4888,682.8706 Z " fill="#000000"/><text fill="#000000" font-family="sans-serif" font-size="14" lengthAdjust="spacing" textLength="94.5342" x="320.52" y="682.0767">PersonalPage</text><line style="stroke:#181818;stroke-width:0.5;" x1="292.52" x2="417.0542" y1="693.23" y2="693.23"/><line style="stroke:#181818;stroke-width:0.5;" x1="292.52" x2="417.0542" y1="701.23" y2="701.23"/></g><!--class Privilege--><g class="entity" data-entity="Privilege" data-source-line="33" data-uid="ent0009" id="entity_Privilege"><rect fill="#F1F1F1" height="64.2969" rx="2.5" ry="2.5" style="stroke:#181818;stroke-width:0.5;" width="168.7822" x="77.39" y="440.04"/><ellipse cx="127.3983" cy="456.04" fill="#ADD1B2" rx="11" ry="11" style="stroke:#181818;stroke-width:1;"/><path d="M130.3671,461.6806 Q129.7889,461.9775 129.1483,462.1181 Q128.5077,462.2744 127.8046,462.2744 Q125.3046,462.2744 123.9764,460.6338 Q122.6639,458.9775 122.6639,455.8525 Q122.6639,452.7275 123.9764,451.0713 Q125.3046,449.415 127.8046,449.415 Q128.5077,449.415 129.1483,449.5713 Q129.8046,449.7275 130.3671,450.0244 L130.3671,452.7431 Q129.7421,452.165 129.1483,451.8994 Q128.5546,451.6181 127.9296,451.6181 Q126.5858,451.6181 125.8983,452.6963 Q125.2108,453.7588 125.2108,455.8525 Q125.2108,457.9463 125.8983,459.0244 Q126.5858,460.0869 127.9296,460.0869 Q128.5546,460.0869 129.1483,459.8213 Q129.7421,459.54 130.3671,458.9619 L130.3671,461.6806 Z " fill="#000000"/><text fill="#000000" font-family="sans-serif" font-size="14" lengthAdjust="spacing" textLength="60.2656" x="147.8983" y="460.8867">Privilege</text><line style="stroke:#181818;stroke-width:0.5;" x1="78.39" x2="245.1722" y1="472.04" y2="472.04"/><text fill="#000000" font-family="sans-serif" font-size="14" lengthAdjust="spacing" textLength="156.7822" x="83.39" y="489.0351">String TypeOfPrivilege</text><line style="stroke:#181818;stroke-width:0.5;" x1="78.39" x2="245.1722" y1="496.3369" y2="496.3369"/></g><!--class AdvertisementPage--><g class="entity" data-entity="AdvertisementPage" data-source-line="37" data-uid="ent0010" id="entity_AdvertisementPage"><rect fill="#F1F1F1" height="96.8906" rx="2.5" ry="2.5" style="stroke:#181818;stroke-width:0.5;" width="190.2061" x="389.68" y="534.34"/><ellipse cx="413.9801" cy="550.34" fill="#ADD1B2" rx="11" ry="11" style="stroke:#181818;stroke-width:1;"/><path d="M416.9489,555.9806 Q416.3708,556.2775 415.7301,556.4181 Q415.0895,556.5744 414.3864,556.5744 Q411.8864,556.5744 410.5583,554.9338 Q409.2458,553.2775 409.2458,550.1525 Q409.2458,547.0275 410.5583,545.3713 Q411.8864,543.715 414.3864,543.715 Q415.0895,543.715 415.7301,543.8713 Q416.3864,544.0275 416.9489,544.3244 L416.9489,547.0431 Q416.3239,546.465 415.7301,546.1994 Q415.1364,545.9181 414.5114,545.9181 Q413.1676,545.9181 412.4801,546.9963 Q411.7926,548.0588 411.7926,550.1525 Q411.7926,552.2463 412.4801,553.3244 Q413.1676,554.3869 414.5114,554.3869 Q415.1364,554.3869 415.7301,554.1213 Q416.3239,553.84 416.9489,553.2619 L416.9489,555.9806 Z " fill="#000000"/><text fill="#000000" font-family="sans-serif" font-size="14" lengthAdjust="spacing" textLength="137.5391" x="430.0468" y="555.1867">AdvertisementPage</text><line style="stroke:#181818;stroke-width:0.5;" x1="390.68" x2="578.8861" y1="566.34" y2="566.34"/><text fill="#000000" font-family="sans-serif" font-size="14" lengthAdjust="spacing" textLength="138.6943" x="395.68" y="583.3351">Double BounceRate</text><text fill="#000000" font-family="sans-serif" font-size="14" lengthAdjust="spacing" textLength="178.2061" x="395.68" y="599.632">Double ClickThroughRate</text><text fill="#000000" font-family="sans-serif" font-size="14" lengthAdjust="spacing" textLength="156.085" x="395.68" y="615.9289">Double CoversionRate</text><line style="stroke:#181818;stroke-width:0.5;" x1="390.68" x2="578.8861" y1="623.2306" y2="623.2306"/></g><ellipse cx="282.78" cy="472.19" fill="#181818" rx="2" ry="2" style="stroke:#181818;stroke-width:1;"/><!--link User to Account--><g class="link" data-entity-1="User" data-entity-2="Account" data-source-line="43" data-uid="lnk11" id="link_User_Account"><path codeLine="43" d="M399.78,120.28 C399.78,140.6 399.78,163 399.78,181.07" fill="none" id="User-Account" style="stroke:#181818;stroke-width:1;"/><text fill="#000000" font-family="sans-serif" font-size="13" lengthAdjust="spacing" textLength="8.271" x="391.3086" y="140.1777">1</text><text fill="#000000" font-family="sans-serif" font-size="13" lengthAdjust="spacing" textLength="8.271" x="391.0663" y="170.0567">1</text></g><!--reverse link Account to BusinessAccount--><g class="link" data-entity-1="Account" data-entity-2="BusinessAccount" data-source-line="44" data-uid="lnk12" id="link_Account_BusinessAccount"><path codeLine="44" d="M437.7058,268.28 C452.1758,287.28 458.92,296.16 472.88,314.49" fill="none" id="Account-backto-BusinessAccount" style="stroke:#181818;stroke-width:1;"/><polygon fill="none" points="426.8,253.96,432.9325,271.9153,442.4792,264.6447,426.8,253.96" style="stroke:#181818;stroke-width:1;"/></g><!--reverse link Account to PersonalAccount--><g class="link" data-entity-1="Account" data-entity-2="PersonalAccount" data-source-line="45" data-uid="lnk13" id="link_Account_PersonalAccount"><path codeLine="45" d="M362.5632,268.3923 C346.2032,290.3423 336.43,303.45 322.12,322.64" fill="none" id="Account-backto-PersonalAccount" style="stroke:#181818;stroke-width:1;"/><polygon fill="none" points="373.32,253.96,357.7524,264.8067,367.3739,271.9779,373.32,253.96" style="stroke:#181818;stroke-width:1;"/></g><!--link BusinessAccount to AdvertisementPage--><g class="link" data-entity-1="BusinessAccount" data-entity-2="AdvertisementPage" data-source-line="46" data-uid="lnk14" id="link_BusinessAccount_AdvertisementPage"><path codeLine="46" d="M495.17,379.44 C493.13,419.21 489.6,487.97 487.23,534.16" fill="none" id="BusinessAccount-AdvertisementPage" style="stroke:#181818;stroke-width:1;"/><text fill="#000000" font-family="sans-serif" font-size="13" lengthAdjust="spacing" textLength="8.271" x="486.1248" y="399.1525">1</text><text fill="#000000" font-family="sans-serif" font-size="13" lengthAdjust="spacing" textLength="6.5" x="481.1874" y="523.3436">*</text></g><!--link PersonalAccount to PersonalPage--><g class="link" data-entity-1="PersonalAccount" data-entity-2="PersonalPage" data-source-line="47" data-uid="lnk15" id="link_PersonalAccount_PersonalPage"><path codeLine="47" d="M311.18,371.28 C314.12,382.62 317.45,396.47 319.78,409.04 C336.97,501.62 348.32,613.29 352.72,660.9" fill="none" id="PersonalAccount-PersonalPage" style="stroke:#181818;stroke-width:1;"/><text fill="#000000" font-family="sans-serif" font-size="13" lengthAdjust="spacing" textLength="87.9214" x="335.78" y="476.7569">administrator</text><text fill="#000000" font-family="sans-serif" font-size="13" lengthAdjust="spacing" textLength="8.271" x="303.7974" y="391.1363">1</text><text fill="#000000" font-family="sans-serif" font-size="13" lengthAdjust="spacing" textLength="6.5" x="345.5458" y="650.2245">*</text></g><!--link PersonalAccount to apoint17--><g class="link" data-entity-1="PersonalAccount" data-entity-2="apoint17" data-source-line="49" data-uid="lnk19" id="link_PersonalAccount_apoint17"><path d="M300.59,371.38 C294.71,404.35 284.54,461.36 282.99,470.06" fill="none" id="PersonalAccount-apoint17" style="stroke:#181818;stroke-width:1;"/><text fill="#000000" font-family="sans-serif" font-size="13" lengthAdjust="spacing" textLength="6.5" x="292.9845" y="390.8599">*</text></g><!--link apoint17 to PersonalPage--><g class="link" data-entity-1="apoint17" data-entity-2="PersonalPage" data-source-line="49" data-uid="lnk20" id="link_apoint17_PersonalPage"><path d="M283.07,474.49 C285.57,485.72 304.21,567.81 328.78,631.23 C332.64,641.17 337.65,651.78 342.24,660.88" fill="none" id="apoint17-PersonalPage" style="stroke:#181818;stroke-width:1;"/><text fill="#000000" font-family="sans-serif" font-size="13" lengthAdjust="spacing" textLength="6.5" x="332.5113" y="650.1996">*</text></g><!--link Privilege to apoint17--><g class="link" data-entity-1="Privilege" data-entity-2="apoint17" data-source-line="49" data-uid="lnk21" id="link_Privilege_apoint17"><path d="M246.39,472.19 C257.76,472.19 269.14,472.19 280.51,472.19" fill="none" id="Privilege-apoint17" style="stroke:#181818;stroke-width:1;stroke-dasharray:7,7;"/></g><!--link FriendRequest to PersonalAccount--><g class="link" data-entity-1="FriendRequest" data-entity-2="PersonalAccount" data-source-line="50" data-uid="lnk22" id="link_FriendRequest_PersonalAccount"><path codeLine="50" d="M140.83,363.66 C148.1,364.98 155.42,366.11 162.48,366.89 C184.42,369.34 208.2,367.7 229.92,364.51" fill="none" id="FriendRequest-PersonalAccount" style="stroke:#181818;stroke-width:1;"/><text fill="#000000" font-family="sans-serif" font-size="13" lengthAdjust="spacing" textLength="44.605" x="163.48" y="362.9569">sender</text><text fill="#000000" font-family="sans-serif" font-size="13" lengthAdjust="spacing" textLength="6.5" x="148.5186" y="361.7481">*</text><text fill="#000000" font-family="sans-serif" font-size="13" lengthAdjust="spacing" textLength="8.271" x="214.1703" y="362.5796">1</text></g><!--link FriendRequest to PersonalAccount--><g class="link" data-entity-1="FriendRequest" data-entity-2="PersonalAccount" data-source-line="51" data-uid="lnk23" id="link_FriendRequest_PersonalAccount"><path codeLine="51" d="M140.91,346.89 C168.88,346.89 201.48,346.89 230.2,346.89" fill="none" id="FriendRequest-PersonalAccount-1" style="stroke:#181818;stroke-width:1;"/><text fill="#000000" font-family="sans-serif" font-size="13" lengthAdjust="spacing" textLength="53.1362" x="158.98" y="339.9569">receiver</text><text fill="#000000" font-family="sans-serif" font-size="13" lengthAdjust="spacing" textLength="6.5" x="148.6074" y="343.1438">*</text><text fill="#000000" font-family="sans-serif" font-size="13" lengthAdjust="spacing" textLength="8.271" x="214.1101" y="343.1903">1</text></g><!--link AdvertisementPage to Page--><g class="link" data-entity-1="AdvertisementPage" data-entity-2="Page" data-source-line="52" data-uid="lnk24" id="link_AdvertisementPage_Page"><path codeLine="52" d="M471.24,631.69 C459.7,672.49 448.164,713.2681 437.004,752.7681" fill="none" id="AdvertisementPage-to-Page" style="stroke:#181818;stroke-width:1;"/><polygon fill="none" points="432.11,770.09,442.778,754.3994,431.23,751.1368,432.11,770.09" style="stroke:#181818;stroke-width:1;"/></g><!--link PersonalPage to Page--><g class="link" data-entity-1="PersonalPage" data-entity-2="Page" data-source-line="53" data-uid="lnk25" id="link_PersonalPage_Page"><path codeLine="53" d="M366.71,709.6 C375.28,726.42 378.9303,733.5659 389.2403,753.7759" fill="none" id="PersonalPage-to-Page" style="stroke:#181818;stroke-width:1;"/><polygon fill="none" points="397.42,769.81,394.585,751.0493,383.8956,756.5025,397.42,769.81" style="stroke:#181818;stroke-width:1;"/></g><!--SRC=[ZL9DRy8m3BtdLqISDhGYxOeG4X-Rn8KXndOFmGDhRSBY50d1_lkIh1zfou4UeiRsUxRVYqm54VyWCFp2kFiMoeRhOXwkxzQWslEbo22-lsG2qn2O2mjyYiOU_1_xPKnioHeXBPz8gND7DngLeV4uwbAabtcs1UE1CimopGaL49NeIzntfhEZKESmJeLOWI6jH5eZwjohGL2xDVpaG6Mc6d0bzd1hkgAPJrUB-ua_aT1Ijt7WYRkk39umXH2D23Vd8xnzLScwVh8xWR58a86o1LiGL-VRrCdhrfAmzlf6qLcAydjpC3hV7pevxGW9jLeNfWI7Uy-z9757AJsh7BecILluPhAbCMkxz4_TxtLNOMrxgjA6V4CkTXagz5PORRge_WqKguKU3FX32_CKbpwovbFmV5wATfyX9rVb7kIzvGOaeDkPTKrCakkODpHeXly0]--></g></svg>